<svg xmlns="http://www.w3.org/2000/svg" width="1248" height="157" fill="none"><g clip-path="url(#a)"><rect width="1248" height="157" fill="#fff"/><rect width="3043.7" height="157.039" fill="url(#b)" transform="translate(-898)"/><path stroke="#1C8234" stroke-opacity="0.5" stroke-width="0.399969" d="M-276.906 0s-2.197.611-6.59 1.772c-2.219.585-4.923 1.299-8.113 2.138-3.201.844-6.888 1.808-11.006 2.892-2.053.54-4.216 1.112-6.457 1.705-2.307.603-4.691 1.232-7.164 1.88-2.473.655-5.067 1.334-7.749 2.044-2.66.7-5.442 1.432-8.312 2.182-2.881.759-5.828 1.536-8.886 2.339-3.024.794-6.17 1.625-9.371 2.468-3.213.848-6.524 1.719-9.88 2.602-3.4.889-6.833 1.8-10.365 2.728-3.543.928-7.142 1.874-10.818 2.838-3.675.973-7.395 1.955-11.215 2.955-3.786 1-7.66 2.018-11.601 3.053-3.919 1.031-7.892 2.08-11.966 3.147-4.029 1.062-8.124 2.142-12.274 3.231-4.151 1.094-8.356 2.2-12.595 3.312l-12.86 3.388c-4.338 1.143-8.709 2.294-13.113 3.45l-13.346 3.513c-2.23.585-4.504 1.178-6.744 1.772l-6.778 1.785c-2.263.598-4.548 1.192-6.822 1.794-2.307.603-4.592 1.206-6.866 1.808-2.318.607-4.614 1.214-6.932 1.817-2.296.607-4.57 1.21-6.91 1.825a4252.54 4252.54 0 0 1-6.943 1.826c-2.34.616-4.658 1.227-7.02 1.843-2.296.612-4.625 1.219-6.977 1.84-2.318.61-4.68 1.231-7.031 1.852-2.34.615-4.68 1.227-7.043 1.847-2.329.616-4.68 1.237-7.053 1.857-2.318.612-4.68 1.232-7.032 1.852-2.373.62-4.724 1.241-7.042 1.857-2.373.616-4.725 1.237-7.065 1.857-2.362.62-4.713 1.24-7.064 1.852-2.34.62-4.692 1.241-7.054 1.857-2.329.62-4.669 1.232-7.009 1.848l-7.032 1.852c-2.34.616-4.68 1.228-7.009 1.84A6423.97 6423.97 0 0 1-627 92.16c-2.318.611-4.637 1.218-6.944 1.825-2.318.612-4.636 1.219-6.943 1.826-2.296.607-4.614 1.21-6.899 1.816-2.307.603-4.592 1.205-6.866 1.808-2.296.603-4.558 1.196-6.821 1.794-2.274.598-4.526 1.192-6.789 1.786-2.263.593-4.504 1.187-6.744 1.772-4.482 1.182-8.931 2.352-13.335 3.512-4.404 1.161-8.775 2.308-13.113 3.451-4.35 1.142-8.632 2.267-12.882 3.387-4.239 1.116-8.445 2.219-12.606 3.312-4.117 1.089-8.235 2.169-12.253 3.227-4.062 1.071-8.058 2.12-11.976 3.151-3.93 1.036-7.783 2.049-11.613 3.053-3.786 1-7.528 1.982-11.215 2.955-3.665.964-7.252 1.906-10.784 2.839-3.533.928-6.977 1.834-10.366 2.727-3.355.884-6.678 1.759-9.89 2.602-3.223.844-6.347 1.669-9.394 2.468-3.035.804-6.005 1.58-8.863 2.335-2.859.754-5.641 1.486-8.323 2.187-2.694.709-5.255 1.388-7.76 2.044-2.473.647-4.857 1.277-7.12 1.875-2.285.598-4.449 1.169-6.502 1.709-4.117 1.085-7.771 2.049-10.994 2.892-3.201.844-5.906 1.554-8.102 2.134-4.416 1.165-6.601 1.781-6.601 1.781M-170.937 0s-1.722.611-5.001 1.768c-1.678.58-3.72 1.294-6.126 2.133a1952.763 1952.763 0 0 1-13.544 4.584c-1.811.603-3.709 1.227-5.674 1.879-1.998.652-4.073 1.326-6.248 2.035a2244.472 2244.472 0 0 1-14.107 4.513c-2.528.794-5.155 1.62-7.859 2.464a3632.366 3632.366 0 0 1-17.286 5.32c-3.058.928-6.182 1.875-9.383 2.839-3.212.968-6.491 1.946-9.857 2.946-3.345 1-6.767 2.017-10.266 3.048l-10.674 3.147c-3.643 1.058-7.33 2.138-11.072 3.227-3.764 1.089-7.561 2.196-11.424 3.307-3.864 1.116-7.76 2.245-11.734 3.384-3.974 1.142-7.992 2.29-12.032 3.45-4.062 1.156-8.158 2.325-12.297 3.504a2741.116 2741.116 0 0 1-12.517 3.557c-2.087.598-4.195 1.192-6.314 1.794-2.12.603-4.261 1.205-6.381 1.803-2.13.608-4.272 1.215-6.413 1.822-2.152.602-4.294 1.205-6.457 1.82-2.142.603-4.316 1.215-6.469 1.826-2.197.616-4.36 1.223-6.524 1.839-2.163.612-4.338 1.223-6.545 1.839-2.164.612-4.372 1.232-6.557 1.848-2.197.616-4.36 1.232-6.579 1.852-2.175.612-4.371 1.232-6.59 1.852-2.164.612-4.371 1.232-6.568 1.853-2.208.62-4.426 1.236-6.612 1.857-2.197.615-4.382 1.231-6.59 1.852-2.197.62-4.404 1.24-6.601 1.852-2.185.62-4.382 1.241-6.59 1.853-2.185.62-4.382 1.236-6.546 1.852-2.218.616-4.404 1.232-6.578 1.848-2.175.611-4.35 1.227-6.524 1.839-2.197.616-4.36 1.223-6.524 1.838a4445.46 4445.46 0 0 0-6.468 1.826c-2.175.612-4.305 1.219-6.458 1.821-2.141.607-4.283 1.214-6.435 1.821-2.131.598-4.239 1.2-6.358 1.803-2.12.603-4.228 1.197-6.347 1.795-2.109.598-4.173 1.191-6.259 1.781l-6.248 1.776c-4.15 1.178-8.235 2.348-12.275 3.504-4.062 1.16-8.058 2.307-12.032 3.45a4946.63 4946.63 0 0 0-11.755 3.383c-3.842 1.112-7.672 2.219-11.425 3.308-3.72 1.089-7.44 2.169-11.028 3.222-3.664 1.072-7.23 2.12-10.707 3.151-3.499 1.032-6.91 2.045-10.299 3.049-3.333 1-6.612 1.977-9.824 2.946a3618.672 3618.672 0 0 0-18.29 5.561c-2.848.884-5.663 1.754-8.379 2.598-2.704.844-5.32 1.665-7.859 2.464-2.528.799-4.978 1.575-7.329 2.33-2.352.754-4.615 1.482-6.8 2.182-2.175.71-4.228 1.384-6.226 2.036-1.976.651-3.863 1.276-5.662 1.874-1.789.594-3.489 1.165-5.1 1.705a3839.54 3839.54 0 0 0-8.456 2.884 848.676 848.676 0 0 0-6.115 2.129c-3.289 1.16-5.056 1.776-5.056 1.776M-64.98 0l-4.437 1.768c-1.48.58-3.279 1.29-5.42 2.129-2.164.839-4.636 1.803-7.44 2.883-1.413.536-2.892 1.107-4.448 1.696-1.568.603-3.224 1.227-4.935 1.875-1.733.651-3.52 1.33-5.42 2.035-1.887.7-3.83 1.428-5.861 2.178-2.031.754-4.139 1.531-6.325 2.33-2.174.795-4.448 1.62-6.755 2.46-2.34.843-4.747 1.713-7.208 2.597-2.484.884-5.012 1.79-7.628 2.718-2.627.924-5.298 1.87-8.036 2.83-2.748.969-5.563 1.946-8.422 2.946-2.881.995-5.828 2.013-8.82 3.044-2.991 1.027-6.038 2.076-9.151 3.138a3128.541 3128.541 0 0 1-9.493 3.222 3354.175 3354.175 0 0 1-9.824 3.308 7384.17 7384.17 0 0 1-10.1 3.379c-3.433 1.138-6.888 2.285-10.376 3.44-3.499 1.157-7.032 2.326-10.619 3.505-1.788.584-3.577 1.178-5.376 1.767-1.81.594-3.609 1.187-5.431 1.781-1.821.598-3.654 1.192-5.486 1.794-1.843.598-3.687 1.201-5.53 1.8-1.855.606-3.709 1.213-5.575 1.816-1.876.607-3.708 1.205-5.596 1.82-1.865.599-3.742 1.215-5.619 1.822-1.909.616-3.775 1.223-5.673 1.839-1.877.611-3.764 1.218-5.674 1.839-1.888.607-3.797 1.227-5.707 1.843-1.898.616-3.808 1.227-5.718 1.848-1.887.611-3.808 1.232-5.74 1.848-1.887.616-3.797 1.232-5.718 1.852-1.909.616-3.841 1.236-5.751 1.848-1.909.62-3.819 1.24-5.729 1.857-1.92.62-3.83 1.236-5.751 1.852-1.898.616-3.819 1.236-5.717 1.848-1.91.62-3.809 1.232-5.718 1.848-1.91.616-3.809 1.232-5.707 1.843-1.899.616-3.797 1.228-5.674 1.84-1.899.615-3.797 1.222-5.674 1.838-1.876.607-3.775 1.218-5.618 1.821-1.877.612-3.753 1.214-5.597 1.821-1.865.603-3.72 1.21-5.574 1.812-1.844.603-3.687 1.205-5.53 1.803-1.833.603-3.654 1.197-5.475 1.795-1.822.593-3.632 1.187-5.431 1.781-1.811.589-3.621 1.183-5.409 1.767l-10.597 3.504c-3.51 1.156-6.954 2.303-10.376 3.441-3.422 1.138-6.778 2.263-10.122 3.379-3.301 1.112-6.579 2.214-9.802 3.308-3.213 1.084-6.381 2.16-9.482 3.218-3.124 1.066-6.193 2.111-9.184 3.142-3.003 1.031-5.906 2.044-8.798 3.044-2.859 1-5.674 1.977-8.422 2.946-2.738.959-5.42 1.901-8.036 2.83l-7.628 2.718c-2.461.884-4.868 1.754-7.208 2.598-2.34.839-4.57 1.66-6.755 2.459-2.197.799-4.294 1.575-6.336 2.325-2.021.755-3.996 1.482-5.873 2.183-1.876.705-3.665 1.384-5.398 2.035-1.733.647-3.366 1.272-4.956 1.87-1.534.594-3.047 1.165-4.426 1.701-2.804 1.08-5.288 2.044-7.44 2.883-2.142.839-3.963 1.549-5.409 2.125-2.947 1.16-4.482 1.772-4.482 1.772M41.011 0s-1.336.611-3.83 1.763c-1.27.58-2.815 1.29-4.658 2.13-1.855.838-3.974 1.798-6.38 2.878a639.32 639.32 0 0 1-3.809 1.696c-1.347.598-2.748 1.228-4.206 1.875-1.49.651-3.013 1.325-4.636 2.03-1.59.701-3.256 1.429-4.978 2.174-1.733.755-3.521 1.531-5.376 2.33-1.843.79-3.764 1.616-5.74 2.455-1.976.844-4.018 1.71-6.104 2.593-2.097.884-4.239 1.79-6.457 2.714-2.208.924-4.482 1.87-6.778 2.83-2.329.964-4.702 1.946-7.12 2.941-2.417.996-4.89 2.009-7.418 3.04-2.527 1.026-5.11 2.07-7.715 3.133a3011.169 3011.169 0 0 1-7.992 3.218c-2.705 1.09-5.464 2.192-8.246 3.303-2.793 1.112-5.618 2.236-8.489 3.374-2.88 1.139-5.795 2.281-8.72 3.437-2.936 1.156-5.905 2.321-8.908 3.5-1.501.584-3.013 1.174-4.525 1.767-1.513.59-3.047 1.178-4.56 1.777-1.545.593-3.057 1.191-4.602 1.79-1.546.598-3.091 1.2-4.659 1.798a998.52 998.52 0 0 1-4.658 1.812c-1.567.603-3.113 1.206-4.702 1.817-1.546.598-3.135 1.214-4.714 1.821l-4.757 1.835c-1.579.606-3.168 1.218-4.769 1.834l-4.79 1.843c-1.612.612-3.19 1.228-4.791 1.844-1.601.611-3.212 1.232-4.813 1.848-1.6.611-3.201 1.231-4.824 1.847-1.6.616-3.223 1.237-4.823 1.853-1.601.611-3.191 1.232-4.813 1.848-1.601.616-3.201 1.236-4.802 1.847-1.611.616-3.212 1.237-4.813 1.848-1.6.616-3.212 1.232-4.79 1.844-1.612.616-3.201 1.232-4.791 1.843-1.6.612-3.19 1.228-4.769 1.835-1.589.611-3.168 1.223-4.757 1.834-1.579.607-3.157 1.219-4.713 1.821-1.579.607-3.146 1.214-4.703 1.817-1.556.602-3.124 1.21-4.691 1.812-1.535.598-3.08 1.2-4.625 1.799-1.546.598-3.091 1.196-4.603 1.789-1.546.599-3.047 1.188-4.559 1.777-1.512.594-3.025 1.183-4.526 1.767-3.002 1.179-5.972 2.344-8.908 3.5-2.958 1.156-5.839 2.298-8.72 3.437-2.87 1.138-5.685 2.258-8.489 3.374l-8.268 3.303c-2.704 1.084-5.353 2.16-7.958 3.213-2.638 1.067-5.21 2.112-7.727 3.138-2.528 1.031-4.989 2.04-7.429 3.04-2.406.995-4.769 1.977-7.098 2.941-2.329.96-4.559 1.897-6.799 2.83-2.197.924-4.327 1.826-6.436 2.714-2.086.879-4.128 1.749-6.104 2.593-1.976.839-3.886 1.66-5.74 2.455-1.854.799-3.643 1.575-5.376 2.325-1.733.75-3.399 1.478-5.011 2.178-1.59.706-3.124 1.38-4.603 2.031a1764.59 1764.59 0 0 0-4.228 1.871c-1.324.593-2.594 1.16-3.786 1.7-2.406 1.08-4.526 2.04-6.391 2.879-1.855.839-3.389 1.549-4.647 2.125-2.528 1.156-3.853 1.772-3.853 1.772M146.98 0l-3.157 1.763c-1.06.58-2.351 1.29-3.853 2.125-1.534.839-3.289 1.798-5.276 2.879a258.95 258.95 0 0 1-3.124 1.691c-1.093.598-2.263 1.223-3.455 1.87-1.236.652-2.483 1.326-3.797 2.031-1.314.697-2.682 1.424-4.106 2.174-1.435.75-2.903 1.526-4.405 2.32-1.512.795-3.09 1.617-4.702 2.456-1.623.843-3.311 1.71-5 2.588-1.711.884-3.466 1.786-5.277 2.714-1.821.924-3.654 1.866-5.541 2.826-1.91.964-3.83 1.941-5.817 2.932-1.976.995-3.996 2.009-6.038 3.04-2.053 1.026-4.15 2.066-6.292 3.129-2.13 1.057-4.316 2.133-6.49 3.213-2.208 1.09-4.471 2.187-6.723 3.299a1343.715 1343.715 0 0 1-6.91 3.37c-2.318 1.133-4.692 2.28-7.065 3.432-2.384 1.151-4.813 2.316-7.241 3.49-1.214.585-2.44 1.179-3.665 1.768-1.247.589-2.461 1.178-3.698 1.772-1.247.598-2.483 1.192-3.742 1.79-1.258.598-2.505 1.196-3.753 1.794-1.27.607-2.55 1.21-3.797 1.812-1.28.603-2.528 1.2-3.808 1.812-1.259.598-2.55 1.214-3.82 1.821-1.302.612-2.571 1.219-3.863 1.83-1.28.607-2.56 1.214-3.863 1.835-1.28.607-2.583 1.223-3.897 1.839-1.28.611-2.583 1.223-3.874 1.839-1.303.611-2.594 1.231-3.897 1.847l-3.896 1.844c-1.303.616-2.606 1.232-3.92 1.848-1.28.616-2.582 1.232-3.885 1.847l-3.896 1.844c-1.303.616-2.627 1.232-3.908 1.848-1.313.616-2.594 1.227-3.896 1.839-1.28.616-2.572 1.227-3.864 1.839-1.291.611-2.583 1.227-3.863 1.834-1.292.612-2.583 1.219-3.864 1.83-1.27.607-2.55 1.214-3.83 1.821-1.27.607-2.55 1.21-3.797 1.812-1.28.603-2.528 1.205-3.797 1.812a1213.48 1213.48 0 0 0-3.765 1.795c-1.247.598-2.483 1.191-3.742 1.79-1.225.593-2.472 1.182-3.686 1.772l-3.676 1.767a1709.49 1709.49 0 0 0-7.23 3.49c-2.396 1.152-4.747 2.299-7.098 3.433-2.318 1.138-4.603 2.254-6.888 3.37a1962.807 1962.807 0 0 0-6.711 3.298c-2.197 1.08-4.36 2.156-6.49 3.209-2.142 1.063-4.24 2.107-6.293 3.134-2.075 1.031-4.062 2.039-6.071 3.035-1.954.995-3.897 1.973-5.784 2.937-1.888.959-3.731 1.897-5.541 2.825-1.811.924-3.555 1.826-5.277 2.714-1.722.879-3.377 1.745-5 2.589-1.612.839-3.179 1.655-4.703 2.454-1.534.795-3.002 1.572-4.426 2.317-1.413.754-2.771 1.482-4.084 2.178-1.325.705-2.594 1.379-3.797 2.031-1.215.647-2.363 1.272-3.477 1.866-1.082.593-2.131 1.16-3.135 1.696-1.976 1.08-3.72 2.04-5.244 2.879a332.479 332.479 0 0 0-3.841 2.12c-2.075 1.156-3.179 1.767-3.179 1.767M252.96 0s-.861.607-2.484 1.759c-.806.58-1.81 1.29-2.991 2.124-1.193.84-2.572 1.799-4.107 2.875-.761.535-1.578 1.102-2.428 1.691-.861.598-1.766 1.223-2.705 1.866-.938.652-1.92 1.326-2.947 2.026-1.037.701-2.097 1.424-3.19 2.174-1.104.75-2.263 1.522-3.422 2.321-1.192.79-2.395 1.611-3.665 2.45-1.236.84-2.538 1.705-3.863 2.585-1.325.884-2.693 1.785-4.084 2.709-1.402.924-2.848 1.861-4.294 2.82-1.468.965-2.97 1.938-4.493 2.933-1.534.996-3.091 2.004-4.691 3.035a1952.44 1952.44 0 0 1-4.846 3.125c-1.656 1.053-3.334 2.129-5.022 3.21-1.722 1.084-3.433 2.182-5.189 3.293a1056.672 1056.672 0 0 1-5.331 3.361c-1.799 1.134-3.61 2.28-5.464 3.432-1.832 1.152-3.687 2.312-5.563 3.486-.939.585-1.888 1.174-2.837 1.763-.939.59-1.888 1.179-2.848 1.772-.95.594-1.91 1.188-2.892 1.786-.95.598-1.91 1.196-2.881 1.794-.972.603-1.943 1.205-2.926 1.808-.982.602-1.942 1.2-2.925 1.807-.993.599-1.964 1.21-2.947 1.817-.993.611-1.976 1.218-2.991 1.83-.972.607-1.965 1.214-2.959 1.83-.993.607-1.987 1.223-2.98 1.839-1.005.611-1.998 1.223-3.002 1.839-.994.611-1.987 1.223-3.014 1.839-.982.611-1.998 1.227-2.98 1.843l-3.014 1.848c-.993.612-1.998 1.227-3.002 1.843-1.016.616-1.998 1.232-3.014 1.844-.993.611-1.987 1.227-2.98 1.839-1.005.616-1.998 1.227-3.003 1.839-.993.616-1.986 1.227-2.98 1.839-1.015.611-1.987 1.222-2.991 1.83-.983.611-1.965 1.218-2.97 1.83-.971.602-1.953 1.21-2.936 1.812-.982.607-1.965 1.21-2.925 1.812-.982.602-1.954 1.205-2.925 1.808-.972.598-1.932 1.196-2.914 1.794-.95.598-1.91 1.192-2.86 1.785-.96.594-1.909 1.183-2.847 1.772-.95.589-1.899 1.179-2.837 1.763-1.877 1.174-3.731 2.335-5.597 3.486-1.82 1.152-3.653 2.294-5.453 3.433-1.788 1.133-3.554 2.249-5.309 3.36-1.755 1.107-3.477 2.21-5.188 3.294-1.689 1.081-3.378 2.156-5.012 3.205-1.655 1.062-3.278 2.107-4.878 3.129-1.579 1.031-3.135 2.035-4.68 3.035-1.513.991-3.014 1.969-4.482 2.933-1.457.955-2.881 1.892-4.294 2.82-1.402.924-2.771 1.822-4.084 2.71-1.325.879-2.628 1.745-3.897 2.584-1.236.839-2.473 1.656-3.632 2.451-1.192.798-2.318 1.571-3.422 2.316a201.365 201.365 0 0 0-3.19 2.178 441.174 441.174 0 0 0-2.947 2.027c-.938.642-1.843 1.267-2.704 1.861-.85.593-1.667 1.16-2.44 1.696-1.534 1.076-2.903 2.035-4.095 2.874a479.234 479.234 0 0 1-3.014 2.12c-1.6 1.157-2.461 1.768-2.461 1.768M358.928 0s-.618.607-1.766 1.759c-.585.58-1.291 1.285-2.141 2.12-.828.839-1.799 1.794-2.892 2.87-.552.535-1.126 1.102-1.733 1.691-.607.594-1.248 1.219-1.91 1.862-.673.651-1.369 1.325-2.097 2.026-.74.696-1.479 1.42-2.252 2.17-.784.749-1.601 1.521-2.44 2.316-.827.79-1.688 1.611-2.572 2.45-.894.84-1.81 1.7-2.759 2.58-.927.884-1.888 1.78-2.881 2.705-1.005.92-2.02 1.861-3.047 2.816a338.414 338.414 0 0 1-3.168 2.928c-1.082.995-2.185 2.004-3.311 3.03a494.573 494.573 0 0 1-3.444 3.125 426.66 426.66 0 0 1-3.533 3.205c-1.203 1.085-2.428 2.178-3.653 3.285-1.237 1.107-2.506 2.227-3.764 3.361a1028.17 1028.17 0 0 1-3.853 3.423 996.377 996.377 0 0 1-3.93 3.482c-.662.585-1.346 1.174-2.008 1.763-.663.59-1.325 1.174-1.998 1.767-.696.594-1.347 1.188-2.043 1.786-.673.593-1.346 1.192-2.042 1.79-.673.602-1.357 1.205-2.053 1.803-.684.602-1.369 1.2-2.064 1.812-.684.594-1.38 1.205-2.075 1.812-.696.612-1.391 1.214-2.097 1.826-.696.607-1.391 1.214-2.098 1.825-.695.607-1.402 1.223-2.097 1.84-.707.606-1.402 1.218-2.108 1.834-.707.611-1.413 1.223-2.12 1.839-.706.611-1.413 1.227-2.119 1.839-.707.615-1.413 1.231-2.131 1.843-.684.611-1.39 1.227-2.097 1.843l-2.119 1.84c-.707.615-1.413 1.227-2.109 1.838-.706.616-1.413 1.228-2.108 1.835-.729.616-1.413 1.227-2.108 1.834-.707.612-1.402 1.223-2.098 1.83-.706.607-1.39 1.214-2.097 1.826-.695.607-1.38 1.21-2.075 1.812-.696.607-1.38 1.21-2.064 1.812-.685.598-1.38 1.2-2.075 1.803-.674.598-1.347 1.192-2.043 1.79-.684.598-1.357 1.192-2.02 1.785-.673.589-1.335 1.179-2.02 1.768-.673.589-1.324 1.178-1.987 1.763-1.324 1.169-2.627 2.33-3.929 3.481-1.292 1.147-2.583 2.29-3.853 3.424-1.269 1.133-2.516 2.249-3.764 3.361-1.225 1.102-2.45 2.2-3.653 3.285-1.204 1.08-2.385 2.151-3.555 3.2-1.159 1.062-2.307 2.107-3.422 3.129-1.126 1.026-2.23 2.031-3.311 3.026-1.093.995-2.142 1.968-3.19 2.928-1.038.96-2.031 1.893-3.025 2.821-.993.919-1.943 1.817-2.914 2.705-.916.875-1.854 1.741-2.727 2.58a421.97 421.97 0 0 1-2.594 2.45c-.816.795-1.633 1.567-2.406 2.312-.784.75-1.534 1.477-2.263 2.174-.728.701-1.424 1.375-2.097 2.022-.662.647-1.303 1.272-1.91 1.861-.607.594-1.181 1.16-1.744 1.696a403.318 403.318 0 0 1-2.914 2.87c-.817.835-1.545 1.54-2.108 2.116a304.614 304.614 0 0 1-1.766 1.767M464.897 0s-.375.607-1.037 1.754c-.343.58-.751 1.286-1.259 2.12-.486.835-1.048 1.79-1.689 2.866-.32.535-.662 1.102-1.026 1.687a71.414 71.414 0 0 1-1.115 1.866c-.398.647-.795 1.316-1.214 2.017-.431.7-.872 1.424-1.325 2.17-.453.75-.927 1.517-1.435 2.311-.475.79-.994 1.612-1.512 2.446-.519.84-1.06 1.7-1.59 2.58-.552.88-1.115 1.781-1.689 2.7-.585.92-1.181 1.862-1.777 2.817a199.28 199.28 0 0 1-1.876 2.924c-.619.99-1.27 2-1.921 3.026a305.337 305.337 0 0 1-2.02 3.115 214.778 214.778 0 0 1-2.064 3.2c-.696 1.085-1.413 2.179-2.131 3.286-.728 1.102-1.457 2.222-2.218 3.352-.729 1.133-1.48 2.271-2.23 3.423-.762 1.147-1.523 2.303-2.307 3.477-.387.58-.773 1.17-1.159 1.758-.398.585-.784 1.174-1.192 1.768-.376.59-.773 1.183-1.171 1.777-.397.598-.794 1.196-1.192 1.79-.408.602-.816 1.2-1.203 1.803-.408.602-.806 1.196-1.214 1.807-.397.594-.806 1.205-1.214 1.808-.409.611-.806 1.218-1.215 1.825-.408.608-.816 1.21-1.247 1.826-.386.602-.806 1.218-1.214 1.83a90.141 90.141 0 0 1-1.247 1.834c-.398.612-.806 1.223-1.215 1.84-.43.606-.828 1.222-1.236 1.834-.419.616-.828 1.227-1.258 1.843-.398.607-.806 1.223-1.226 1.84-.408.61-.838 1.227-1.225 1.834-.419.616-.828 1.227-1.258 1.839-.398.611-.806 1.223-1.214 1.83-.409.616-.817 1.227-1.226 1.834-.419.612-.827 1.219-1.225 1.826l-1.225 1.82c-.409.608-.817 1.215-1.214 1.813-.409.607-.806 1.205-1.215 1.807-.408.599-.795 1.201-1.203 1.804l-1.192 1.785c-.397.598-.784 1.192-1.203 1.781-.375.594-.762 1.183-1.148 1.767-.398.59-.784 1.174-1.17 1.759-.773 1.169-1.546 2.33-2.307 3.477a256.256 256.256 0 0 1-2.263 3.419 425.95 425.95 0 0 1-2.186 3.356c-.717 1.103-1.435 2.201-2.13 3.286-.707 1.075-1.402 2.146-2.086 3.195-.674 1.063-1.347 2.098-1.998 3.12-.663 1.027-1.303 2.031-1.954 3.026-.607.991-1.225 1.964-1.844 2.924-.596.955-1.192 1.893-1.788 2.816-.563.92-1.126 1.813-1.678 2.701-.563.875-1.104 1.741-1.622 2.575a85.165 85.165 0 0 1-1.513 2.451c-.463.79-.938 1.562-1.401 2.307-.453.75-.895 1.473-1.336 2.169-.431.706-.817 1.375-1.225 2.022a58.257 58.257 0 0 1-1.126 1.862c-.331.589-.674 1.156-.994 1.691-.64 1.071-1.203 2.031-1.722 2.866-.474.834-.905 1.54-1.247 2.115-.651 1.152-1.005 1.759-1.005 1.759M570.855 0s-.1.607-.298 1.754c-.1.576-.21 1.281-.353 2.116-.144.834-.298 1.79-.486 2.86a49.222 49.222 0 0 0-.287 1.688c-.099.594-.221 1.219-.32 1.861-.122.647-.243 1.317-.364 2.018-.111.696-.243 1.42-.376 2.164-.132.746-.265 1.518-.408 2.312-.133.786-.287 1.607-.431 2.442-.154.835-.309 1.7-.463 2.575-.166.88-.342 1.777-.497 2.696-.166.92-.342 1.857-.508 2.812-.176.96-.353 1.928-.541 2.92-.176.99-.364 1.994-.563 3.021-.198 1.022-.375 2.058-.574 3.116-.198 1.048-.397 2.115-.607 3.195-.198 1.08-.419 2.174-.618 3.277-.21 1.106-.419 2.222-.64 3.352-.21 1.129-.431 2.267-.651 3.414-.221 1.147-.464 2.303-.674 3.472-.11.585-.221 1.17-.342 1.755-.11.589-.221 1.173-.331 1.767-.121.59-.232 1.183-.353 1.777a94.829 94.829 0 0 1-.354 1.785c-.11.602-.22 1.2-.342 1.803-.121.598-.243 1.192-.353 1.803-.11.594-.232 1.205-.353 1.808-.122.607-.254 1.214-.354 1.821-.121.603-.242 1.21-.353 1.821-.132.607-.243 1.219-.375 1.83-.11.612-.232 1.219-.342 1.83-.122.612-.243 1.223-.376 1.835-.121.611-.231 1.223-.353 1.834-.121.616-.243 1.228-.353 1.84l-.364 1.834c-.122.615-.254 1.227-.364 1.834-.133.616-.232 1.227-.354 1.839-.121.611-.243 1.219-.375 1.83-.11.611-.243 1.219-.342 1.83l-.364 1.821c-.111.607-.232 1.214-.354 1.821-.121.603-.232 1.21-.353 1.808-.132.602-.232 1.205-.353 1.803-.111.603-.232 1.2-.353 1.799-.111.598-.243 1.191-.343 1.79-.121.593-.231 1.187-.342 1.776a107.11 107.11 0 0 0-.342 1.763 106.67 106.67 0 0 0-.342 1.759c-.243 1.169-.453 2.325-.674 3.472-.22 1.147-.43 2.285-.651 3.415-.209 1.129-.43 2.24-.64 3.347-.221 1.107-.43 2.201-.618 3.281-.199 1.076-.409 2.147-.596 3.191-.199 1.063-.42 2.098-.585 3.12a794.985 794.985 0 0 1-.563 3.022c-.188.986-.364 1.959-.541 2.919-.188.955-.342 1.888-.508 2.812-.188.919-.331 1.812-.497 2.696-.154.875-.309 1.736-.474 2.575a110.8 110.8 0 0 1-.42 2.442c-.143.794-.276 1.562-.408 2.307-.133.75-.254 1.473-.386 2.169-.133.701-.232 1.371-.365 2.018a57.046 57.046 0 0 1-.309 1.857c-.11.589-.21 1.156-.287 1.691-.199 1.072-.342 2.027-.485 2.861a47.782 47.782 0 0 0-.365 2.112l-.287 1.763M676.823 0s.144.607.453 1.75c.144.58.32 1.28.53 2.115.199.835.453 1.786.728 2.857.133.536.288 1.098.431 1.687.155.594.298 1.214.486 1.857.154.647.331 1.317.507 2.017.177.692.376 1.415.563 2.16.199.746.409 1.514.608 2.308.209.786.43 1.603.64 2.442.22.834.452 1.696.684 2.57.232.875.475 1.773.718 2.692.242.92.496 1.852.739 2.808.254.96.53 1.928.795 2.914.254.991.519 1.995.806 3.017.276 1.023.563 2.058.85 3.111.287 1.05.574 2.116.861 3.192.298 1.08.607 2.173.905 3.276.298 1.102.607 2.218.916 3.343.309 1.13.618 2.267.938 3.415.32 1.142.641 2.298.961 3.463.154.585.331 1.17.496 1.754.155.59.309 1.174.475 1.763.177.59.331 1.183.508 1.777.165.593.32 1.187.497 1.785.165.598.331 1.196.485 1.794.177.599.353 1.197.508 1.804.177.593.342 1.2.497 1.803.187.611.353 1.214.53 1.82.165.603.331 1.206.507 1.818.166.607.343 1.218.508 1.83.166.607.342 1.214.519 1.825.165.612.342 1.223.508 1.835.176.606.342 1.218.518 1.83.177.615.343 1.227.519 1.838.166.608.343 1.219.497 1.83.188.616.353 1.228.53 1.835.166.611.342 1.223.508 1.83.176.611.331 1.223.518 1.83.166.611.343 1.218.508 1.825.177.608.342 1.219.508 1.822.177.606.342 1.21.519 1.816.165.607.331 1.21.497 1.808.176.602.342 1.2.496 1.803.177.598.342 1.196.508 1.794.166.594.331 1.192.508 1.786.143.593.32 1.183.474 1.776.177.589.343 1.174.508 1.759.155.589.32 1.174.486 1.754.32 1.169.64 2.325.96 3.468.298 1.147.629 2.285.938 3.41.31 1.129.619 2.241.917 3.348.287 1.102.607 2.196.883 3.276.309 1.075.607 2.142.883 3.187.287 1.057.574 2.093.85 3.111.254 1.026.53 2.026.794 3.017.287.991.53 1.959.784 2.919.276.951.519 1.883.762 2.807.254.915.464 1.808.717 2.692.221.875.464 1.736.685 2.571.221.834.43 1.651.64 2.441.21.79.408 1.562.596 2.303.188.75.386 1.469.563 2.165.188.701.342 1.37.53 2.018.143.642.309 1.263.475 1.852.154.593.298 1.156.43 1.687.276 1.071.519 2.026.729 2.861.209.83.397 1.535.54 2.107.287 1.151.442 1.763.442 1.763M782.803 0s.387.607 1.17 1.75c.376.575.861 1.28 1.424 2.11.563.831 1.204 1.786 1.943 2.853.353.536.751 1.098 1.159 1.683.409.593.828 1.214 1.27 1.856l1.401 2.013c.486.697.983 1.415 1.491 2.156.518.75 1.07 1.518 1.622 2.308.541.785 1.115 1.602 1.722 2.437.574.835 1.204 1.696 1.811 2.566.629.88 1.258 1.777 1.931 2.692.652.92 1.325 1.852 2.009 2.803.674.96 1.391 1.928 2.109 2.914.706.987 1.424 1.991 2.185 3.013.74 1.018 1.502 2.053 2.263 3.107.762 1.044 1.556 2.111 2.34 3.187.795 1.075 1.601 2.169 2.418 3.271.816 1.098 1.644 2.214 2.483 3.339.839 1.125 1.667 2.263 2.539 3.406.85 1.142 1.711 2.298 2.583 3.463.442.58.883 1.165 1.314 1.75.441.584.883 1.17 1.324 1.758.442.59.894 1.183 1.336 1.777.453.593.883 1.187 1.336 1.78.463.599.916 1.197 1.368 1.795.453.598.894 1.192 1.347 1.799.464.593.916 1.2 1.369 1.803.463.607.916 1.21 1.38 1.817.441.602.916 1.205 1.379 1.816.453.603.917 1.214 1.38 1.826.464.607.927 1.214 1.391 1.825.464.607.927 1.219 1.391 1.83.453.607.927 1.219 1.391 1.826.463.611.905 1.223 1.391 1.834.441.607.927 1.219 1.39 1.83.464.612.928 1.223 1.391 1.83.464.612.928 1.223 1.391 1.83.464.612.916 1.219 1.38 1.826.464.611.927 1.218 1.38 1.825.463.607.905 1.214 1.38 1.817.463.607.916 1.21 1.379 1.817.453.602.917 1.205 1.347 1.803.475.602.905 1.2 1.38 1.799.452.598.905 1.196 1.335 1.794.453.593.917 1.187 1.358 1.78.453.594.894 1.184 1.325 1.773.452.589.883 1.178 1.335 1.763.442.585.862 1.169 1.314 1.749.872 1.165 1.733 2.317 2.594 3.464.839 1.143 1.7 2.276 2.539 3.406.828 1.124 1.656 2.236 2.472 3.338.817 1.103 1.623 2.192 2.418 3.272.795 1.076 1.556 2.138 2.34 3.182.773 1.058 1.523 2.094 2.274 3.111.718 1.022 1.468 2.022 2.186 3.013.695.987 1.39 1.955 2.097 2.915.684.95 1.336 1.879 2.02 2.803.64.915 1.291 1.808 1.898 2.687.641.875 1.226 1.736 1.822 2.571.607.834 1.181 1.647 1.733 2.437.552.79 1.082 1.557 1.6 2.298.53.75 1.038 1.469 1.524 2.165.485.696.938 1.366 1.391 2.013.441.643.872 1.259 1.269 1.852.408.59.773 1.152 1.137 1.683.74 1.071 1.402 2.022 1.965 2.857.563.83 1.015 1.535 1.424 2.106.75 1.148 1.181 1.755 1.181 1.755M888.772 0l1.888 1.745c.64.576 1.413 1.281 2.318 2.107.916.835 1.965 1.785 3.146 2.857A649.96 649.96 0 0 1 898 8.387c.663.593 1.336 1.214 2.064 1.852.729.647 1.479 1.312 2.263 2.013.773.692 1.601 1.41 2.44 2.151.85.75 1.722 1.518 2.627 2.304a656.21 656.21 0 0 0 2.793 2.437c.96.83 1.942 1.691 2.958 2.562 1.015.879 2.053 1.772 3.113 2.687 1.071.915 2.152 1.847 3.278 2.798 1.115.955 2.241 1.924 3.422 2.91 1.159.987 2.351 1.99 3.565 3.009 1.204 1.017 2.418 2.053 3.687 3.102 1.259 1.049 2.528 2.11 3.82 3.182 1.291 1.08 2.605 2.17 3.929 3.267 1.336 1.098 2.682 2.21 4.04 3.334 1.369 1.13 2.749 2.263 4.14 3.406 1.401 1.138 2.803 2.29 4.227 3.455.707.58 1.424 1.165 2.142 1.75.717.584 1.435 1.169 2.163 1.758.718.59 1.447 1.174 2.175 1.768.729.593 1.457 1.187 2.197 1.78.728.599 1.468 1.197 2.207 1.79.74.598 1.469 1.192 2.208 1.799.751.594 1.479 1.2 2.241 1.799.75.607 1.49 1.21 2.24 1.816.751.603 1.502 1.201 2.252 1.813.751.602 1.502 1.214 2.263 1.825.74.603 1.502 1.21 2.263 1.821.751.607 1.513 1.214 2.263 1.826.762.607 1.512 1.218 2.274 1.83.761.607 1.512 1.218 2.274 1.83.75.607 1.512 1.214 2.274 1.825.75.612 1.512 1.223 2.263 1.826.761.611 1.512 1.223 2.273 1.83.751.611 1.491 1.214 2.263 1.82.751.612 1.502 1.22 2.252 1.826.751.603 1.502 1.21 2.252 1.813.751.606 1.501 1.21 2.241 1.812.751.602 1.49 1.205 2.23 1.803.754.602 1.494 1.196 2.214 1.794l2.22 1.794c.73.594 1.46 1.188 2.19 1.777.73.594 1.46 1.183 2.18 1.772.72.589 1.43 1.174 2.16 1.758.71.585 1.43 1.17 2.14 1.746 1.42 1.165 2.84 2.316 4.23 3.459l4.14 3.401c1.36 1.125 2.7 2.232 4.02 3.339 1.34 1.098 2.65 2.187 3.96 3.262 1.28 1.076 2.56 2.138 3.8 3.183 1.24 1.053 2.49 2.089 3.68 3.102 1.24 1.022 2.42 2.022 3.59 3.013 1.16.982 2.29 1.95 3.42 2.905 1.11.951 2.2 1.879 3.27 2.803 1.07.915 2.09 1.804 3.12 2.683 1.01.875 2 1.732 2.96 2.566.96.835 1.89 1.643 2.79 2.433.9.79 1.77 1.558 2.6 2.298.86.746 1.67 1.469 2.46 2.161.78.696 1.53 1.366 2.26 2.013.72.638 1.41 1.258 2.05 1.848.68.589 1.31 1.151 1.89 1.682 1.18 1.072 2.22 2.022 3.15 2.852.91.831 1.69 1.531 2.28 2.103 1.27 1.147 1.93 1.758 1.93 1.758M994.741 0l2.616 1.745c.861.576 1.921 1.277 3.183 2.102 1.25.835 2.7 1.786 4.33 2.853.82.53 1.68 1.093 2.58 1.678.91.589 1.86 1.21 2.86 1.848 1 .647 2.02 1.312 3.12 2.008 1.08.697 2.2 1.415 3.37 2.152 1.17.745 2.37 1.513 3.62 2.303 1.23.78 2.52 1.598 3.85 2.428 1.32.834 2.69 1.691 4.08 2.562 1.42.875 2.84 1.767 4.32 2.682 1.48.915 2.98 1.848 4.52 2.799 1.56.95 3.14 1.92 4.75 2.906 1.61.982 3.26 1.986 4.94 3.003 1.67 1.014 3.37 2.05 5.12 3.098 1.73 1.044 3.5 2.107 5.28 3.178 1.8 1.076 3.63 2.165 5.47 3.263 1.84 1.098 3.71 2.205 5.61 3.33 1.88 1.124 3.8 2.253 5.74 3.396 1.92 1.143 3.89 2.29 5.87 3.455.98.576 1.99 1.16 2.98 1.745.99.585 1.99 1.165 2.99 1.754 1 .59 2.02 1.174 3.04 1.768 1 .593 2.02 1.187 3.04 1.776 1.02.598 2.04 1.192 3.07 1.79 1.03.598 2.03 1.187 3.09 1.794 1.02.594 2.05 1.196 3.09 1.799 1.03.607 2.07 1.205 3.13 1.812 1.03.598 2.07 1.2 3.12 1.812 1.04.598 2.1 1.21 3.15 1.817 1.04.607 2.08 1.214 3.14 1.82 1.05.608 2.1 1.215 3.16 1.826 1.04.603 2.1 1.214 3.13 1.826 1.07.607 2.13 1.219 3.16 1.821 1.07.612 2.12 1.219 3.17 1.83 1.07.612 2.12 1.219 3.17 1.826 1.05.607 2.11 1.218 3.15 1.825 1.05.607 2.1 1.214 3.15 1.817 1.04.611 2.1 1.214 3.13 1.82 1.05.608 2.1 1.21 3.14 1.813 1.04.607 2.06 1.205 3.11 1.812 1.04.598 2.08 1.2 3.1 1.799 1.04.598 2.07 1.196 3.1 1.794 1.01.594 2.04 1.192 3.06 1.785 1.01.594 2.03 1.188 3.05 1.781 1.02.59 2.02 1.179 3.02 1.768 1.01.585 2.01 1.169 3.01 1.754.99.58 1.98 1.165 2.98 1.745 1.97 1.161 3.91 2.312 5.86 3.455 1.94 1.138 3.85 2.272 5.75 3.397 1.9 1.12 3.75 2.227 5.61 3.329 1.84 1.098 3.66 2.187 5.45 3.263 1.79 1.071 3.56 2.134 5.29 3.174 1.74 1.053 3.45 2.084 5.12 3.102 1.68 1.017 3.32 2.017 4.93 3.004 1.62.986 3.19 1.95 4.73 2.905 1.56.951 3.07 1.875 4.55 2.794 1.48.915 2.9 1.804 4.31 2.687 1.39.871 2.77 1.728 4.1 2.558 1.31.834 2.6 1.642 3.85 2.432s2.45 1.554 3.61 2.295c1.17.745 2.3 1.464 3.38 2.155 1.07.701 2.12 1.366 3.12 2.009.98.643 1.94 1.259 2.85 1.848.9.589 1.74 1.151 2.58 1.682 1.64 1.067 3.08 2.018 4.34 2.848l3.17 2.102 2.64 1.755M1100.71 0s1.13.603 3.3 1.74c1.1.577 2.45 1.277 4.03 2.103 1.6.835 3.43 1.78 5.5 2.848 1.02.53 2.13 1.093 3.26 1.673 1.16.594 2.39 1.21 3.65 1.853 1.27.643 2.58 1.307 3.96 2.004 1.37.692 2.8 1.41 4.27 2.151 1.49.741 3.03 1.509 4.61 2.294 1.58.786 3.23 1.598 4.91 2.428 1.68.83 3.44 1.688 5.22 2.558 1.79.875 3.62 1.767 5.48 2.682 1.9.911 3.82 1.844 5.8 2.79 1.97.955 3.99 1.92 6.05 2.901 2.04.982 4.16 1.987 6.29 3.004l6.56 3.089c2.21 1.044 4.48 2.107 6.76 3.178 2.31 1.071 4.64 2.16 6.99 3.254 2.36 1.098 4.75 2.205 7.19 3.33 2.42 1.12 4.89 2.249 7.36 3.392 2.48 1.138 4.99 2.285 7.52 3.445 1.28.58 2.56 1.16 3.83 1.746 1.28.58 2.56 1.164 3.85 1.754 1.29.584 2.58 1.174 3.88 1.763 1.31.593 2.61 1.183 3.91 1.776 1.32.594 2.63 1.188 3.94 1.786 1.32.593 2.63 1.187 3.95 1.79 1.33.593 2.66 1.196 3.99 1.798 1.35.603 2.67 1.2 4.02 1.808 1.31.598 2.66 1.2 4 1.808 1.34.598 2.69 1.21 4.04 1.816 1.35.607 2.69 1.21 4.03 1.817 1.36.607 2.71 1.214 4.07 1.825 1.32.603 2.69 1.21 4.05 1.821 1.35.607 2.71 1.214 4.06 1.826 1.35.602 2.7 1.214 4.05 1.82 1.36.608 2.69 1.22 4.06 1.822 1.35.607 2.71 1.219 4.03 1.821 1.37.612 2.72 1.214 4.06 1.817 1.35.611 2.7 1.214 4.03 1.82 1.35.603 2.67 1.206 4.02 1.809 1.34.602 2.67 1.205 4.01 1.807 1.33.603 2.66 1.2 3.96 1.794a511.3 511.3 0 0 1 3.97 1.795c1.33.593 2.64 1.191 3.96 1.785 1.3.594 2.6 1.183 3.9 1.776 1.31.59 2.6 1.179 3.89 1.764 1.29.589 2.57 1.169 3.84 1.754 1.28.58 2.56 1.165 3.82 1.74 2.54 1.161 5.04 2.312 7.53 3.451 2.48 1.138 4.93 2.272 7.36 3.392 2.42 1.12 4.81 2.227 7.19 3.325 2.36 1.098 4.69 2.183 6.98 3.258l6.77 3.169 6.55 3.098c2.15 1.018 4.23 2.013 6.31 2.999 2.05.987 4.06 1.951 6.05 2.902 1.96.95 3.88 1.874 5.76 2.794 1.9.915 3.72 1.803 5.52 2.678 1.78.87 3.52 1.727 5.21 2.562 1.69.83 3.32 1.638 4.91 2.423l4.59 2.295c1.49.745 2.92 1.464 4.3 2.155 1.38.697 2.69 1.362 3.96 2.005 1.24.638 2.47 1.258 3.6 1.843 1.17.589 2.25 1.151 3.28 1.683 2.08 1.062 3.92 2.013 5.52 2.843 1.59.826 2.93 1.526 3.99 2.098 2.19 1.147 3.35 1.749 3.35 1.749M1206.67 0l3.98 1.74c1.32.577 2.93 1.273 4.84 2.099 1.93.83 4.14 1.78 6.62 2.843 1.25.53 2.56 1.093 3.94 1.674 1.39.593 2.86 1.21 4.37 1.847 1.54.643 3.11 1.308 4.79 2.004 1.66.692 3.39 1.406 5.17 2.147 1.81.741 3.66 1.509 5.58 2.294 1.91.782 3.9 1.594 5.94 2.424 2.06.83 4.16 1.687 6.33 2.553 2.16.875 4.39 1.768 6.68 2.678 2.28.91 4.62 1.844 7.02 2.79 2.4.95 4.85 1.915 7.34 2.897 2.52.982 5.07 1.981 7.69 2.995 2.61 1.013 5.27 2.044 7.98 3.088 2.71 1.045 5.44 2.103 8.25 3.174 2.8 1.071 5.65 2.156 8.53 3.25 2.88 1.097 5.81 2.204 8.78 3.324 2.96 1.12 5.97 2.25 8.99 3.388 3.04 1.134 6.09 2.28 9.21 3.441 1.53.576 3.11 1.16 4.67 1.741 1.56.58 3.13 1.165 4.71 1.75 1.58.584 3.15 1.174 4.75 1.763s3.18 1.183 4.79 1.772c1.61.593 3.22 1.187 4.82 1.785 1.62.594 3.22 1.183 4.86 1.786 1.6.593 3.24 1.196 4.87 1.794 1.64.602 3.26 1.205 4.91 1.808 1.63.598 3.25 1.196 4.91 1.807 1.63.598 3.29 1.205 4.95 1.812 1.64.603 3.3 1.206 4.95 1.817 1.65.603 3.3 1.21 4.96 1.817 1.65.602 3.31 1.214 4.97 1.82 1.66.608 3.32 1.215 4.97 1.822 1.66.607 3.32 1.214 4.97 1.82 1.67.608 3.32 1.215 4.97 1.817 1.65.612 3.32 1.219 4.97 1.822 1.65.606 3.3 1.21 4.94 1.816 1.66.607 3.3 1.21 4.95 1.812l4.92 1.808c1.63.603 3.26 1.2 4.91 1.803 1.62.603 3.26 1.2 4.87 1.795 1.62.598 3.23 1.196 4.84 1.79 1.62.593 3.23 1.187 4.84 1.785 1.58.589 3.19 1.178 4.78 1.772 1.58.589 3.18 1.173 4.76 1.763 1.58.584 3.14 1.165 4.7 1.749 1.57.581 3.12 1.161 4.68 1.741 3.1 1.156 6.16 2.303 9.19 3.441 3.04 1.139 6.04 2.268 9.01 3.388 2.97 1.12 5.87 2.223 8.78 3.321a5175.23 5175.23 0 0 1 16.76 6.418c2.73 1.054 5.39 2.08 8 3.093 2.59 1.018 5.15 2.013 7.67 3 2.5.982 4.95 1.946 7.36 2.897 2.37.946 4.73 1.87 7.02 2.789 2.29.911 4.49 1.799 6.68 2.674 2.15.87 4.26 1.727 6.32 2.557 2.04.831 4.02 1.638 5.94 2.424 1.92.786 3.78 1.549 5.56 2.29 1.78.741 3.53 1.459 5.19 2.151 1.65.696 3.26 1.361 4.77 2.004 1.54.638 2.99 1.254 4.39 1.839 1.38.589 2.7 1.152 3.95 1.678 2.48 1.067 4.69 2.013 6.62 2.843l4.82 2.098c2.62 1.143 3.99 1.75 3.99 1.75M1312.65 0s1.58.603 4.59 1.74a1692.668 1692.668 0 0 0 13.28 4.937c1.44.527 2.98 1.09 4.58 1.67 1.62.589 3.33 1.21 5.1 1.847 1.79.639 3.64 1.304 5.58 2 1.94.687 3.96 1.406 6.04 2.142 2.11.746 4.29 1.51 6.53 2.295 2.24.78 4.58 1.589 6.97 2.419 2.4.83 4.88 1.683 7.42 2.553 2.55.87 5.17 1.758 7.85 2.673 2.69.911 5.45 1.84 8.27 2.786 2.83.946 5.73 1.91 8.67 2.892 2.95.982 5.99 1.977 9.07 2.99 3.07 1.014 6.21 2.04 9.42 3.085 3.19 1.044 6.46 2.102 9.76 3.169 3.31 1.07 6.68 2.155 10.08 3.245 3.41 1.093 6.89 2.2 10.4 3.32 3.5 1.116 7.07 2.245 10.66 3.38 3.59 1.137 7.21 2.28 10.91 3.44 1.83.576 3.67 1.157 5.53 1.737 1.85.58 3.7 1.165 5.58 1.75 1.87.584 3.74 1.169 5.63 1.758 1.89.59 3.79 1.178 5.67 1.767 1.91.594 3.82 1.192 5.73 1.786l5.75 1.785c1.9.59 3.85 1.192 5.78 1.79l5.81 1.803c1.94.598 3.88 1.197 5.83 1.803 1.95.599 3.91 1.206 5.88 1.813 1.94.602 3.89 1.205 5.86 1.812l5.88 1.816c1.94.603 3.92 1.21 5.89 1.817l5.9 1.821c1.95.603 3.93 1.21 5.89 1.817 1.97.607 3.92 1.214 5.89 1.816 1.97.607 3.94 1.214 5.89 1.817 1.97.607 3.91 1.21 5.86 1.812 1.97.607 3.92 1.21 5.86 1.812 1.96.603 3.9 1.205 5.84 1.803 1.95.603 3.88 1.201 5.82 1.804 1.93.598 3.86 1.196 5.77 1.79 1.94.598 3.82 1.191 5.75 1.785l5.73 1.78c1.89.59 3.78 1.18 5.68 1.768 1.86.594 3.75 1.179 5.63 1.763 1.86.585 3.73 1.165 5.57 1.746 1.86.58 3.71 1.164 5.53 1.74 3.68 1.156 7.32 2.303 10.92 3.437 3.59 1.138 7.13 2.263 10.66 3.383 3.51 1.121 6.94 2.219 10.37 3.317 3.42 1.093 6.79 2.178 10.11 3.249 3.3 1.067 6.55 2.125 9.74 3.16 3.22 1.049 6.36 2.08 9.44 3.089 3.08 1.017 6.07 2.008 9.07 2.995 2.94.977 5.82 1.941 8.67 2.892 2.82.946 5.54 1.87 8.27 2.785 2.68.911 5.29 1.794 7.85 2.674 2.54.866 5.02 1.723 7.42 2.548 2.37.831 4.71 1.638 6.97 2.424 2.24.786 4.42 1.549 6.51 2.285 2.1.746 4.12 1.46 6.05 2.152 1.95.692 3.8 1.357 5.57 1.999 1.78.639 3.47 1.255 5.11 1.839l4.59 1.678c2.87 1.063 5.45 2.009 7.68 2.839 2.21.826 4.05 1.527 5.59 2.094 3.02 1.142 4.61 1.749 4.61 1.749M1418.62 0s1.76.603 5.14 1.736c1.71.576 3.82 1.272 6.31 2.098 2.52.826 5.42 1.772 8.71 2.834 1.65.531 3.38 1.09 5.2 1.67 1.87.589 3.82 1.205 5.84 1.843 2.05.643 4.16 1.303 6.41 2 2.23.687 4.54 1.406 6.96 2.142 2.43.741 4.94 1.504 7.54 2.285a2403.218 2403.218 0 0 0 16.67 4.968c2.94.87 6 1.759 9.11 2.67 3.14.91 6.34 1.838 9.61 2.78 3.31.95 6.68 1.91 10.1 2.892 3.44.978 6.94 1.973 10.54 2.986 3.58 1.009 7.23 2.036 10.95 3.08 3.71 1.04 7.49 2.098 11.32 3.16 3.86 1.071 7.75 2.156 11.71 3.245 3.95 1.09 7.95 2.196 12.02 3.312 4.06 1.116 8.16 2.245 12.32 3.379 4.15 1.133 8.33 2.276 12.58 3.432 2.11.576 4.24 1.156 6.38 1.736 2.13.58 4.27 1.16 6.42 1.745 2.13.585 4.31 1.17 6.48 1.76 2.18.588 4.34 1.178 6.53 1.767 2.18.589 4.38 1.182 6.56 1.776l6.62 1.785c2.17.59 4.4 1.188 6.62 1.786 2.23.602 4.44 1.2 6.68 1.803 2.19.598 4.41 1.196 6.68 1.799 2.21.598 4.47 1.205 6.72 1.812 2.23.602 4.47 1.2 6.72 1.808 2.23.602 4.48 1.21 6.73 1.816 2.25.598 4.5 1.205 6.75 1.812s4.5 1.21 6.77 1.817c2.23.602 4.48 1.21 6.74 1.817 2.25.602 4.5 1.21 6.73 1.812 2.26.607 4.51 1.214 6.75 1.812 2.25.607 4.47 1.21 6.72 1.812 2.25.607 4.48 1.205 6.72 1.808 2.22.602 4.45 1.205 6.68 1.803 2.23.603 4.45 1.196 6.68 1.799 2.22.598 4.43 1.196 6.62 1.79a8521.48 8521.48 0 0 1 13.18 3.561c2.18.59 4.35 1.179 6.53 1.768 2.17.589 4.31 1.174 6.47 1.758 2.15.585 4.3 1.165 6.43 1.746 2.13.58 4.27 1.156 6.38 1.731 4.24 1.156 8.43 2.304 12.58 3.437 4.14 1.134 8.25 2.259 12.32 3.375 4.06 1.12 8.06 2.218 12.02 3.316 3.94 1.089 7.85 2.174 11.7 3.24a7292.294 7292.294 0 0 1 22.28 6.24c3.56 1.018 7.09 2.009 10.54 2.991 3.42.977 6.79 1.941 10.09 2.887 3.27.947 6.46 1.871 9.61 2.786 3.12.906 6.12 1.79 9.12 2.664 2.93.871 5.81 1.723 8.61 2.549 2.77.83 5.46 1.634 8.06 2.419 2.59.786 5.11 1.549 7.53 2.285 2.39.741 4.73 1.455 6.96 2.147 2.22.692 4.36 1.357 6.42 1.995 2.02.639 3.97 1.255 5.79 1.839 1.83.59 3.6 1.147 5.25 1.674 3.28 1.062 6.19 2.009 8.7 2.839 2.5.826 4.59 1.522 6.31 2.089 3.39 1.142 5.17 1.749 5.17 1.749M1524.58 0s2.23.598 6.74 1.732c2.26.571 5.01 1.267 8.29 2.089 3.27.825 7.02 1.772 11.22 2.83 2.11.526 4.32 1.084 6.64 1.664 2.34.59 4.76 1.205 7.31 1.84 2.53.642 5.15 1.303 7.9 1.994 2.74.688 5.57 1.402 8.49 2.138 2.96.741 5.98 1.5 9.07 2.286 3.11.776 6.32 1.584 9.59 2.41 3.3.826 6.69 1.678 10.13 2.544 3.44.87 6.97 1.759 10.58 2.665 3.6.91 7.29 1.834 11.02 2.776 3.76.95 7.58 1.91 11.48 2.888 3.88.977 7.82 1.973 11.86 2.986 3.99 1.004 8.06 2.03 12.2 3.075 4.14 1.036 8.32 2.093 12.56 3.156 4.25 1.07 8.54 2.151 12.89 3.24l13.12 3.308c4.44 1.115 8.92 2.24 13.42 3.374 4.51 1.134 9.04 2.276 13.63 3.432 2.29.576 4.6 1.156 6.88 1.736 2.32.576 4.63 1.157 6.93 1.741 2.33.585 4.65 1.17 6.99 1.759 2.32.585 4.68 1.174 7 1.763 2.37.593 4.71 1.187 7.08 1.776 2.36.594 4.69 1.183 7.08 1.786 2.32.589 4.73 1.187 7.1 1.785 2.37.603 4.76 1.196 7.13 1.799 2.37.598 4.76 1.196 7.16 1.799 2.37.598 4.78 1.205 7.19 1.807 2.4.603 4.78 1.205 7.18 1.812 2.38.599 4.8 1.206 7.19 1.813 2.41.598 4.81 1.205 7.2 1.812 2.43.602 4.81 1.21 7.22 1.816 2.39.598 4.81 1.205 7.21 1.813 2.41.606 4.82 1.209 7.19 1.812 2.43.607 4.82 1.21 7.21 1.812l7.2 1.807c2.41.608 4.78 1.21 7.18 1.808l7.14 1.799c2.4.602 4.75 1.2 7.16 1.803 2.37.594 4.73 1.192 7.1 1.786 2.37.598 4.72 1.187 7.08 1.78 2.35.594 4.71 1.188 7.05 1.777 2.35.589 4.68 1.178 7.03 1.767l6.96 1.754c2.33.585 4.64 1.165 6.92 1.746 2.32.58 4.63 1.16 6.91 1.736 4.6 1.151 9.13 2.294 13.64 3.428 4.5 1.134 8.95 2.258 13.39 3.374 4.43 1.116 8.8 2.214 13.15 3.312 4.32 1.089 8.64 2.169 12.89 3.236 4.2 1.067 8.42 2.12 12.5 3.156 4.16 1.044 8.24 2.071 12.25 3.079 4.01 1.014 7.96 2.004 11.87 2.986 3.86.978 7.68 1.937 11.46 2.884 3.75.942 7.39 1.865 11.04 2.776 3.61.911 7.1 1.794 10.58 2.665 3.44.866 6.82 1.718 10.09 2.544 3.29.826 6.49 1.633 9.59 2.415 3.13.781 6.15 1.544 9.07 2.28 2.93.741 5.77 1.451 8.5 2.143 2.77.692 5.39 1.352 7.93 1.99 2.52.639 4.97 1.25 7.3 1.835 2.3.585 4.54 1.143 6.61 1.669 4.23 1.063 7.96 2.004 11.26 2.83 3.25.821 6.03 1.518 8.28 2.084a773.6 773.6 0 0 1 6.77 1.746M-416.2 36.511s2.307-.005 6.778-.01c2.229-.004 4.978-.004 8.245-.008 3.224.004 6.944 0 11.171-.005h6.612c2.307-.004 4.736-.004 7.275-.004 2.549-.009 5.177-.009 7.892-.005 2.749-.008 5.563-.004 8.511-.004 2.914-.004 5.938-.004 9.073-.009 3.091 0 6.314-.004 9.593 0 3.3-.004 6.689-.009 10.155-.009 1.733 0 3.51-.004 5.243 0 1.777 0 3.599-.004 5.409-.004 1.821 0 3.687-.005 5.541-.005 1.855 0 3.731-.004 5.619 0 1.932-.004 3.841-.004 5.795-.004 1.943-.005 3.897 0 5.883 0 1.976 0 4.007-.005 6.005 0 2.042-.01 4.074-.005 6.149-.005 2.075-.004 4.161-.004 6.248-.004 2.108-.005 4.216 0 6.38-.005 2.13.005 4.283 0 6.479 0 2.186-.004 4.405-.004 6.623-.004 2.219-.005 4.46 0 6.712 0 2.274-.005 4.548 0 6.855 0 2.296-.005 4.603-.005 6.954-.005 2.362-.004 4.702 0 7.064-.004 2.407-.005 4.78 0 7.219-.005 2.407.005 4.835 0 7.286 0 2.461 0 4.934-.004 7.418 0 2.494-.008 5.011-.004 7.528-.004 2.539 0 5.089-.004 7.66-.009 2.55.005 5.144 0 7.738.005 2.594-.005 5.222-.005 7.86-.005s5.298-.004 7.969-.004c2.672 0 5.376-.005 8.081 0 2.704-.005 5.442-.01 8.179-.005 2.738 0 5.497 0 8.301-.009 2.782 0 5.563.005 8.389 0 2.804-.004 5.641-.004 8.489-.004h8.588c2.903-.005 5.784 0 8.709-.005 2.903-.004 5.839-.004 8.775 0 2.948 0 5.939-.009 8.897-.004 2.992 0 5.983-.005 8.986-.005h9.084c3.069-.008 6.127-.008 9.195-.004 3.08-.005 6.16-.005 9.261-.009 3.113.005 6.215.005 9.383-.004 3.124 0 6.27.004 9.449 0 3.157 0 6.347 0 9.548-.005h9.604c3.256-.004 6.48-.004 9.724-.004 3.268-.005 6.535-.005 9.825-.01 3.267 0 6.556.005 9.868 0 3.312-.004 6.634 0 9.968 0 3.333-.004 6.689-.008 10.045-.004h5.044c1.7-.004 3.378-.004 5.067-.004 1.722-.005 3.4 0 5.11-.005 1.69.005 3.411-.004 5.111-.004 1.711 0 3.411 0 5.122.004 1.711 0 3.422 0 5.144-.004h5.166c1.733-.005 3.466-.005 5.188 0 1.733-.005 3.477-.01 5.221-.01 1.722.005 3.477 0 5.21.005 1.745 0 3.489-.004 5.233-.004 1.755-.005 3.51-.005 5.265-.005h5.265c1.777-.004 3.533-.004 5.288 0 1.777 0 3.554-.004 5.32-.008 1.777 0 3.544.004 5.332 0 1.766.004 3.554 0 5.331.004 1.777-.004 3.577-.009 5.376-.009 1.766.005 3.576 0 5.354.005 1.799 0 3.598-.01 5.386-.005 1.822-.004 3.621-.004 5.42 0 1.799 0 3.61-.004 5.42-.004s3.621-.005 5.442 0c1.821-.005 3.632 0 5.453-.005 1.821-.004 3.632 0 5.475-.004h10.972c1.833 0 3.676-.005 5.53-.005 1.833 0 3.665 0 5.52-.004 1.843 0 3.698 0 5.541.004 1.843-.004 3.709-.009 5.552-.009 1.855.005 3.709 0 5.564.005 1.876-.005 3.731-.01 5.585-.005 1.866 0 3.731 0 5.608-.004 1.854.004 3.742-.005 5.607 0 1.877 0 3.753-.005 5.63-.005 1.876 0 3.753-.004 5.629 0 1.888-.004 3.775-.004 5.641 0 1.899-.004 3.775-.004 5.663-.004h5.684c1.888-.005 3.798-.005 5.696-.009 1.877.005 3.786 0 5.685.005 1.91-.005 3.808 0 5.718-.005 1.899 0 3.819-.005 5.718 0 1.909 0 3.83-.005 5.74-.009 1.909 0 3.819 0 5.729.005 1.92 0 3.841 0 5.773-.01 1.909.005 3.83.005 5.762.005 1.91 0 3.83 0 5.773-.009h5.795c1.921.005 3.842 0 5.795 0 1.921 0 3.864-.004 5.807 0 1.942-.004 3.874 0 5.817 0 1.942-.009 3.885-.009 5.817-.004h5.839c1.954-.01 3.908-.005 5.84-.01 1.953.005 3.918 0 5.85.005 1.965-.004 3.93-.009 5.861-.004h5.873c1.976-.005 3.929-.005 5.894-.005 1.976 0 3.941 0 5.895-.004 1.965-.005 3.918 0 5.894 0s3.941 0 5.917-.005c1.965 0 3.941-.004 5.894-.004 1.987.004 3.963 0 5.939 0 1.987-.005 3.952-.005 5.928-.005s3.951.005 5.938-.004c1.976.004 3.963 0 5.939.004 1.987-.004 3.963 0 5.95-.004 1.987-.005 3.974-.005 5.961 0 1.975 0 3.973-.005 5.96-.005 1.987-.004 3.974 0 5.972 0 1.987 0 3.985-.004 5.972-.008 1.998 0 3.985.004 5.983 0 1.998 0 3.995.004 5.982 0 2.009 0 4.007-.005 5.994 0 2.009-.005 3.996 0 6.005-.01 1.998.005 3.996 0 5.994.005 2.009 0 4.018 0 6.016-.009 1.998 0 4.007.005 6.005.005 2.009-.005 4.018-.005 6.027-.01h6.027c1.998.005 4.007-.004 6.016-.004 2.009.005 4.018 0 6.027.005 2.02-.005 4.018-.01 6.038-.005 2.009-.004 4.029 0 6.027 0 2.02-.004 4.04-.009 6.049-.009 2.02 0 4.029.005 6.038 0 2.02 0 4.04-.004 6.06-.004 2.02 0 4.029.004 6.038 0h6.049c2.02-.005 4.04-.005 6.06-.005 2.02-.004 4.04 0 6.06-.004 2.02 0 4.04.004 6.06 0 2.02-.005 4.04-.005 6.06 0 2.02-.005 4.051 0 6.071 0 2.009-.005 4.029-.005 6.049-.005 2.031 0 4.052-.004 6.072-.004h6.071c2.009 0 4.04-.004 6.06-.009 2.02 0 4.051.005 6.071 0 2.031 0 4.051.005 6.071 0 2.031-.004 4.051-.004 6.071 0 2.031-.004 4.04 0 6.071-.004 2.02 0 4.04-.005 6.071-.005 2.02 0 4.04 0 6.071-.004 2.021 0 4.041.004 6.072 0 2.009 0 4.04-.005 6.06 0 2.02-.005 4.051 0 6.071-.005 2.02.005 4.04 0 6.071 0 2.02-.004 4.029 0 6.071 0 2.009-.004 4.029-.009 6.049-.004 2.02 0 4.051-.005 6.071-.005 2.02.005 4.04 0 6.049 0 2.02-.004 4.051-.004 6.071-.004 2.02 0 4.04-.005 6.049-.005 2.02 0 4.041.005 6.061.005 2.02-.005 4.04-.005 6.06-.005 1.998-.004 4.018-.004 6.038 0 2.02-.008 4.04-.008 6.06-.004 1.998 0 4.018-.005 6.038-.005 2.009-.004 4.029 0 6.038-.004 2.009.005 4.029 0 6.038.005 2.009-.005 4.018-.01 6.038-.01h6.027c2.009-.004 4.007-.004 6.016-.004h6.027c2.009-.004 4.007-.004 6.016 0 2.009-.004 4.007-.004 6.016-.009 1.998.005 4.006.005 6.004.005 2.009 0 3.996-.005 6.005-.01 2.009.005 3.996 0 6.005 0 1.987.005 3.985.005 5.983-.004 1.998.005 3.985 0 5.994 0 1.987 0 3.985.005 5.972-.004 1.998 0 3.996.004 5.983 0 1.997.004 3.984 0 5.96-.005 1.998.005 3.985.005 5.972.005 1.987 0 3.963-.01 5.961-.005 1.976-.004 3.963 0 5.949 0 1.976 0 3.963-.004 5.939-.004s3.963 0 5.939-.005h5.927c1.976-.004 3.941-.004 5.917-.004 1.976.004 3.952-.005 5.917-.005 1.964.005 3.929.005 5.916.005 1.954-.005 3.93-.009 5.895-.005 1.953 0 3.918-.004 5.883-.004 1.954 0 3.919-.005 5.884-.005 1.954.005 3.907 0 5.872 0 1.943.005 3.908 0 5.861-.004 1.954.005 3.908.005 5.862.005 1.932 0 3.897-.01 5.85-.01 1.943.005 3.875 0 5.829 0 1.942.005 3.885-.004 5.806-.004 1.965.005 3.896 0 5.839.005 1.932-.005 3.874-.01 5.806-.005 1.943 0 3.864-.004 5.784 0 1.954 0 3.875-.009 5.806-.004 1.932 0 3.853-.005 5.774 0 1.92-.005 3.852-.005 5.762-.01 1.932.005 3.841.005 5.751 0 1.92 0 3.841 0 5.729-.004 1.92.005 3.83 0 5.751.005 1.898-.005 3.83 0 5.729-.01 1.898.005 3.819.005 5.707 0 1.909.005 3.819.005 5.695-.004 1.911.005 3.801 0 5.671 0 1.9.005 3.8 0 5.69 0 1.89 0 3.78-.004 5.68 0 1.87 0 3.77 0 5.63-.009 1.89 0 3.77 0 5.64.005 1.87-.005 3.76 0 5.63 0 1.88-.005 3.73-.01 5.59-.01 1.9.005 3.76.005 5.62 0 1.86-.003 3.73 0 5.58-.003 1.87 0 3.71.004 5.58 0h5.55c1.84-.005 3.67-.005 5.55 0 1.83-.005 3.68-.01 5.51-.01 1.85.005 3.67.005 5.52 0 1.84.005 3.69 0 5.51 0 1.82 0 3.65-.004 5.47-.004 1.83 0 3.66.005 5.47-.004 1.83.004 3.64 0 5.45.004 1.83-.004 3.64 0 5.45-.009 1.81.005 3.62.005 5.42.005 1.8 0 3.61 0 5.41-.005 1.81 0 3.6 0 5.39-.004 1.8.004 3.6.004 5.36 0h5.38c1.77 0 3.56 0 5.33-.005 1.79 0 3.56 0 5.33-.004 1.78.004 3.54.004 5.32.004 1.76-.004 3.51 0 5.28-.009 1.77.005 3.52 0 5.27.005 1.76-.005 3.51-.005 5.25-.005 1.75-.004 3.5 0 5.25 0 1.73 0 3.49-.004 5.2-.004 1.77.004 3.49 0 5.22-.005 1.73.005 3.48.005 5.2.005 1.72-.005 3.44 0 5.17-.005h10.27c1.7-.008 3.4-.008 5.09-.008 1.72.004 3.4 0 5.11 0 1.7.004 3.38-.005 5.08 0 1.68-.005 3.37 0 5.06 0 3.34-.005 6.69-.01 10.01-.01 3.35.005 6.68 0 9.99-.004 3.31.005 6.6 0 9.88 0 3.29 0 6.54-.004 9.8-.004h9.72c3.22-.01 6.43-.01 9.63-.005 3.2 0 6.39-.004 9.55-.009 3.15 0 6.32.005 9.45 0 3.13-.004 6.26 0 9.37 0 3.09-.009 6.19-.004 9.27-.004 3.06-.005 6.13-.01 9.17-.01s6.07.005 9.1 0c3-.004 5.99-.004 8.98 0 2.97-.008 5.95-.004 8.9-.004s5.88-.004 8.8-.004c2.91 0 5.79-.005 8.69-.005 2.88-.004 5.75 0 8.59-.004 2.86.004 5.7 0 8.49-.005 2.82.005 5.61 0 8.4 0 2.77-.004 5.55 0 8.29 0 2.75 0 5.47-.004 8.16-.008 2.73 0 5.42.004 8.09 0 2.67-.005 5.32-.005 7.98 0 2.63 0 5.26-.005 7.84-.01 2.63.005 5.2 0 7.77 0 2.54-.004 5.09-.004 7.64 0 2.53 0 5.02-.008 7.51-.008 2.51.004 4.97.004 7.44.004 2.45-.004 4.87-.004 7.29-.009 2.41 0 4.8 0 7.18-.004 2.38 0 4.73 0 7.09.004 2.33-.004 4.65-.009 6.94-.009 2.33.005 4.61.005 6.86.005 2.27-.005 4.5-.01 6.73-.01 2.2 0 4.42 0 6.61.005 2.19-.004 4.34-.009 6.48-.009 2.15 0 4.28.005 6.39 0 2.08-.004 4.18 0 6.25 0 2.06-.004 4.09-.008 6.13-.004 2.02 0 4.03 0 6-.005 1.99.005 3.95-.004 5.9 0 1.96 0 3.84-.004 5.75-.004 1.92 0 3.79-.004 5.64-.004 1.86 0 3.72.004 5.52 0 1.82 0 3.63 0 5.39-.005h5.28c3.46 0 6.84 0 10.14-.004 3.27-.005 6.49 0 9.57-.01 3.14.005 6.16.005 9.07 0 2.92-.004 5.77-.004 8.47-.008h7.9c2.52-.005 4.96-.005 7.26-.005 2.3-.004 4.52 0 6.62-.004 4.21 0 7.91-.005 11.16-.005 3.24-.004 5.99-.004 8.2-.008 4.46 0 6.77-.005 6.77-.005M-577.67 78.989h6.899c2.274 0 5.122-.009 8.478-.004 3.378-.01 7.263-.014 11.678-.014 2.197 0 4.526 0 7.01-.009 2.428.005 5.033 0 7.738 0 2.715 0 5.541-.004 8.51-.009 2.937 0 6.038-.004 9.251-.009 3.168.005 6.49 0 9.945-.004 3.411 0 6.965-.004 10.641-.009 3.654 0 7.44 0 11.337-.004 1.942 0 3.918-.005 5.916-.01h6.093c2.054 0 4.151-.004 6.259-.004 2.131-.004 4.25-.009 6.402-.004 2.197-.01 4.372-.005 6.601-.005 2.208-.004 4.482-.009 6.745-.004 2.285-.01 4.57-.005 6.888-.01 2.329 0 4.68 0 7.064-.004 2.385 0 4.791-.004 7.22-.008 2.417.004 4.868 0 7.384-.005h7.495c2.517-.005 5.089-.005 7.661-.009 2.594-.004 5.188-.004 7.815-.004 2.627 0 5.288-.005 7.97-.005 2.682-.009 5.376-.009 8.102-.009 2.727 0 5.486-.004 8.246-.009 2.793 0 5.574-.004 8.4-.004 2.815 0 5.652 0 8.511-.005 2.881 0 5.751-.004 8.676-.009 2.903-.004 5.861-.004 8.809-.008h8.93c3.002-.01 6.016-.005 9.073-.01 3.036 0 6.104-.004 9.195-.004 3.091-.004 6.193-.004 9.339-.009 3.135-.004 6.281-.009 9.471-.009 3.157 0 6.358-.004 9.57-.009 3.223 0 6.435-.004 9.703-.004 3.245 0 6.523-.005 9.824-.01 3.278 0 6.601 0 9.945-.008 3.334.004 6.69 0 10.067 0 3.389-.009 6.767-.009 10.178-.009 3.422-.009 6.855-.009 10.299-.009 3.455 0 6.932-.004 10.431-.013 3.477.004 6.987-.005 10.52 0l10.641-.014c3.565-.004 7.141 0 10.751-.008 3.588.004 7.219-.005 10.818-.005 3.676-.004 7.285-.004 10.994-.009 3.643 0 7.341-.009 11.038-.004 3.709-.01 7.44-.01 11.182-.014 3.731-.004 7.495-.004 11.237-.009 3.798-.004 7.573-.004 11.37-.004 3.808 0 7.639-.01 11.469-.014 3.82.005 7.66 0 11.546-.008 3.852.004 7.76-.005 11.646-.005 3.896-.004 7.804-.004 11.722-.009 1.976-.004 3.93 0 5.906 0 1.987-.009 3.952-.009 5.916-.004 1.987-.005 3.974-.01 5.961-.01 1.987-.004 3.974-.004 5.972-.004 1.976 0 3.985-.004 5.983 0a890.35 890.35 0 0 1 6.005-.004c2.009-.005 4.018-.01 6.027-.005 2.009-.004 4.04-.009 6.06-.009h6.07c2.021-.004 4.063-.004 6.094-.004 2.053-.009 4.073-.004 6.115-.004 2.031-.005 4.096-.01 6.149-.01h6.137c2.064-.008 4.117-.008 6.182-.008 2.053 0 4.117 0 6.181-.005 2.064 0 4.14 0 6.215-.004 2.064 0 4.15-.005 6.225-.005 2.087-.004 4.162 0 6.27-.009 2.065.005 4.162.005 6.248 0 2.097-.004 4.184 0 6.28-.004 2.11 0 4.217-.005 6.326-.01 2.086.005 4.194.005 6.303 0 2.12 0 4.227-.004 6.347-.004 2.108 0 4.25-.008 6.358-.004 2.108 0 4.25-.009 6.38-.005 2.12 0 4.25-.004 6.392-.004 2.119 0 4.271-.009 6.402-.009h6.424c2.153-.004 4.283-.004 6.435-.004 2.153-.005 4.316-.005 6.469-.01 2.164-.004 4.305 0 6.457 0 2.175-.008 4.328-.004 6.491-.004 2.186-.009 4.349-.009 6.513-.004l6.523-.014c2.175 0 4.35.005 6.535 0 2.186-.004 4.371 0 6.546-.004 2.186 0 4.371 0 6.568-.004 2.196-.005 4.382-.005 6.568-.005 2.196 0 4.393-.004 6.601-.009h6.601c2.207 0 4.415-.004 6.634-.004 2.196-.01 4.415-.01 6.623-.01 2.218-.004 4.448-.004 6.656 0 2.219-.008 4.448-.008 6.656-.008 2.219 0 4.449 0 6.678-.005 2.219 0 4.449-.004 6.679-.009 2.229.005 4.47 0 6.7 0 2.241-.004 4.481-.004 6.722-.004 2.23-.005 4.46-.009 6.712-.009h6.744c2.241-.004 4.471-.004 6.744-.004 2.241-.005 4.493-.005 6.756-.005 2.263-.009 4.515-.009 6.778-.009 2.251-.004 4.514-.004 6.766-.009 2.274.005 4.537 0 6.789-.004 2.274.004 4.548 0 6.788 0 2.285-.005 4.559-.005 6.811-.005 2.296-.004 4.57-.009 6.822-.009 2.296 0 4.581-.004 6.833 0 2.296-.004 4.57-.004 6.855-.004 2.296-.004 4.58-.004 6.854-.013 2.285.004 4.559 0 6.866-.005 2.296 0 4.581 0 6.877-.004 2.285 0 4.581-.005 6.855 0 2.318 0 4.603-.005 6.899-.005 2.307-.004 4.592-.009 6.899-.009 2.296 0 4.603-.004 6.899 0 2.307-.004 4.603-.004 6.91-.004 2.318-.005 4.614-.005 6.921-.01 2.318-.004 4.614 0 6.932-.008 2.307.004 4.614 0 6.943-.005 2.296.005 4.615 0 6.933-.004 2.307.004 4.636-.005 6.943 0 2.318-.005 4.636-.005 6.954-.005l6.965-.013h6.965c2.329 0 4.648 0 6.977-.009 2.329.005 4.647-.004 6.976 0 2.329 0 4.669-.009 6.987-.009 2.329 0 4.659-.004 6.988 0 2.329-.004 4.669-.009 6.998-.009 2.329 0 4.658 0 7.009-.004 2.329 0 4.659 0 6.988-.01 2.351 0 4.68-.003 7.009 0 2.351-.003 4.68-.003 7.032-.008h6.998c2.351-.009 4.691-.004 7.031-.004 2.34-.01 4.692-.005 7.021-.01 2.34 0 4.691-.004 7.042-.004 2.34 0 4.692-.009 7.021-.004 2.34 0 4.691-.005 7.042-.01 2.34.005 4.692-.004 7.032 0 2.351-.004 4.691-.004 7.042-.008 2.34-.005 4.702 0 7.054-.005 2.34 0 4.691-.004 7.031-.004 2.351 0 4.714-.009 7.054-.009 2.351.004 4.691 0 7.042-.005 2.362.005 4.703 0 7.054 0 2.362-.008 4.702-.004 7.053-.004 2.34-.004 4.703-.004 7.054-.013 2.34.004 4.702.004 7.053 0 2.363 0 4.703-.005 7.054-.005 2.362 0 4.702-.004 7.054-.004 2.362 0 4.702-.01 7.064-.005 2.351-.004 4.691-.004 7.054-.009 2.34-.004 4.691-.004 7.053-.004 2.34-.005 4.691-.005 7.054-.005 2.34 0 4.702-.004 7.053-.008 2.34.004 4.703 0 7.054-.005 2.34.005 4.691-.004 7.053-.004h7.054c2.34-.01 4.691-.01 7.031-.014 2.352 0 4.714 0 7.054-.004h7.042c2.341 0 4.703-.005 7.054-.01 2.34 0 4.691 0 7.031-.004h7.043c2.351-.004 4.691-.004 7.042-.009 2.33 0 4.67-.004 7.021-.008 2.351.004 4.691 0 7.031-.005h7.032c2.329 0 4.669-.009 7.02-.009 2.329-.004 4.68-.004 7.01 0 2.351-.009 4.68-.004 7.02-.013 2.34.004 4.669 0 7.009 0 2.33-.005 4.67-.005 6.999-.005 2.351 0 4.68-.009 7.009-.004 2.329-.005 4.658-.005 6.998-.005 2.33-.009 4.659-.009 6.988-.009 2.318 0 4.647-.004 6.976-.004 2.329-.004 4.658 0 6.987-.004 2.329-.005 4.648 0 6.977-.01h6.965c2.318 0 4.636-.004 6.965-.008 2.307 0 4.636 0 6.943-.005 2.318-.004 4.636-.004 6.954 0 2.319-.004 4.637-.009 6.933-.009 2.318-.004 4.636-.004 6.943-.004 2.307-.005 4.614 0 6.932-.005 2.296 0 4.603-.009 6.921-.004 2.296 0 4.603-.01 6.899-.01 2.307 0 4.603 0 6.91-.004 2.307 0 4.581-.004 6.888-.004 2.307 0 4.592 0 6.888-.005 2.296 0 4.592-.004 6.877-.008 2.285 0 4.57 0 6.877-.005 2.285 0 4.581 0 6.855-.004 2.274 0 4.57-.005 6.854-.005 2.274 0 4.559 0 6.844-.004 2.274-.005 4.548-.005 6.833-.005 2.252-.004 4.548-.004 6.811-.009 2.274 0 4.559.005 6.822 0 2.24-.004 4.525-.004 6.81-.004 2.252 0 4.515-.005 6.789-.005 2.252 0 4.515-.004 6.756-.004 2.262-.004 4.525-.004 6.777-.009h6.766c2.252-.004 4.493-.009 6.72-.004 2.28-.005 4.52-.005 6.77-.005 2.24-.004 4.48-.009 6.71-.009 2.24 0 4.48 0 6.71-.004 2.24 0 4.47 0 6.7-.005 2.23 0 4.46-.004 6.67-.009 2.23.005 4.45-.004 6.68-.004 2.22.004 4.46 0 6.68 0 2.2-.005 4.43-.01 6.65-.005 2.21-.004 4.42-.008 6.61-.008 2.22-.005 4.43-.005 6.62-.005 2.2 0 4.41 0 6.61-.009 2.21.004 4.41.004 6.62 0 2.18-.004 4.38 0 6.56-.004 2.19-.005 4.38 0 6.57-.005 2.18 0 4.36-.004 6.55-.004 2.18-.005 4.35-.005 6.53-.005 2.18-.004 4.36-.004 6.52-.009 2.18.005 4.35 0 6.51-.004 2.18.004 4.31-.005 6.49-.005 2.16-.004 4.31-.004 6.46-.004 2.15-.005 4.31 0 6.47 0 2.15-.009 4.29-.009 6.42-.009 2.17 0 4.3 0 6.44-.004 2.15 0 4.29 0 6.41-.005 2.13 0 4.26 0 6.38-.009 2.14 0 4.25 0 6.38-.004 2.12 0 4.25.004 6.35 0 2.13-.005 4.24-.005 6.35-.01h6.32c2.09-.004 4.21-.004 6.32-.008 2.09.004 4.19 0 6.29 0 2.07 0 4.16-.01 6.26-.005 2.08 0 4.17-.004 6.24-.004 2.07-.005 4.17-.005 6.24-.005 2.07-.004 4.13-.008 6.2-.004 2.07 0 4.14-.005 6.21-.005 2.05-.004 4.09-.004 6.16-.008 2.07.004 4.12 0 6.16 0 2.04-.005 4.09-.005 6.12-.005 2.05 0 4.07-.009 6.12-.004 2.02 0 4.07-.005 6.08-.005 2.05 0 4.06-.004 6.09-.004 2-.005 4.04-.005 6.05-.005 2.02 0 4.03-.004 6.04-.004 2-.005 4.01-.005 6-.01 1.99.005 4 0 6 0 1.99 0 3.97-.004 5.95-.008 2 .004 3.96-.004 5.97 0 1.97-.004 3.94-.004 5.92-.004 1.97 0 3.93-.01 5.88-.01 3.93-.004 7.85 0 11.72-.008 3.92 0 7.79-.005 11.68-.005 3.86-.004 7.71-.009 11.54-.009 3.83-.004 7.65-.009 11.47-.009 3.81 0 7.58-.004 11.36-.009 3.76 0 7.52-.004 11.24-.009 3.75 0 7.48-.004 11.19-.004 3.69-.005 7.39-.009 11.05-.009 3.67-.004 7.31-.004 10.96-.009 3.63-.004 7.25-.004 10.85-.009 3.58-.004 7.17-.009 10.74-.009 3.56 0 7.11-.004 10.65-.004 3.51-.01 7.02-.005 10.51-.014 3.49 0 6.97 0 10.41-.008 3.46.004 6.91 0 10.32 0 3.39-.01 6.8-.01 10.18-.01 3.37-.004 6.72-.004 10.06-.013 3.35.005 6.67 0 9.96 0 3.29-.004 6.57-.009 9.82-.009 3.26-.004 6.48-.009 9.72-.009 3.21 0 6.38-.009 9.56-.009 3.2 0 6.32-.004 9.47-.004 3.12-.005 6.23-.005 9.34-.005 3.06-.008 6.14-.004 9.18-.013 3.07.004 6.09 0 9.08 0 3-.004 5.97-.009 8.95-.009 2.93-.004 5.88-.004 8.79-.004 2.91-.01 5.8-.005 8.68-.01 2.86 0 5.7-.004 8.52-.004 2.8-.009 5.61-.004 8.39-.009 2.77 0 5.5-.004 8.22-.009h8.13c2.67-.008 5.32-.008 7.95-.013 2.63.005 5.24 0 7.83 0 2.58 0 5.14-.004 7.66-.004 2.54-.005 5.02-.01 7.51-.005 2.49-.004 4.95-.004 7.36-.013 2.44.004 4.83 0 7.22 0 2.37-.005 4.73-.01 7.07-.005 2.31 0 4.6-.009 6.9-.004 2.25-.005 4.52-.005 6.74-.005 2.21-.009 4.39-.009 6.58-.004 2.17-.005 4.3-.005 6.42-.005 2.11-.004 4.21-.004 6.24-.008h6.11c1.98-.01 3.96-.01 5.9-.01 3.9-.004 7.69-.004 11.36-.008 3.67 0 7.23 0 10.65-.005 3.44-.004 6.77-.004 9.96-.009 3.18-.004 6.28-.004 9.21-.009 2.96-.004 5.79-.004 8.53-.004 2.71 0 5.29-.005 7.73-.01 2.48.005 4.79-.003 7.02 0 4.42-.003 8.3-.003 11.67-.008 3.35-.009 6.2-.004 8.46-.009 4.56-.004 6.93-.004 6.93-.004M-739.162 121.48s2.385-.005 7.043-.009c2.329 0 5.243-.005 8.72-.005 3.488-.004 7.55-.013 12.153-.009 2.319-.004 4.78-.004 7.396-.013 2.594 0 5.321 0 8.235-.004 2.881 0 5.916-.005 9.084-.005 3.18-.004 6.502-.009 9.979-.009 3.455-.004 7.087-.013 10.818-.009 3.753-.004 7.672-.013 11.678-.013 4.052-.005 8.224-.009 12.551-.018 2.153.004 4.349 0 6.546 0 2.252-.004 4.515-.004 6.8-.004 2.296-.005 4.647-.009 6.998-.009 2.362-.005 4.735-.005 7.175-.009 2.45 0 4.901-.005 7.407-.005l7.605-.013c2.561 0 5.144 0 7.771-.009h7.97c2.693-.005 5.42-.009 8.157-.009 2.76-.004 5.553-.009 8.367-.009 2.837-.009 5.652-.004 8.555-.013 2.848 0 5.773 0 8.71-.009 2.925 0 5.894 0 8.907-.009 2.97 0 6.005 0 9.063-.005 3.047-.004 6.115-.004 9.261-.013 3.102 0 6.248-.004 9.383-.004 3.19-.005 6.38-.009 9.603-.009l9.747-.014c3.29 0 6.601-.009 9.913-.009 3.322-.004 6.7-.004 10.078-.009 3.4-.004 6.81-.009 10.243-.009 3.433-.004 6.91-.013 10.41-.017 3.466 0 6.976 0 10.53-.009 3.533 0 7.087-.005 10.697-.014 3.576 0 7.186-.004 10.839-.009 3.632 0 7.297-.009 10.972-.009 3.687-.004 7.385-.004 11.127-.009l11.259-.013c3.775-.004 7.584-.009 11.403-.009 3.841-.004 7.694-.013 11.568-.018 3.875-.004 7.749-.004 11.657-.009 3.918-.009 7.848-.004 11.822-.013 3.952-.004 7.937-.004 11.932-.013 4.007-.005 8.003-.005 12.065-.009 4.052-.009 8.114-.014 12.187-.018 4.095-.005 8.19-.005 12.319-.009 4.117 0 8.267-.009 12.396-.009 4.183-.005 8.345-.009 12.584-.018 4.172 0 8.411-.009 12.65-.013 4.227 0 8.521-.009 12.782-.009 4.272-.005 8.588-.009 12.882-.018 4.338-.005 8.654-.005 13.014-.009 4.371-.009 8.732-.009 13.136-.018 4.36 0 8.764-.004 13.202-.013 4.426-.005 8.886-.009 13.334-.009 4.449-.005 8.93-.009 13.423-.018 2.252 0 4.482 0 6.756-.005 2.262-.004 4.503-.004 6.755-.004 2.285-.004 4.548-.009 6.8-.009 2.296-.004 4.559-.004 6.832-.004 2.285-.005 4.57-.009 6.855-.009 2.274 0 4.581-.009 6.877-.009 2.296-.005 4.581 0 6.888-.005 2.296 0 4.614-.004 6.921-.004 2.307-.005 4.636-.009 6.955-.009 2.318-.005 4.647-.009 6.965-.005l6.987-.013c2.33-.004 4.67 0 7.02-.009 2.319.005 4.67-.004 7.02 0 2.352-.009 4.692-.004 7.054-.009 2.363 0 4.714-.004 7.087-.009 2.362-.004 4.713-.004 7.098-.009 2.351 0 4.735 0 7.108-.004 2.374 0 4.758-.005 7.153-.005 2.385-.008 4.77-.004 7.153-.013 2.385.005 4.78-.004 7.175-.004 2.407 0 4.813-.009 7.22-.009 2.384 0 4.801-.005 7.207-.009 2.407.004 4.813 0 7.242 0 2.417-.009 4.846-.014 7.263-.009 2.417-.005 4.835-.005 7.285-.014 2.429.005 4.857-.004 7.297-.004 2.428-.004 4.879-.009 7.318-.009 2.44 0 4.88 0 7.34-.009 2.44.005 4.88 0 7.352-.004 2.45 0 4.923-.009 7.374-.005 2.462-.009 4.912-.004 7.374-.009 2.483-.004 4.945-.009 7.417-.004 2.473-.005 4.957-.014 7.43-.009 2.483-.009 4.956-.009 7.44-.009 2.483-.005 4.966-.005 7.472-.009 2.484-.004 4.978-.004 7.473-.009 2.484 0 4.978 0 7.495-.009 2.495 0 5.001 0 7.495-.009 2.506.005 5.023-.004 7.529-.004 2.505 0 5.022 0 7.539-.005 2.517-.009 5.033-.009 7.561-.013 2.506.004 5.034-.005 7.561 0 2.517-.005 5.067-.009 7.584-.009 2.539-.009 5.077-.004 7.594-.009 2.55-.004 5.089-.009 7.628-.009 2.528 0 5.077-.009 7.616-.009 2.561-.004 5.1-.004 7.65-.004 2.55-.009 5.111-.005 7.66-.009 2.55 0 5.089-.005 7.672-.009 2.55 0 5.111-.009 7.683-.005 2.561-.004 5.1-.004 7.694-.009 2.561-.008 5.133-.008 7.716-.013 2.572.005 5.143 0 7.726-.004 2.561 0 5.144-.009 7.716-.009 2.594 0 5.166-.005 7.738-.005 2.594-.004 5.188-.004 7.749-.013 2.605.004 5.199 0 7.771-.005 2.605 0 5.199-.004 7.782-.009 2.616-.004 5.21 0 7.782-.004l7.827-.013c2.605 0 5.221-.005 7.815-.009 2.594.004 5.188 0 7.815 0 2.627-.005 5.232-.009 7.837-.009 2.616-.009 5.243-.009 7.826-.009l7.882-.014c2.616.005 5.232-.004 7.848 0 2.627-.008 5.255-.013 7.871-.008 2.627-.009 5.254-.005 7.881-.009 2.638-.005 5.265-.005 7.882-.009 2.649 0 5.265-.005 7.914-.014 2.627.005 5.265-.004 7.903 0 2.628-.009 5.266-.009 7.904-.009 2.649-.009 5.287-.004 7.926-.009 2.638 0 5.287-.008 7.925-.008 2.66 0 5.299-.009 7.937-.009 2.66 0 5.298-.005 7.937-.005 2.66-.004 5.298-.004 7.958-.009 2.66-.004 5.299-.009 7.959-.009 2.66 0 5.309-.004 7.958-.009 2.661-.004 5.31-.009 7.97-.004 2.66-.009 5.31-.009 7.97-.014 2.66 0 5.321 0 7.992-.004 2.66-.004 5.309-.004 7.969-.013 2.683 0 5.332-.005 7.992-.005 2.672 0 5.332-.004 8.003-.009 2.661-.004 5.332-.009 7.992-.004 2.671-.005 5.343-.005 8.003-.009 2.671-.005 5.354-.005 8.003-.009 2.682 0 5.353-.005 8.025-.013 2.671 0 5.353 0 8.002-.005 2.683-.004 5.354-.009 8.025-.009 2.672-.004 5.354-.009 8.025-.004 2.672-.005 5.343-.009 8.014-.009 2.683-.005 5.365-.005 8.047-.009 2.671-.005 5.343-.005 8.025-.014 2.671.005 5.354 0 8.036-.004 2.671 0 5.343-.009 8.014-.004 2.693-.009 5.365-.005 8.047-.009l8.036-.014c2.671 0 5.365 0 8.036-.004 2.671 0 5.365-.005 8.036-.005 2.693-.004 5.364-.013 8.047-.009 2.682-.009 5.364-.004 8.036-.013 2.693-.005 5.364 0 8.058-.005 2.671-.004 5.342-.004 8.036-.013 2.671.005 5.342-.004 8.036-.004 2.671-.005 5.342-.009 8.036-.005 2.671-.009 5.364-.009 8.036-.013 2.682 0 5.364-.005 8.047-.005 2.671-.009 5.342-.009 8.036-.009l8.036-.013c2.671 0 5.342-.004 8.025 0l8.036-.013c2.671 0 5.342-.005 8.024-.009 2.672 0 5.365 0 8.036-.005 2.672-.004 5.354-.004 8.025-.009 2.672 0 5.343-.004 8.014-.009 2.683-.004 5.354-.009 8.025-.009 2.66 0 5.332-.004 8.003-.004 2.682-.005 5.354-.009 8.025-.009 2.66-.004 5.331-.004 8.003-.009 2.66 0 5.331-.009 8.014-.009 2.649-.004 5.32-.009 7.98-.009 2.672-.004 5.332-.004 8.014-.004 2.65-.005 5.31-.009 7.981-.009 2.66-.005 5.321-.005 7.981-.009 2.671-.005 5.331-.005 7.981-.009 2.66 0 5.32-.004 7.969-.009 2.661-.004 5.321-.004 7.981-.004 2.638-.009 5.299-.009 7.959-.009 2.649-.009 5.298-.005 7.947-.009 2.661 0 5.299-.005 7.959-.014 2.638.005 5.288 0 7.937-.004 2.649 0 5.287-.009 7.947-.005 2.639-.004 5.277-.008 7.915-.008l7.925-.014c2.639.005 5.277-.004 7.904 0 2.649-.004 5.287-.013 7.904-.013 2.649 0 5.276 0 7.914-.009 2.627 0 5.243-.005 7.882-.009 2.638.004 5.254-.005 7.881-.005 2.616-.004 5.254-.004 7.87-.004 2.628-.009 5.232-.013 7.86-.013 2.627 0 5.232 0 7.859-.005 2.605-.004 5.232-.004 7.837-.013 2.605 0 5.221 0 7.838-.005 2.605-.004 5.221-.009 7.826-.009 2.594 0 5.199 0 7.815-.004 2.583-.009 5.199-.005 7.804-.009 2.594 0 5.177-.009 7.782-.013 2.583 0 5.188-.005 7.779-.005 2.6 0 5.19 0 7.77-.004 2.57-.005 5.17-.005 7.76-.009l7.74-.014c2.59.005 5.16 0 7.72 0 2.58-.009 5.16-.004 7.74-.013 2.57 0 5.15 0 7.7-.005 2.57-.004 5.13-.008 7.68-.008 2.59-.005 5.15-.009 7.71-.009 2.56 0 5.11-.005 7.66-.009 2.55-.005 5.12 0 7.66-.005 2.56 0 5.1-.004 7.64-.004 2.54-.009 5.09-.009 7.6-.014 2.54-.004 5.09 0 7.64-.004 2.52-.005 5.08-.005 7.6-.013 2.54.004 5.06-.005 7.59-.005 2.54 0 5.06-.004 7.57-.004 2.52-.009 5.05-.005 7.54-.014 2.51.005 5.04-.004 7.54-.004 2.52 0 5.04-.009 7.54-.009 2.5-.005 5.01 0 7.51-.005 2.5 0 5-.004 7.49-.009 2.5 0 4.98-.009 7.48-.004 2.48-.009 4.96-.005 7.44-.013 2.5-.005 4.98-.005 7.46-.009 2.48.004 4.95-.005 7.44 0 2.46-.009 4.91-.009 7.4-.009 2.47-.005 4.92-.009 7.38-.009s4.91-.005 7.37-.009c2.46-.005 4.91 0 7.35-.009 2.46-.005 4.88-.005 7.35-.005 2.44 0 4.89-.004 7.31-.008 2.43-.005 4.88 0 7.3-.005 2.45-.004 4.86-.004 7.27-.013 2.43 0 4.86-.005 7.25 0 2.46-.005 4.86-.005 7.27-.014 2.42 0 4.82 0 7.22-.004 2.38-.005 4.8-.005 7.21-.009 2.39 0 4.79 0 7.18-.005 2.37 0 4.77-.004 7.15-.004 2.39-.009 4.77-.009 7.15-.009 2.36-.004 4.74-.009 7.12-.009 2.37 0 4.73-.004 7.08-.009 2.36-.004 4.73-.004 7.09-.004 2.36 0 4.69-.005 7.05-.009 2.36 0 4.71-.005 7.03-.005 2.34-.004 4.7-.004 7-.009 2.35 0 4.66-.004 6.99-.009 2.32-.004 4.67 0 6.97-.004 2.32-.004 4.63-.004 6.96-.004l6.91-.014c2.31-.004 4.6-.004 6.9-.009 2.3 0 4.59-.004 6.87-.004 2.27-.005 4.57-.005 6.85-.009 2.27 0 4.56 0 6.81-.005 2.29-.004 4.55-.004 6.83-.004 2.27 0 4.5-.009 6.77-.005 2.26-.004 4.5-.004 6.74-.013 4.49-.004 8.97-.009 13.42-.009 4.47-.004 8.9-.009 13.34-.018 4.41-.004 8.84-.004 13.2-.013 4.41 0 8.78-.005 13.14-.009 4.36-.004 8.66-.013 12.99-.018 4.32 0 8.62-.009 12.91-.009 4.27-.004 8.54-.009 12.77-.018 4.25-.004 8.46-.009 12.67-.009 4.19-.009 8.38-.013 12.56-.013l12.41-.013c4.13-.005 8.24-.005 12.33-.014 4.07-.004 8.14-.004 12.18-.013 4.04-.005 8.06-.005 12.07-.009 4-.005 7.99-.009 11.94-.009 3.94-.009 7.91-.009 11.8-.013 3.9-.009 7.81-.009 11.68-.014 3.88-.004 7.71-.009 11.55-.009 3.83-.004 7.61-.013 11.39-.018 3.79 0 7.54-.004 11.27-.013 3.74.005 7.45 0 11.13-.009 3.69 0 7.35-.004 10.98-.009 3.65 0 7.24-.009 10.84-.009 3.61-.004 7.15-.009 10.7-.018 3.54.005 7.06 0 10.54-.004 3.49-.009 6.96-.009 10.4-.009l10.24-.013c3.38 0 6.72-.009 10.07-.009l9.91-.014c3.29 0 6.52-.004 9.77-.004l9.57-.014c3.17 0 6.3-.004 9.42-.008 3.11-.005 6.2-.005 9.24-.009 3.07-.005 6.1-.005 9.08-.014 3 0 5.98 0 8.92-.004 2.92-.005 5.85-.005 8.69-.014 2.91 0 5.74 0 8.56-.004 2.83 0 5.6-.009 8.36-.014 2.75.005 5.46-.004 8.15-.004 2.72 0 5.36-.009 7.99-.009s5.21-.004 7.78-.009c2.56-.004 5.12 0 7.61-.004 2.49-.005 4.95-.009 7.4-.005 2.43-.004 4.83-.004 7.19-.009 2.34-.004 4.71-.004 6.99-.004 2.3-.005 4.56-.005 6.8-.009 2.22 0 4.42-.005 6.58-.005l12.55-.013c4.03-.004 7.92-.013 11.68-.009 3.76-.004 7.36-.013 10.84-.013 3.48 0 6.79-.009 9.99-.009 3.16-.005 6.19-.009 9.12-.005 2.89-.004 5.63-.013 8.24-.009 2.61-.004 5.07-.004 7.4-.004 4.6-.009 8.65-.013 12.17-.013 3.48 0 6.41-.005 8.74-.005 4.66-.004 7.05-.013 7.05-.013"/><rect width="1248" height="157" fill="url(#c)"/></g><defs><linearGradient id="b" x1="1521.85" x2="1521.85" y1="0" y2="157.039" gradientUnits="userSpaceOnUse"><stop stop-color="#1C8234" stop-opacity="0"/><stop offset="1" stop-color="#1C8234" stop-opacity="0.5"/></linearGradient><linearGradient id="c" x1="624" x2="624" y1="0" y2="157" gradientUnits="userSpaceOnUse"><stop stop-color="#E8F2EA"/><stop offset="1" stop-color="#E8F2EA" stop-opacity="0"/></linearGradient><clipPath id="a"><rect width="1248" height="157" fill="#fff"/></clipPath></defs></svg>
