<svg width="301" height="175" viewBox="0 0 301 175" fill="none" xmlns="http://www.w3.org/2000/svg">
<path d="M172.942 175C173.067 175 173.192 174.977 173.313 174.93L196.354 165.967C196.705 165.831 196.951 165.512 196.997 165.139C197.042 164.766 196.877 164.398 196.57 164.183L178.785 151.74C178.509 151.547 178.155 151.502 177.84 151.62C177.525 151.738 177.287 152.004 177.206 152.332L171.95 173.737C171.859 174.106 171.982 174.495 172.268 174.747C172.458 174.912 172.699 175 172.942 175ZM193.834 164.758L174.403 172.317L178.835 154.266L193.834 164.758Z" fill="url(#paint0_linear_243_49734)"/>
<path d="M185.861 162.275C185.799 161.656 185.247 161.204 184.626 161.265C182.147 161.512 180.957 162.841 180 163.909C179.128 164.883 178.437 165.653 176.834 165.812C175.231 165.971 174.403 165.352 173.355 164.569C172.207 163.71 170.775 162.64 168.297 162.886C165.818 163.133 164.627 164.462 163.671 165.53C162.798 166.504 162.11 167.274 160.505 167.433C158.902 167.592 158.073 166.973 157.026 166.19C155.877 165.331 154.446 164.261 151.969 164.507C149.492 164.753 148.3 166.083 147.343 167.151C146.471 168.125 145.782 168.895 144.177 169.054C143.557 169.116 143.103 169.667 143.165 170.286C143.227 170.905 143.779 171.357 144.4 171.296C146.878 171.049 148.069 169.72 149.026 168.652C149.898 167.678 150.587 166.908 152.192 166.749C153.795 166.59 154.623 167.209 155.671 167.992C156.819 168.851 158.25 169.921 160.727 169.675C163.206 169.428 164.397 168.099 165.353 167.031C166.226 166.057 166.914 165.287 168.519 165.128C170.123 164.969 170.951 165.588 171.999 166.371C173.147 167.23 174.578 168.3 177.057 168.054C179.535 167.807 180.726 166.478 181.683 165.41C182.555 164.436 183.245 163.666 184.849 163.507C185.469 163.447 185.922 162.894 185.861 162.275Z" fill="url(#paint1_linear_243_49734)"/>
<path d="M267.444 74.2264C267.167 75.1309 265.965 75.4357 265.15 75.5443C263.527 75.7615 261.95 75.3724 260.394 74.9477C257.977 74.2864 255.62 73.4289 253.245 72.6297C250.976 71.8663 248.6 70.9455 246.171 70.9796C244.365 71.0055 242.617 71.534 240.839 71.7901C238.974 72.0592 237.07 72.0348 235.196 71.8906C226.902 71.2535 218.902 68.3049 211.138 65.5104C210.615 65.3223 210.868 64.5297 211.377 64.6577C211.385 64.5329 211.419 64.4032 211.486 64.2736C211.546 64.1585 211.62 64.0515 211.702 63.9477C211.609 63.7516 211.646 63.5101 211.911 63.4128C213.86 62.6915 215.85 63.2556 217.718 63.964C220.062 64.8523 222.343 65.6222 224.813 66.1069C227.581 66.6499 230.385 66.9336 233.172 67.3405C235.626 67.6971 237.969 68.3147 240.449 67.7295C241.115 67.5723 241.726 67.3696 241.995 66.6986C242.122 66.3825 242.164 66.0323 242.236 65.7017C242.39 64.9933 242.648 64.8296 243.348 64.5734C244.919 63.9996 246.597 64.2736 248.109 64.896C249.803 65.593 251.308 66.6516 252.862 67.6014C255 68.908 257.345 69.5061 259.767 70.0459C261.883 70.5176 264.106 70.9763 266.001 72.0754C266.724 72.4952 267.741 73.2538 267.444 74.2264Z" fill="url(#paint2_linear_243_49734)"/>
<path d="M191.214 35.3357C193.1 34.6306 195.379 34.9321 197.346 34.9937C200.931 35.1039 204.756 33.8752 208.196 35.3309C208.723 35.5529 208.27 36.318 207.747 36.0976C207.727 36.0895 207.709 36.083 207.69 36.0749C207.623 36.1235 207.54 36.1543 207.438 36.1576C204.004 36.2548 201.681 39.0883 198.52 39.9944C197.408 40.3138 196.305 40.1646 195.186 39.9442C193.896 39.6897 192.538 39.3315 191.386 38.6798C189.947 37.8661 189.364 36.0279 191.214 35.3357Z" fill="url(#paint3_linear_243_49734)"/>
<path d="M78.6648 61.0724C70.9899 64.0015 63.2223 67.5304 57.7808 73.6756C56.7153 74.8783 55.7098 76.2789 55.6367 77.882C55.4662 81.633 60.1101 83.5782 63.8656 83.7856C65.9804 83.9024 68.7418 83.275 68.9659 81.1726C69.1608 79.362 67.2084 78.0263 66.8235 76.2465C66.3654 74.1246 68.2123 72.2442 69.9779 70.9766C83.1349 61.5231 100.405 60.4386 116.617 60.5262C119.927 60.544 124.222 59.8389 124.807 56.5872C125.192 54.4426 123.457 52.3807 121.417 51.6059C119.377 50.8311 117.116 51.0175 114.939 51.1731C109.197 51.5832 103.314 51.6804 97.8123 49.9898C93.0677 48.5309 89.1693 46.999 86.8254 51.909C84.4701 56.8384 84.6212 58.7998 78.6648 61.0724Z" fill="url(#paint4_linear_243_49734)"/>
<path d="M49.747 43.825C34.3273 47.7446 19.3348 54.6548 8.08145 65.8817C5.51664 68.4413 3.12401 71.2666 1.7141 74.6026C0.305813 77.9386 -0.0223046 81.8646 1.50781 85.1455C3.55933 89.5432 8.38681 91.9082 13.0308 93.338C14.8516 93.8988 16.77 94.3738 18.6477 94.0479C20.5254 93.7237 22.3511 92.401 22.7004 90.532C23.29 87.3695 19.8351 85.165 17.6325 82.8162C12.6019 77.4572 13.6984 68.438 18.071 62.5328C22.4437 56.6276 29.2399 53.0922 35.794 49.7562C39.3302 47.9569 43.1295 46.1058 47.0733 46.5483C49.4286 46.8125 51.6247 47.8856 53.9637 48.273C59.3467 49.1678 64.5576 46.3992 69.6433 44.4199C77.7325 41.2704 86.546 39.993 95.1988 40.7192C98.5319 40.998 102.386 41.3514 105.302 40.1519C106.754 39.5554 106.412 37.4059 104.849 37.2503C97.1854 36.4901 88.963 38.2002 81.4603 38.8648C70.7966 39.8147 60.1362 41.1845 49.747 43.825Z" fill="url(#paint5_linear_243_49734)"/>
<path d="M68.7467 23.276C68.6249 22.7362 68.0872 22.3975 67.5463 22.5207C65.3876 23.0086 64.4812 24.3118 63.7552 25.3574C63.0924 26.3121 62.5678 27.0659 61.1709 27.382C59.774 27.6981 58.9748 27.241 57.9645 26.6639C56.8567 26.0317 55.4776 25.2439 53.3189 25.7318C51.1602 26.2197 50.2554 27.523 49.5277 28.5685C48.865 29.5233 48.3403 30.2771 46.9434 30.5932C45.5465 30.9092 44.7473 30.4521 43.737 29.8751C42.6292 29.2429 41.2502 28.4551 39.0914 28.9414C36.9327 29.4293 36.028 30.7326 35.3003 31.7781C34.6375 32.7328 34.1129 33.4866 32.716 33.8027C32.1751 33.9243 31.8356 34.4608 31.959 35.0006C32.0809 35.5404 32.6185 35.8792 33.1594 35.756C35.3181 35.2681 36.2229 33.9648 36.9506 32.9193C37.6133 31.9645 38.138 31.2107 39.5349 30.8947C40.9318 30.5786 41.731 31.0357 42.7413 31.6127C43.8491 32.2449 45.2281 33.0327 47.3869 32.5464C49.5456 32.0585 50.4503 30.7553 51.178 29.7097C51.8408 28.755 52.3654 28.0012 53.7623 27.6851C55.1592 27.369 55.9584 27.8261 56.9687 28.4032C58.0765 29.0354 59.4556 29.8232 61.6143 29.3353C63.773 28.8474 64.6794 27.5441 65.4055 26.4986C66.0682 25.5438 66.5929 24.7884 67.9898 24.4739C68.5291 24.3524 68.8685 23.8158 68.7467 23.276Z" fill="#FBC49D"/>
<path d="M260.464 111.081C260.636 111.081 260.812 111.07 260.987 111.047C262.05 110.908 262.995 110.365 263.65 109.517C264.303 108.669 264.587 107.617 264.447 106.557C264.16 104.367 262.141 102.819 259.948 103.106C257.753 103.393 256.202 105.406 256.488 107.596C256.753 109.609 258.481 111.081 260.464 111.081ZM263.226 106.716C263.322 107.452 263.125 108.18 262.673 108.768C262.222 109.357 261.566 109.733 260.828 109.828C259.306 110.028 257.908 108.953 257.709 107.436C257.614 106.7 257.81 105.972 258.262 105.383C258.713 104.795 259.37 104.419 260.107 104.323C261.629 104.124 263.028 105.197 263.226 106.716Z" fill="#86E29B"/>
<path d="M46.1118 10.8215C47.4795 10.8215 48.8439 10.2736 49.8413 9.19083C50.7574 8.19716 51.2301 6.90686 51.1749 5.5582C51.118 4.20954 50.5397 2.96301 49.544 2.04877C48.5483 1.13454 47.2554 0.661212 45.9039 0.717947C44.5525 0.774681 43.3034 1.35175 42.3873 2.34541C40.4966 4.39758 40.6298 7.60064 42.6862 9.48909C43.6559 10.3806 44.8855 10.8215 46.1118 10.8215ZM46.1184 2.12334C47.0361 2.12334 47.9083 2.46212 48.5889 3.0862C49.3069 3.74594 49.7243 4.64397 49.7649 5.61818C49.8055 6.59077 49.4644 7.52121 48.8033 8.23769C47.4389 9.71765 45.1243 9.81328 43.6413 8.45166C42.1583 7.09003 42.0624 4.78013 43.4268 3.30017C44.0879 2.5837 44.9878 2.16711 45.964 2.12658C46.0144 2.12334 46.0664 2.12334 46.1184 2.12334Z" fill="#FFB0EB"/>
<path d="M9.45211 103.655C8.61422 103.655 7.93499 102.977 7.93499 102.141C7.93499 101.305 8.61422 100.627 9.45211 100.627C10.29 100.627 10.9692 101.305 10.9692 102.141C10.9692 102.977 10.29 103.655 9.45211 103.655Z" fill="url(#paint6_linear_243_49734)"/>
<path d="M248.331 122.976C247.493 122.976 246.813 122.298 246.813 121.462C246.813 120.626 247.493 119.948 248.331 119.948C249.168 119.948 249.848 120.626 249.848 121.462C249.848 122.298 249.168 122.976 248.331 122.976Z" fill="url(#paint7_linear_243_49734)"/>
<path d="M205.378 157.568C204.541 157.568 203.861 156.89 203.861 156.054C203.861 155.218 204.541 154.54 205.378 154.54C206.216 154.54 206.896 155.218 206.896 156.054C206.896 156.89 206.216 157.568 205.378 157.568Z" fill="url(#paint8_linear_243_49734)"/>
<path d="M55.6337 142.993C54.7958 142.993 54.1166 142.315 54.1166 141.479C54.1166 140.643 54.7958 139.965 55.6337 139.965C56.4716 139.965 57.1509 140.643 57.1509 141.479C57.1509 142.315 56.4716 142.993 55.6337 142.993Z" fill="url(#paint9_linear_243_49734)"/>
<path d="M90.248 16.9684C89.4101 16.9684 88.7309 16.2906 88.7309 15.4544C88.7309 14.6183 89.4101 13.9404 90.248 13.9404C91.0859 13.9404 91.7651 14.6183 91.7651 15.4544C91.7651 16.2906 91.0859 16.9684 90.248 16.9684Z" fill="url(#paint10_linear_243_49734)"/>
<path d="M245.428 103.451C244.59 103.451 243.911 102.773 243.911 101.937C243.911 101.101 244.59 100.423 245.428 100.423C246.266 100.423 246.945 101.101 246.945 101.937C246.945 102.773 246.266 103.451 245.428 103.451Z" fill="url(#paint11_linear_243_49734)"/>
<path d="M239.174 165.595C238.336 165.595 237.657 164.917 237.657 164.081C237.657 163.245 238.336 162.567 239.174 162.567C240.012 162.567 240.691 163.245 240.691 164.081C240.691 164.917 240.012 165.595 239.174 165.595Z" fill="url(#paint12_linear_243_49734)"/>
<path d="M262.93 21.8848C261.57 21.8848 260.467 20.7846 260.467 19.4274C260.467 18.0702 261.57 16.97 262.93 16.97C264.29 16.97 265.392 18.0702 265.392 19.4274C265.392 20.7846 264.29 21.8848 262.93 21.8848Z" fill="url(#paint13_linear_243_49734)"/>
<path d="M284.337 54.1958C284.56 54.1958 284.779 54.1326 284.971 54.0078C285.292 53.7987 285.491 53.4453 285.5 53.0627L285.802 40.3445C285.812 39.9117 285.58 39.5097 285.2 39.3006C284.82 39.0915 284.355 39.1109 283.995 39.3525L272.119 47.258C271.762 47.4947 271.565 47.9096 271.607 48.336C271.648 48.7623 271.923 49.1302 272.317 49.2956L283.891 54.1083C284.034 54.1666 284.186 54.1958 284.337 54.1958ZM283.423 42.5215L283.215 51.3121L275.215 47.9858L283.423 42.5215Z" fill="#FFB0EB"/>
<path d="M21.7857 144.123C21.9189 144.123 22.0504 144.081 22.1576 143.998L32.3064 136.299C32.49 136.159 32.5793 135.931 32.5403 135.705C32.5013 135.48 32.3389 135.294 32.1212 135.224L18.5208 130.894C18.3047 130.826 18.0676 130.881 17.9051 131.039C17.7427 131.196 17.6794 131.431 17.7427 131.648L21.1944 143.676C21.2496 143.87 21.3991 144.026 21.5924 144.089C21.6557 144.112 21.7207 144.123 21.7857 144.123ZM30.6187 136.036L22.13 142.476L19.242 132.415L30.6187 136.036Z" fill="#86E29B"/>
<path d="M272.598 73.6546C270.434 69.7561 285.604 81.2813 284.054 85.5428C282.503 89.8044 273.954 88.8221 276.68 85.4018C278.986 82.51 276.053 79.8791 272.598 73.6546Z" fill="#FBC49D"/>
<path d="M99.9694 30.0061C99.9856 30.0061 100.004 30.0061 100.021 30.0061C102.063 29.9785 103.702 28.2992 103.674 26.2616C103.661 25.2744 103.264 24.3521 102.555 23.6631C101.847 22.9742 100.913 22.6046 99.9223 22.616C98.9331 22.6289 98.0089 23.0261 97.3185 23.7328C96.6282 24.4396 96.2562 25.3733 96.2692 26.3605C96.2822 27.3476 96.6802 28.27 97.3884 28.9589C98.0852 29.6348 98.9997 30.0061 99.9694 30.0061ZM99.9726 23.5529C100.697 23.5529 101.379 23.8301 101.899 24.3342C102.429 24.8481 102.724 25.537 102.734 26.2729C102.755 27.7934 101.532 29.0464 100.008 29.0659C99.2693 29.0772 98.5725 28.7984 98.0446 28.2846C97.5151 27.7707 97.2194 27.0818 97.2097 26.3459C97.1999 25.6099 97.4777 24.9129 97.9926 24.3861C98.5075 23.8593 99.1978 23.5626 99.9353 23.5529C99.9467 23.5529 99.9596 23.5529 99.9726 23.5529Z" fill="#75C4FD"/>
<path d="M215.546 35.7652C216.381 35.7328 217.224 35.916 218.033 36.1008C219.048 36.3326 220.047 36.5238 221.078 36.6827C223.439 37.0474 225.787 37.4802 228.123 37.9762C230.561 38.4933 233.012 39.0428 235.382 39.8209C237.504 40.5163 239.56 41.3868 241.613 42.2589C246.514 44.3402 251.591 45.9434 256.474 48.0701C260.584 49.8613 264.584 51.8843 268.517 54.0321C270.031 54.7761 271.478 55.7179 272.045 56.1005C272.24 56.2318 272.332 56.4846 272.237 56.7018C272.217 56.7472 272.191 56.7845 272.157 56.8088C271.177 57.4815 269.802 56.7245 268.92 56.2253C268.343 55.8978 266.571 55.1733 266.218 55.1117C265.574 54.9998 264.984 54.9074 265.046 55.8216C265.122 56.945 266.59 58.138 267.45 58.7508C268.876 59.7687 270.721 60.4269 272.017 61.6394C273.478 62.3526 275.066 63.1696 276.132 63.8342C280.009 66.2511 283.513 69.1688 286.735 72.3978C288.259 73.9232 289.732 75.5215 290.936 77.3159C291.875 78.718 292.872 80.3844 293.077 82.0962C293.205 83.1741 292.606 83.9473 291.516 83.3605C289.818 82.4495 289.383 80.7151 288.709 79.0682C287.169 75.3026 284.083 72.2163 280.862 69.8318C279.249 68.6388 277.533 67.5867 275.763 66.6449C273.861 65.6335 271.873 64.6058 269.761 64.1259C267.524 63.617 265.219 63.6218 262.952 63.343C260.86 63.0853 258.919 62.4531 257.046 61.4918C255.167 60.5274 253.419 59.3376 251.635 58.211C250.344 57.3956 248.82 56.7229 247.716 55.6466C246.766 54.7194 246.855 53.656 248.205 53.2362C250.409 52.5489 252.267 53.7808 254.171 54.7113C254.181 54.7161 254.192 54.721 254.202 54.7259C255.792 55.5007 257.556 55.8541 259.325 55.8054C259.765 55.7941 260.121 55.7876 260.293 55.7633C261.025 55.6563 261.925 55.0906 261.765 54.2347C261.586 53.2913 260.496 52.5473 259.765 52.0512C258.571 51.2407 257.257 50.5924 255.923 50.0428C255.579 49.9002 255.225 49.7543 254.866 49.6181C253.969 49.375 253.071 49.1562 252.173 48.9633C249.892 48.4705 247.571 48.2209 245.344 47.4995C243.38 46.8625 241.508 45.9855 239.659 45.0729C237.621 44.0663 235.61 43.0953 233.407 42.4907C231.183 41.8812 228.861 41.5262 226.557 41.4192C224.4 41.3187 222.233 41.4597 220.086 41.1825C218.449 40.9718 216.946 40.4174 215.463 39.7188C214.607 39.3152 213.228 38.696 213.087 37.6261C212.924 36.3844 214.575 35.8025 215.546 35.7652Z" fill="url(#paint14_linear_243_49734)"/>
<path d="M215.016 133.12C210.763 126.455 195.879 113.343 179.164 113.343L208.382 97.3191L215.016 133.12Z" fill="#333333"/>
<path d="M215.335 25.4432C222.5 24.1027 238.524 28.8878 242.702 45.3149C246.88 61.7403 241.677 69.4513 251.705 77.2936C261.734 85.136 261.906 100.325 261.906 100.325C261.906 100.325 258.385 103.789 250.273 104.722C242.161 105.656 237.312 100.443 227.498 104.051C217.684 107.66 184.777 77.0667 184.777 77.0667C184.777 77.0667 191.427 70.7141 196.059 59.9394C196.649 50.4939 195.354 39.126 200.034 32.749C204.711 26.3704 209.194 23.7104 215.335 25.4432Z" fill="#333333"/>
<path d="M191.599 67.7378L209.823 73.4858C211.734 74.0888 213.49 75.1019 214.968 76.4522L216.2 77.5772C216.528 77.9516 216.869 78.352 217.22 78.7718L212.927 90.2695C212.335 89.4444 211.751 88.655 211.182 87.9142C204.875 118.334 181.848 126.9 181.848 126.9L156.144 93.6265C175.931 94.2117 191.599 67.7378 191.599 67.7378Z" fill="#F66A0A"/>
<path d="M195.384 97.4598C191.546 93.2988 179.6 88.9383 171.883 95.0348C171.883 95.0348 176.938 94.7269 180.411 97.0465C183.023 101.076 187.434 104.205 187.434 104.205L195.384 97.4598Z" fill="#EDA5AC"/>
<path d="M154.405 86.1423C154.889 84.403 156.426 82.8128 158.97 81.4172C168.053 76.4326 184.774 76.5964 187.52 77.4263C187.517 77.4247 187.451 77.4052 187.343 77.3582L191.599 67.7377C187.639 66.0276 178.09 66.6176 176.238 66.7408C165.909 67.4248 159.277 69.6958 155.533 71.4805C149.511 74.3497 145.751 78.3438 144.356 83.351L154.405 86.1423Z" fill="#FFD33D"/>
<path d="M66.1782 104.249L51.3936 111.856L34.9375 111.177L51.3854 126.746L70.8936 117.236L66.1782 104.249Z" fill="#FFD33D"/>
<path d="M72.075 149.51L66.5978 157.451L56.4571 165.12L81.4879 165.87L83.8936 156.441L72.075 149.51Z" fill="#FFD33D"/>
<path d="M201.102 68.0362C193.823 64.2123 191.028 55.224 194.859 47.9587L201.981 34.4592C205.812 27.1956 214.819 24.4059 222.099 28.2298C229.378 32.0537 232.173 41.042 228.342 48.3073L221.221 61.8068C217.389 69.0704 208.382 71.8601 201.102 68.0362Z" fill="#EDA5AC"/>
<path d="M200.419 79.36C198.067 78.2578 197.057 75.4616 198.162 73.116L204.995 58.6001L213.51 62.591L206.676 77.1069C205.572 79.4524 202.771 80.4623 200.419 79.36Z" fill="#EDA5AC"/>
<path d="M210.729 31.8849C209.813 35.9666 211.231 41.097 216.755 46.5419C222.279 51.9867 223.681 57.3036 221.964 60.5569L230.986 44.9857L231.135 37.7788L226.639 28.5343L215.771 26.0056L207.464 26.7286L199.406 36.4447L198.275 41.4811C198.277 41.4795 205.226 32.7003 210.729 31.8849Z" fill="#333333"/>
<path d="M204.148 61.5601C206.147 61.5601 208.246 61.2295 209.831 60.5746L209.521 59.8257C206.659 61.009 201.841 61.0625 199.606 59.9359L199.239 60.6589C200.434 61.2603 202.245 61.5601 204.148 61.5601Z" fill="white"/>
<path d="M112.818 103.078C106.63 103.078 101.615 98.0729 101.615 91.8984C101.615 85.7239 106.63 80.7185 112.818 80.7185C119.005 80.7185 124.021 85.7239 124.021 91.8984C124.021 98.0729 119.005 103.078 112.818 103.078Z" fill="#606060"/>
<path d="M59.9335 107.418L108.548 81.5662L117.066 102.219L66.2343 122.694L59.9335 107.418Z" fill="#606060"/>
<path d="M156.944 126.317L107.889 101.907L116.565 81.3606L160.946 97.8265L156.944 126.317Z" fill="#606060"/>
<path d="M112.818 91.9855C112.77 91.9855 112.73 91.9465 112.73 91.8983C112.73 91.8501 112.77 91.811 112.818 91.811C112.866 91.811 112.905 91.8501 112.905 91.8983C112.905 91.9465 112.866 91.9855 112.818 91.9855Z" fill="#606060"/>
<path d="M110.375 121.248C104.187 121.248 99.1717 116.243 99.1717 110.068C99.1717 103.894 104.187 98.8882 110.375 98.8882C116.562 98.8882 121.578 103.894 121.578 110.068C121.578 116.243 116.562 121.248 110.375 121.248Z" fill="#333333"/>
<path d="M72.0748 149.51L101.673 103.03L119.05 117.106L87.2314 158.505L72.0748 149.51Z" fill="#333333"/>
<path d="M162.324 128.408L114.668 118.959L116.419 100.653L162.324 128.408Z" fill="#333333"/>
<path d="M156.944 126.317C166.078 131.982 181.848 126.902 181.848 126.902C181.848 126.902 177.417 103.916 160.946 97.8263C144.476 91.7363 122.154 104.121 122.154 104.121L156.944 126.317Z" fill="#606060"/>
<path d="M116.061 81.1951L178.114 104.288L179.067 101.744L117.038 78.5918L116.061 81.1951Z" fill="#333333"/>
<path d="M147.276 59.1157L150.52 60.3266C151.69 60.7626 152.549 61.7758 152.786 62.9996L158.84 94.1954L156.663 93.3833L147.276 59.1157Z" fill="#606060"/>
<path d="M112.272 46.0506L148.077 59.4156C149.357 59.8938 150.297 60.9993 150.56 62.3383L156.665 93.385L158.841 94.1971L117.039 78.5935L110.942 47.1756C110.792 46.4088 111.541 45.7783 112.272 46.0506Z" fill="#333333"/>
<path d="M157.901 89.3582C160.536 90.1476 163.878 92.8984 164.644 96.3576L158.84 94.1952L157.901 89.3582Z" fill="#EDA5AC"/>
<path d="M190.948 107.968C194.153 111.299 194.388 111.373 198.479 114.387L197.454 115.534L190.948 107.968Z" fill="#F66A0A"/>
<path d="M221.019 63.1439C219.727 62.0546 219.565 60.1256 220.657 58.8369L222.18 57.0376C223.272 55.7489 225.205 55.5868 226.496 56.6761L227.09 57.177C228.682 58.5208 228.494 61.0252 226.717 62.1145L224.599 63.4129C223.473 64.1051 222.029 63.9965 221.019 63.1439Z" fill="#EDA5AC"/>
<path d="M155.732 95.9949L175.564 103.343C176.974 103.865 178.541 103.15 179.067 101.744L156.665 93.3818L155.732 95.9949Z" fill="#333333"/>
<path d="M171.883 95.0352L170.301 96.4373C169.897 96.7956 169.968 97.4472 170.441 97.7098C170.67 97.8362 170.948 97.8411 171.181 97.7228L175.863 95.3286L173.707 94.5408L171.883 95.0352Z" fill="#EDA5AC"/>
<path d="M175.863 95.3284L175.388 95.8276C174.687 96.5652 174.771 97.7452 175.573 98.3742L176.345 98.9788C177.589 99.9546 179.126 100.488 180.708 100.491L183.414 100.498L180.461 95.2246L175.796 94.3882L175.863 95.3284Z" fill="#EDA5AC"/>
<path d="M184.775 77.0664C185.715 76.0193 187.082 74.22 187.082 74.22C187.082 74.22 182.553 76.5104 180.732 76.987" fill="#F66A0A"/>
<path d="M195.384 97.4601C202.214 105.478 213.056 112.406 218.928 112.579C219.065 112.582 219.2 112.584 219.333 112.581C220.77 112.543 221.15 112.047 221.332 111.809C222.906 109.754 220.938 104.035 218.774 99.7619C217.101 96.46 214.983 93.1434 212.927 90.2711L217.22 78.7734C220.598 82.8194 224.953 88.8851 228.085 95.0643C233.157 105.079 233.674 112.84 229.621 118.133C227.271 121.201 223.808 122.88 219.604 122.989C219.291 122.997 218.975 122.997 218.659 122.987C212.738 122.812 206.53 119.666 202.269 116.98C196.842 113.556 191.435 108.901 187.434 104.207L195.384 97.4601Z" fill="#FFD33D"/>
<path d="M130.922 70.401C129.481 70.401 128.312 69.2347 128.312 67.7961C128.312 66.3574 129.481 65.1912 130.922 65.1912C132.364 65.1912 133.533 66.3574 133.533 67.7961C133.533 69.2347 132.364 70.401 130.922 70.401Z" fill="#606060"/>
<path d="M200.176 68.8367L195.384 66.1799L194.239 68.5709L191.599 67.7377C191.599 67.7377 179.021 84.8585 170.844 89.3584C170.844 89.3584 184.046 84.7353 195.818 74.6739C197.676 73.0853 199.174 71.1093 200.16 68.8756L200.176 68.8367Z" fill="#FFD33D"/>
<path d="M206.275 70.0898L206.418 77.5836L210.765 121.284L210.922 122.876C211.752 131.22 217.727 138.155 225.869 140.225L228.174 140.812L223.024 123.74L222.679 122.598L212.925 90.2727L217.218 78.7751C217.218 78.7751 215.545 76.3436 213.052 74.8491L214.173 72.5229L206.275 70.0898Z" fill="#FFD33D"/>
<path d="M223.025 123.739C219.892 124.756 213.383 124.041 210.922 122.875L210.765 121.284C213.321 122.24 216.019 122.908 218.659 122.986L219.602 122.987C220.679 122.96 221.708 122.83 222.681 122.597L223.025 123.739Z" fill="#F66A0A"/>
<path d="M128.27 134.597C128.29 134.6 128.311 134.603 128.331 134.605C130.33 134.896 132.317 135.258 134.31 135.595C136.498 135.966 138.697 136.153 140.909 136.321C144.231 136.576 147.566 136.699 150.896 136.519C152.609 136.427 154.312 136.2 156.027 136.128C157.684 136.059 159.342 136.106 160.996 136.203C164.137 136.389 167.311 136.877 170.459 136.616C173.706 136.347 176.885 135.499 180.005 134.603C183.205 133.682 186.359 132.946 189.722 132.99C191.085 133.008 192.732 133.095 193.87 133.937C194.769 134.601 195.09 135.916 194.434 136.869C193.661 137.994 191.913 138.313 190.672 138.531C188.822 138.855 186.934 138.954 185.058 139.009C183.09 139.067 181.124 139.166 179.16 139.275C178.155 139.669 177.189 140.197 176.238 140.696C174.356 141.687 172.489 142.533 170.337 142.685C165.583 143.021 161.093 140.858 156.524 139.931C156.137 139.853 155.747 139.777 155.356 139.703C153.027 139.557 150.701 139.364 148.368 139.229C144.835 139.025 141.296 138.879 137.778 138.495C134.873 138.177 129.131 137.122 129.131 137.122L127.718 136.483C126.669 136.013 127.13 134.434 128.27 134.597Z" fill="url(#paint15_linear_243_49734)"/>
<path d="M288.638 124.245C293.495 120.953 300.445 114.31 300.445 107.565C301.083 102.751 296.076 97.2608 289.338 97.371C285.622 97.4326 281.847 100.3 283.802 102.6C284.356 103.252 285.248 103.709 286.049 104.212C293.241 108.737 291.757 118.335 283.39 121.404C280.01 122.644 276.084 122.872 272.46 123.701C262.842 125.9 260.021 135.646 250.2 137.356C245.869 138.11 241.291 137.909 236.921 138.541C228.671 139.735 221.727 143.806 213.479 145.004C209.467 145.587 203.889 146.098 198.559 146.505C196.982 146.625 197.171 148.306 198.759 148.293C198.792 148.293 198.823 148.293 198.853 148.291C202.737 148.237 206.629 148.126 210.48 147.806C220.67 146.959 230.9 145.325 240.753 143.375C260.497 139.473 273.676 134.389 288.638 124.245Z" fill="url(#paint16_linear_243_49734)"/>
<path d="M211.665 154.501C216.054 150.523 222.773 151.15 228.226 151.636C231.123 151.894 234.046 152.275 236.96 152.157C240.518 152.011 243.999 150.884 247.26 149.524C248.233 149.119 249.783 148.411 250.826 147.928C251.521 147.605 252.19 147.232 252.828 146.811C254.383 145.783 257.565 143.741 259.368 143.001C260.729 142.444 264.091 142.12 263.864 144.451C263.697 146.164 261.744 147.707 260.424 148.582C257.875 150.273 254.883 151.398 251.951 152.213C248.85 153.076 245.657 153.573 242.459 153.909C240.868 154.076 239.273 154.199 237.677 154.298C236.51 154.371 235.32 154.36 234.16 154.515C232.557 154.731 230.88 155.185 229.276 155.569C227.132 156.081 224.984 156.593 222.816 156.99C220.564 157.402 218.212 157.778 215.917 157.59C214.259 157.454 212.433 156.99 211.541 155.449C211.376 155.16 211.408 154.732 211.665 154.501Z" fill="url(#paint17_linear_243_49734)"/>
<path d="M101.193 148.897C125.648 152.277 133.859 149.96 121.045 143.532C108.231 137.103 101.362 140.063 101.303 143.154C101.243 146.245 94.5767 145.587 86.3641 144.148C78.1532 142.708 76.7546 144.59 101.193 148.897Z" fill="url(#paint18_linear_243_49734)"/>
<defs>
<linearGradient id="paint0_linear_243_49734" x1="195.496" y1="158.555" x2="169.684" y2="164.715" gradientUnits="userSpaceOnUse">
<stop stop-color="#FFE466"/>
<stop offset="1" stop-color="#FFAFEA"/>
</linearGradient>
<linearGradient id="paint1_linear_243_49734" x1="143.44" y1="183.715" x2="75.1458" y2="240.473" gradientUnits="userSpaceOnUse">
<stop stop-color="#75C3FC"/>
<stop offset="0.0929" stop-color="#81C2F6"/>
<stop offset="1" stop-color="#F0B8BD"/>
</linearGradient>
<linearGradient id="paint2_linear_243_49734" x1="181.2" y1="57.045" x2="387.599" y2="96.1898" gradientUnits="userSpaceOnUse">
<stop stop-color="#FFE466"/>
<stop offset="1" stop-color="#FFAFEA"/>
</linearGradient>
<linearGradient id="paint3_linear_243_49734" x1="180.425" y1="36.3071" x2="249.961" y2="40.0447" gradientUnits="userSpaceOnUse">
<stop stop-color="#FFE466"/>
<stop offset="1" stop-color="#FFAFEA"/>
</linearGradient>
<linearGradient id="paint4_linear_243_49734" x1="151.54" y1="48.3336" x2="55.2881" y2="71.8279" gradientUnits="userSpaceOnUse">
<stop stop-color="#FFE466"/>
<stop offset="1" stop-color="#FFAFEA"/>
</linearGradient>
<linearGradient id="paint5_linear_243_49734" x1="-0.126069" y1="68.5842" x2="107.471" y2="63.0675" gradientUnits="userSpaceOnUse">
<stop stop-color="#75C3FC"/>
<stop offset="0.0929" stop-color="#81C2F6"/>
<stop offset="1" stop-color="#F0B8BD"/>
</linearGradient>
<linearGradient id="paint6_linear_243_49734" x1="10.9695" y1="102.142" x2="7.93522" y2="102.142" gradientUnits="userSpaceOnUse">
<stop stop-color="#75C3FC"/>
<stop offset="1" stop-color="#75C3FC"/>
</linearGradient>
<linearGradient id="paint7_linear_243_49734" x1="249.848" y1="121.461" x2="246.814" y2="121.461" gradientUnits="userSpaceOnUse">
<stop stop-color="#75C3FC"/>
<stop offset="1" stop-color="#75C3FC"/>
</linearGradient>
<linearGradient id="paint8_linear_243_49734" x1="206.895" y1="156.054" x2="203.861" y2="156.054" gradientUnits="userSpaceOnUse">
<stop stop-color="#75C3FC"/>
<stop offset="1" stop-color="#75C3FC"/>
</linearGradient>
<linearGradient id="paint9_linear_243_49734" x1="57.1512" y1="141.48" x2="54.1169" y2="141.48" gradientUnits="userSpaceOnUse">
<stop stop-color="#75C3FC"/>
<stop offset="1" stop-color="#75C3FC"/>
</linearGradient>
<linearGradient id="paint10_linear_243_49734" x1="91.7654" y1="15.455" x2="88.7311" y2="15.455" gradientUnits="userSpaceOnUse">
<stop stop-color="#75C3FC"/>
<stop offset="1" stop-color="#75C3FC"/>
</linearGradient>
<linearGradient id="paint11_linear_243_49734" x1="246.945" y1="101.936" x2="243.91" y2="101.936" gradientUnits="userSpaceOnUse">
<stop stop-color="#75C3FC"/>
<stop offset="1" stop-color="#75C3FC"/>
</linearGradient>
<linearGradient id="paint12_linear_243_49734" x1="240.692" y1="164.081" x2="237.658" y2="164.081" gradientUnits="userSpaceOnUse">
<stop stop-color="#75C3FC"/>
<stop offset="1" stop-color="#75C3FC"/>
</linearGradient>
<linearGradient id="paint13_linear_243_49734" x1="265.39" y1="19.5141" x2="260.468" y2="19.3389" gradientUnits="userSpaceOnUse">
<stop stop-color="#75C3FC"/>
<stop offset="1" stop-color="#75C3FC"/>
</linearGradient>
<linearGradient id="paint14_linear_243_49734" x1="206.897" y1="42.7945" x2="334.593" y2="85.4476" gradientUnits="userSpaceOnUse">
<stop stop-color="#FFE466"/>
<stop offset="1" stop-color="#FFAFEA"/>
</linearGradient>
<linearGradient id="paint15_linear_243_49734" x1="224.751" y1="129.019" x2="16.1519" y2="155.703" gradientUnits="userSpaceOnUse">
<stop stop-color="#FFE466"/>
<stop offset="1" stop-color="#FFAFEA"/>
</linearGradient>
<linearGradient id="paint16_linear_243_49734" x1="300.469" y1="122.713" x2="197.516" y2="122.515" gradientUnits="userSpaceOnUse">
<stop stop-color="#75C3FC"/>
<stop offset="0.0929" stop-color="#81C2F6"/>
<stop offset="1" stop-color="#F0B8BD"/>
</linearGradient>
<linearGradient id="paint17_linear_243_49734" x1="263.876" y1="150.119" x2="211.44" y2="150.119" gradientUnits="userSpaceOnUse">
<stop stop-color="#75C3FC"/>
<stop offset="0.0929" stop-color="#81C2F6"/>
<stop offset="1" stop-color="#F0B8BD"/>
</linearGradient>
<linearGradient id="paint18_linear_243_49734" x1="127.046" y1="145.077" x2="80.9941" y2="145.077" gradientUnits="userSpaceOnUse">
<stop stop-color="#FFE466"/>
<stop offset="1" stop-color="#FFAFEA"/>
</linearGradient>
</defs>
</svg>
