<svg width="24" height="24" viewBox="0 0 24 24" fill="none" xmlns="http://www.w3.org/2000/svg">
  <path d="M21.8377 15.9368C21.6726 15.6666 21.2083 15.2464 20.0525 15.4465C19.4127 15.5566 18.7626 15.6066 18.1125 15.5766C15.7081 15.4765 13.5307 14.406 12.0138 12.7551C10.6723 11.3043 9.84678 9.41332 9.83647 7.37224C9.83647 6.23163 10.0635 5.13105 10.5279 4.09049C10.9819 3.07996 10.662 2.54968 10.435 2.32956C10.1976 2.09944 9.6404 1.77927 8.54656 2.2195C4.326 3.94041 1.71523 8.04259 2.02481 12.4349C2.33439 16.5671 5.32696 20.099 9.28955 21.4297C10.2389 21.7499 11.2399 21.94 12.2718 21.98C12.4369 21.99 12.602 22 12.7671 22C16.2241 22 19.4643 20.4192 21.5075 17.7277C22.1989 16.7972 22.0132 16.2069 21.8377 15.9368Z" fill="#3B4046"/>
</svg>
