<svg xmlns="http://www.w3.org/2000/svg" width="34" height="34" fill="none">
  <circle cx="17" cy="17" r="16" fill="#e8f1fb" stroke="#fff" stroke-width="2"/>
  <path fill="#037DD6" stroke="#037DD6" stroke-width="1.333"
        d="m22.003 17.117-.001-.007a1.288 1.288 0 0 1 .348-1.011l.006-.006.006-.006c.206-.224.483-.35.79-.35h1.831c.113.01.24.114.24.294v1.939c0 .18-.127.284-.24.293h-1.725c-.632 0-1.204-.496-1.255-1.146zm-2.663.22c.17 2.045 1.868 3.67 3.918 3.67h1.027c-.13 1.012-.537 1.814-1.126 2.371-.63.597-1.511.955-2.603.955h-8c-2.05 0-3.778-1.773-3.778-4.039v-6.588c0-1.154.327-2.086.865-2.754.534-.663 1.306-1.105 2.28-1.235h.01l.01-.003c.193-.031.397-.047.613-.047h8c.216 0 .393.009.55.037l.017.003.017.002c1.715.212 2.905 1.408 3.145 3.283h-1.134a3.644 3.644 0 0 0-2.698 1.179 4.09 4.09 0 0 0-1.113 3.166zm-6.784-1.788h5.333c.768 0 1.333-.655 1.333-1.372 0-.718-.565-1.373-1.333-1.373h-5.333c-.769 0-1.334.655-1.334 1.373 0 .717.565 1.372 1.334 1.372z"/>
</svg>
