<svg width="24" height="24" viewBox="0 0 24 24" fill="none" xmlns="http://www.w3.org/2000/svg">
  <path d="M12.0182 18.3934C15.5392 18.3934 18.3934 15.5392 18.3934 12.0182C18.3934 8.49727 15.5392 5.64299 12.0182 5.64299C8.49727 5.64299 5.64299 8.49727 5.64299 12.0182C5.64299 15.5392 8.49727 18.3934 12.0182 18.3934Z" fill="#3B4046"/>
  <path d="M12.0182 22C11.5173 22 11.1075 21.6266 11.1075 21.1257V21.0528C11.1075 20.5519 11.5173 20.1421 12.0182 20.1421C12.5191 20.1421 12.929 20.5519 12.929 21.0528C12.929 21.5537 12.5191 22 12.0182 22ZM18.5209 19.4317C18.2842 19.4317 18.0565 19.3406 17.8743 19.1676L17.7559 19.0492C17.4007 18.694 17.4007 18.1202 17.7559 17.765C18.1111 17.4098 18.6849 17.4098 19.0401 17.765L19.1585 17.8834C19.5137 18.2386 19.5137 18.8124 19.1585 19.1676C18.9854 19.3406 18.7577 19.4317 18.5209 19.4317ZM5.51548 19.4317C5.27869 19.4317 5.051 19.3406 4.86885 19.1676C4.51366 18.8124 4.51366 18.2386 4.86885 17.8834L4.98725 17.765C5.34244 17.4098 5.91621 17.4098 6.2714 17.765C6.62659 18.1202 6.62659 18.694 6.2714 19.0492L6.15301 19.1676C5.97996 19.3406 5.74317 19.4317 5.51548 19.4317ZM21.1257 12.929H21.0528C20.5519 12.929 20.1421 12.5191 20.1421 12.0182C20.1421 11.5173 20.5519 11.1075 21.0528 11.1075C21.5537 11.1075 22 11.5173 22 12.0182C22 12.5191 21.6266 12.929 21.1257 12.929ZM2.98361 12.929H2.91075C2.40984 12.929 2 12.5191 2 12.0182C2 11.5173 2.40984 11.1075 2.91075 11.1075C3.41166 11.1075 3.85792 11.5173 3.85792 12.0182C3.85792 12.5191 3.48452 12.929 2.98361 12.929ZM18.4026 6.54463C18.1658 6.54463 17.9381 6.45355 17.7559 6.28051C17.4007 5.92532 17.4007 5.35155 17.7559 4.99636L17.8743 4.87796C18.2295 4.52277 18.8033 4.52277 19.1585 4.87796C19.5137 5.23315 19.5137 5.80692 19.1585 6.16211L19.0401 6.28051C18.867 6.45355 18.6393 6.54463 18.4026 6.54463ZM5.63388 6.54463C5.39709 6.54463 5.1694 6.45355 4.98725 6.28051L4.86885 6.15301C4.51366 5.79781 4.51366 5.22404 4.86885 4.86885C5.22404 4.51366 5.79781 4.51366 6.15301 4.86885L6.2714 4.98725C6.62659 5.34244 6.62659 5.91621 6.2714 6.2714C6.09836 6.45355 5.86157 6.54463 5.63388 6.54463ZM12.0182 3.85792C11.5173 3.85792 11.1075 3.48452 11.1075 2.98361V2.91075C11.1075 2.40984 11.5173 2 12.0182 2C12.5191 2 12.929 2.40984 12.929 2.91075C12.929 3.41166 12.5191 3.85792 12.0182 3.85792Z" fill="#3B4046"/>
</svg>
