<svg xmlns="http://www.w3.org/2000/svg" width="34" height="34" fill="none">
  <circle cx="17" cy="17" r="16" fill="#e8f1fb" stroke="#fff" stroke-width="2"/>
  <path fill="#037DD6" stroke="#037DD6"
        d="m23.3598 19.4788.0014.0022c.2763.4359.3233.9444.1417 1.4077-.185.4721-.5682.8354-1.0718.9945l-.0027.0009c-1.742.5612-3.5762.8381-5.4122.8381-1.836 0-3.6694-.2769-5.41-.8463l-.001-.0003c-.5665-.184-.9597-.5515-1.119-.9791l-.0015-.004c-.1686-.4409-.118-.9353.179-1.4143l.0007-.0011.9321-1.482h.0001l.0042-.0069c.1294-.2132.2367-.496.3114-.7599.0744-.2633.131-.5594.131-.8061v-2.2489c0-1.8525 1.1214-3.4732 2.7665-4.26l.139-.0665.0775-.1332c.3892-.6693 1.1285-1.1025 1.9622-1.1025.8472 0 1.567.4191 1.9542 1.0778l.0797.1355.1428.0656c1.6774.77 2.8241 2.4061 2.8241 4.2833v2.2489c0 .2467.0566.5428.1308.8066.0747.2653.1814.5479.3085.7631l-.0002.0001.007.0112.9245 1.4756zm-7.9896 5.2457.0052.0005c.5381.0453 1.0882.0728 1.6405.0728.5436 0 1.0851-.0275 1.6144-.073l.0028-.0002.0026-.0003c-.4134.4079-.9928.6646-1.6383.6646-.6056 0-1.1975-.2372-1.607-.6453l-.0089-.0088-.0093-.0084-.002-.0019z"/>
</svg>
