<svg width="24" height="24" viewBox="0 0 24 24" fill="none" xmlns="http://www.w3.org/2000/svg">
<g clip-path="url(#clip0_142_4983)">
<circle cx="11.25" cy="11.25" r="8.25" fill="white"/>
<path fill-rule="evenodd" clip-rule="evenodd" d="M11.7473 0.356934C5.53411 0.356934 0.497314 5.39373 0.497314 11.6069C0.497314 17.8201 5.53411 22.8569 11.7473 22.8569C17.9605 22.8569 22.9973 17.8201 22.9973 11.6069C22.9973 5.39373 17.9605 0.356934 11.7473 0.356934ZM16.6525 7.43638L12.4567 5.22137C12.015 4.98545 11.4796 4.98545 11.038 5.22137L6.84213 7.43638C6.5343 7.60021 6.34692 7.91477 6.34692 8.2752C6.34692 8.62908 6.5343 8.95019 6.84213 9.11402L11.038 11.329C11.2588 11.447 11.5064 11.506 11.7473 11.506C11.9882 11.506 12.2358 11.447 12.4567 11.329L16.6525 9.11402C16.9603 8.95019 17.1477 8.63563 17.1477 8.2752C17.1477 7.91477 16.9603 7.60021 16.6525 7.43638ZM10.4871 11.9154L6.67366 9.89059C6.37201 9.74555 5.92217 9.85845 5.64064 10.0299C5.3524 10.2079 5.18481 10.5045 5.18481 10.8342V14.4668C5.18481 15.0931 5.54009 15.6984 6.10986 15.9819L10.0179 18.0685C10.1519 18.1344 10.2994 18.1674 10.4469 18.1674C10.6211 18.1674 10.7954 18.1212 10.9496 18.0289C11.2378 17.8575 11.4054 17.3544 11.4054 17.0247V13.3922C11.4121 12.7592 11.0569 12.1923 10.4871 11.9154ZM16.8183 9.89059C17.1132 9.73901 17.5657 9.86112 17.854 10.0325C18.1422 10.2104 18.3098 10.507 18.3098 10.8365V14.4679C18.3098 15.1006 17.9545 15.6985 17.3848 15.9819L13.4767 18.0706C13.3426 18.1365 13.1952 18.1694 13.0477 18.1694C12.8734 18.1694 12.6991 18.1233 12.5449 18.031C12.2567 17.8597 12.0891 17.3546 12.0891 17.0251V13.3937C12.0891 12.761 12.4444 12.2008 13.0142 11.9174L16.8183 9.89059Z" fill="#6A737D"/>
</g>
<defs>
<clipPath id="clip0_142_4983">
<rect width="24" height="24" fill="white"/>
</clipPath>
</defs>
</svg>
