<svg xmlns="http://www.w3.org/2000/svg" width="34" height="34" fill="none">
  <circle cx="17" cy="17" r="16" fill="#e8f1fb" stroke="#fff" stroke-width="2"/>
  <path fill="#037DD6" stroke="#037DD6"
        d="M8.677 22.666a.26.26 0 0 1-.066-.176v-2.095c0-5.026 3.764-9.1 8.357-9.117a7.88 7.88 0 0 1 3.209.671 8.371 8.371 0 0 1 2.732 1.945 9.087 9.087 0 0 1 1.834 2.93 9.604 9.604 0 0 1 .646 3.47v2.196a.26.26 0 0 1-.066.177.162.162 0 0 1-.118.055H8.795a.162.162 0 0 1-.118-.056zm13.387-7.96a1.19 1.19 0 0 0-1.707 0l.357.35-.357-.35-3.182 3.256a1.89 1.89 0 0 0-.315-.026c-1.062 0-1.903.877-1.903 1.936 0 1.058.841 1.936 1.903 1.936s1.904-.878 1.904-1.936c0-.024 0-.049-.002-.073l3.302-3.378a1.23 1.23 0 0 0 0-1.714zm.55 5.187c.804 0 1.436-.663 1.436-1.457s-.632-1.457-1.436-1.457c-.804 0-1.436.663-1.436 1.457s.632 1.457 1.436 1.457zm-11.696 0c.804 0 1.436-.663 1.436-1.457s-.632-1.457-1.436-1.457c-.803 0-1.436.663-1.436 1.457s.633 1.457 1.436 1.457zm5.474-4.786c.804 0 1.436-.663 1.436-1.457s-.632-1.458-1.436-1.458c-.803 0-1.435.664-1.435 1.458 0 .794.632 1.457 1.435 1.457z"/>
</svg>
