<svg width="196" height="24" viewBox="0 0 196 24" fill="none" xmlns="http://www.w3.org/2000/svg">
  <g clip-path="url(#clip0_740_4123)">
    <path fill-rule="evenodd" clip-rule="evenodd" d="M140.568 22.0069V2.09595H141.863V22.0069H140.568Z" fill="white"/>
    <path d="M116.465 12.1031C115.787 11.6511 115.026 11.3223 114.307 10.9319C113.835 10.6648 113.341 10.4387 112.951 10.11C112.273 9.55517 112.417 8.44558 113.115 7.95243C114.143 7.27435 115.848 7.64421 116.033 9.04147C116.033 9.06202 116.054 9.08257 116.095 9.08257H117.657C117.698 9.08257 117.718 9.06202 117.718 9.02092C117.636 8.05517 117.266 7.2538 116.588 6.7401C115.931 6.24695 115.191 5.97983 114.389 5.97983C110.28 5.97983 109.91 10.3154 112.129 11.6922C112.376 11.8565 114.554 12.9456 115.314 13.4182C116.074 13.8908 116.321 14.7538 115.992 15.4524C115.684 16.0689 114.903 16.5004 114.122 16.4593C113.259 16.4182 112.602 15.9456 112.376 15.2264C112.335 15.1031 112.314 14.836 112.314 14.7333C112.314 14.7127 112.294 14.6716 112.252 14.6716H110.568C110.547 14.6716 110.506 14.6922 110.506 14.7333C110.506 15.9456 110.814 16.6237 111.636 17.2401C112.417 17.8154 113.259 18.062 114.143 18.062C116.444 18.062 117.636 16.7675 117.862 15.4113C118.047 14.0757 117.636 12.8839 116.465 12.1031Z" fill="white"/>
    <path d="M90.6985 6.18497C90.6779 6.18497 90.6574 6.20551 90.6368 6.22606L89.2601 10.7877C89.2396 10.8494 89.1574 10.8494 89.1369 10.7877L87.7601 6.22606C87.7601 6.20551 87.7396 6.18497 87.6985 6.18497H85.13C85.1095 6.18497 85.0684 6.20551 85.0684 6.24661V17.8767C85.0684 17.8973 85.0889 17.9384 85.13 17.9384H86.8149C86.8355 17.9384 86.8766 17.9178 86.8766 17.8767V9.04113C86.8766 8.97949 86.9793 8.95894 86.9999 9.02058L88.3971 13.6028L88.4999 13.9315C88.4999 13.9521 88.5204 13.9726 88.5615 13.9726H89.856C89.8766 13.9726 89.8971 13.9521 89.9177 13.9315L90.0204 13.6028L91.4177 9.02058C91.4382 8.95894 91.541 8.97949 91.541 9.04113V17.8767C91.541 17.8973 91.5615 17.9384 91.6026 17.9384H93.2875C93.3081 17.9384 93.3492 17.9178 93.3492 17.8767V6.24661C93.3492 6.22606 93.3286 6.18497 93.2875 6.18497H90.6985Z" fill="white"/>
    <path d="M69 6.18497H61.048C61.0274 6.18497 60.9863 6.20551 60.9863 6.24661V7.70552C60.9863 7.72606 61.0069 7.76716 61.048 7.76716H64.1302V17.8767C64.1302 17.8973 64.1507 17.9384 64.1918 17.9384H65.8767C65.8973 17.9384 65.9384 17.9178 65.9384 17.8767V7.76716H69.0206C69.0411 7.76716 69.0822 7.74661 69.0822 7.70552V6.24661C69.0617 6.22606 69.0411 6.18497 69 6.18497Z" fill="white"/>
    <path d="M74.8975 12.8012L76.1304 8.26012C76.1509 8.19847 76.2331 8.19847 76.2537 8.26012L77.4865 12.8012C77.4865 12.8423 77.466 12.8834 77.4249 12.8834H74.9591C74.918 12.8834 74.8975 12.8423 74.8975 12.8012ZM78.9249 17.9382H80.466C80.5071 17.9382 80.5276 17.8971 80.5276 17.856L77.3633 6.18477C77.3633 6.16422 77.3427 6.14368 77.3016 6.14368H75.103C75.0824 6.14368 75.0619 6.16422 75.0413 6.18477L71.877 17.856C71.877 17.8971 71.8975 17.9382 71.9386 17.9382H73.4797C73.5002 17.9382 73.5208 17.9177 73.5413 17.8971L74.466 14.5067C74.466 14.4861 74.4865 14.4656 74.5276 14.4656H77.918C77.9386 14.4656 77.9591 14.4861 77.9797 14.5067L78.9044 17.8971C78.8633 17.9177 78.9043 17.9382 78.9249 17.9382Z" fill="white"/>
    <path d="M101.015 12.8012L102.248 8.26012C102.268 8.19847 102.35 8.19847 102.371 8.26012L103.604 12.8012C103.604 12.8423 103.583 12.8834 103.542 12.8834H101.076C101.035 12.8834 101.015 12.8423 101.015 12.8012ZM105.042 17.9382H106.583C106.624 17.9382 106.645 17.8971 106.645 17.856L103.48 6.18477C103.48 6.16422 103.46 6.14368 103.419 6.14368H101.22C101.2 6.14368 101.179 6.16422 101.159 6.18477L97.9941 17.856C97.9941 17.8971 98.0147 17.9382 98.0558 17.9382H99.5969C99.6174 17.9382 99.638 17.9177 99.6585 17.8971L100.583 14.5067C100.583 14.4861 100.604 14.4656 100.645 14.4656H104.035C104.056 14.4656 104.076 14.4861 104.097 14.5067L105.022 17.8971C104.98 17.9177 105.001 17.9382 105.042 17.9382Z" fill="white"/>
    <path d="M51.2867 16.2126V12.5961C51.2867 12.5756 51.3073 12.5345 51.3484 12.5345H55.8278C55.8484 12.5345 55.8895 12.5139 55.8895 12.4728V11.0139C55.8895 10.9934 55.8689 10.9523 55.8278 10.9523H51.3484C51.3278 10.9523 51.2867 10.9317 51.2867 10.8906V7.80845C51.2867 7.7879 51.3073 7.7468 51.3484 7.7468H56.4443C56.4648 7.7468 56.5059 7.72626 56.5059 7.68516V6.22626C56.5059 6.20571 56.4854 6.16461 56.4443 6.16461H49.5402C49.5196 6.16461 49.4785 6.18516 49.4785 6.22626V17.8358C49.4785 17.8564 49.4991 17.8975 49.5402 17.8975H56.6497C56.6703 17.8975 56.7114 17.8769 56.7114 17.8358V16.3564C56.7114 16.3358 56.6908 16.2947 56.6497 16.2947H51.3278C51.3073 16.2742 51.2867 16.2537 51.2867 16.2126Z" fill="white"/>
    <path d="M131.835 17.8354L126.02 11.8354C126 11.8149 126 11.7738 126.02 11.7532L131.26 6.308C131.301 6.2669 131.26 6.20526 131.219 6.20526H129.082C129.068 6.20526 129.054 6.21211 129.041 6.22581L124.602 10.8491C124.561 10.8902 124.5 10.8491 124.5 10.808V6.26691C124.5 6.24636 124.479 6.20526 124.438 6.20526H122.753C122.733 6.20526 122.691 6.22581 122.691 6.26691V17.897C122.691 17.9176 122.712 17.9587 122.753 17.9587H124.438C124.459 17.9587 124.5 17.9381 124.5 17.897V12.7806C124.5 12.7395 124.561 12.6984 124.602 12.7395L129.637 17.9381C129.637 17.9381 129.657 17.9587 129.678 17.9587H131.815C131.856 17.9381 131.876 17.8765 131.835 17.8354Z" fill="white"/>
    <path d="M44.3832 6.18497H41.8352C41.8147 6.18497 41.7941 6.20551 41.7736 6.22606L40.3969 10.7877C40.3763 10.8494 40.2941 10.8494 40.2736 10.7877L38.8969 6.22606C38.8969 6.20551 38.8763 6.18497 38.8352 6.18497H36.2667C36.2462 6.18497 36.2051 6.20551 36.2051 6.24661V17.8767C36.2051 17.8973 36.2256 17.9384 36.2667 17.9384H37.9517C37.9722 17.9384 38.0133 17.9178 38.0133 17.8767V9.04113C38.0133 8.97949 38.116 8.95894 38.1366 9.02058L39.5338 13.6028L39.6366 13.9315C39.6366 13.9521 39.6571 13.9726 39.6982 13.9726H40.9927C41.0133 13.9726 41.0338 13.9521 41.0544 13.9315L41.1571 13.6028L42.5544 9.02058C42.5749 8.95894 42.6777 8.97949 42.6777 9.04113V17.8767C42.6777 17.8973 42.6982 17.9384 42.7393 17.9384H44.4243C44.4448 17.9384 44.4859 17.9178 44.4859 17.8767V6.24661C44.4448 6.22606 44.4243 6.18497 44.3832 6.18497Z" fill="white"/>
    <path d="M24.9448 -3.05176e-05L14.6914 7.49997L16.6024 3.08216L24.9448 -3.05176e-05Z" fill="#E27726"/>
    <path d="M1.31445 -3.05176e-05L11.4651 7.58216L9.65692 3.08216L1.31445 -3.05176e-05Z" fill="#E27726"/>
    <path d="M21.268 17.3837L18.5352 21.5138L24.3708 23.096L26.0557 17.4864L21.268 17.3837Z" fill="#E27726"/>
    <path d="M0.226562 17.4864L1.89095 23.096L7.70601 21.5138L4.99369 17.3837L0.226562 17.4864Z" fill="#E27726"/>
    <path d="M7.39672 10.4381L5.77344 12.8628L11.5474 13.1094L11.3625 6.96552L7.39672 10.4381Z" fill="#E27726"/>
    <path d="M18.8626 10.4384L14.8352 6.88364L14.6914 13.1097L20.4859 12.8631L18.8626 10.4384Z" fill="#E27726"/>
    <path d="M7.70508 21.5136L11.2188 19.8492L8.19823 17.5273L7.70508 21.5136Z" fill="#E27726"/>
    <path d="M15.041 19.8492L18.5342 21.5136L18.0616 17.5273L15.041 19.8492Z" fill="#E27726"/>
    <path d="M18.5342 21.5137L15.041 19.8493L15.3287 22.0891L15.2876 23.0343L18.5342 21.5137Z" fill="#D6C0B3"/>
    <path d="M7.70508 21.5137L10.9517 23.0343L10.9311 22.0891L11.2188 19.8493L7.70508 21.5137Z" fill="#D6C0B3"/>
    <path d="M11.0144 16.0475L8.11719 15.2051L10.172 14.2804L11.0144 16.0475Z" fill="#2F353C"/>
    <path d="M15.2461 16.0475L16.0886 14.2804L18.1434 15.2051L15.2461 16.0475Z" fill="#2F353C"/>
    <path d="M7.70452 21.5138L8.21821 17.3837L4.99219 17.4864L7.70452 21.5138Z" fill="#CC6329"/>
    <path d="M18.041 17.3837L18.5342 21.5138L21.267 17.4864L18.041 17.3837Z" fill="#CC6329"/>
    <path d="M20.4859 12.8628L14.6914 13.1093L15.2462 16.0477L16.0887 14.2806L18.1435 15.2052L20.4859 12.8628Z" fill="#CC6329"/>
    <path d="M8.1159 15.2052L10.1707 14.2806L11.0132 16.0477L11.5474 13.1093L5.77344 12.8628L8.1159 15.2052Z" fill="#CC6329"/>
    <path d="M5.77344 12.8628L8.1981 17.5271L8.1159 15.2052L5.77344 12.8628Z" fill="#E27726"/>
    <path d="M18.1447 15.2052L18.0625 17.5271L20.4872 12.8628L18.1447 15.2052Z" fill="#E27726"/>
    <path d="M11.5479 13.1099L11.0137 16.0482L11.6918 19.5003L11.8561 14.9386L11.5479 13.1099Z" fill="#E27726"/>
    <path d="M14.691 13.1099L14.4238 14.9386L14.5471 19.5003L15.2457 16.0482L14.691 13.1099Z" fill="#E27726"/>
    <path d="M15.2455 16.0477L14.5469 19.4997L15.04 19.849L18.0606 17.5271L18.1428 15.2052L15.2455 16.0477Z" fill="#F6851F"/>
    <path d="M8.11719 15.2052L8.19938 17.5271L11.2199 19.849L11.6925 19.4997L11.0144 16.0477L8.11719 15.2052Z" fill="#F6851F"/>
    <path d="M15.2873 23.0339L15.3284 22.0887L15.0612 21.8627H11.1982L10.9311 22.0887L10.9517 23.0339L7.70508 21.5134L8.85576 22.4381L11.1571 23.9997H15.1023L17.4037 22.4381L18.5338 21.5134L15.2873 23.0339Z" fill="#C1AE9E"/>
    <path d="M15.0412 19.8493L14.5481 19.5H11.6919L11.2193 19.8493L10.9316 22.089L11.1988 21.863H15.0618L15.3289 22.089L15.0412 19.8493Z" fill="#2F353C"/>
    <path d="M25.3766 7.99312L26.2396 3.86298L24.9451 -3.05176e-05L15.041 7.25339L18.8629 10.4383L24.2465 11.9794L25.4177 10.6233L24.904 10.2534L25.7259 9.49312L25.1095 9.02052L25.9314 8.40408L25.3766 7.99312Z" fill="#773F1B"/>
    <path d="M0 3.86301L0.883562 7.99315L0.328767 8.40411L1.15068 9.02055L0.534247 9.5137L1.35616 10.2534L0.821918 10.6233L2.0137 11.9795L7.39726 10.4384L11.2192 7.25342L1.31507 0L0 3.86301Z" fill="#773F1B"/>
    <path d="M24.2474 11.9796L18.8639 10.4385L20.4872 12.8632L18.0625 17.5275L21.268 17.4865H26.0557L24.2474 11.9796Z" fill="#F6851F"/>
    <path d="M7.3978 10.4385L2.01423 11.9796L0.226562 17.4865H4.99369L8.19917 17.5275L5.77451 12.8632L7.3978 10.4385Z" fill="#F6851F"/>
    <path d="M14.6924 13.1097L15.0418 7.25351L16.6034 3.08228H9.6582L11.2198 7.25351L11.5486 13.1097L11.6925 14.959V19.5001H14.5486L14.5692 14.959L14.6924 13.1097Z" fill="#F6851F"/>
    <path d="M153.894 18.2597C153.396 18.2597 152.929 18.2057 152.487 18.0978C152.045 17.99 151.642 17.8384 151.275 17.6406C150.907 17.4429 150.589 17.2117 150.317 16.9446C150.044 16.68 149.831 16.3949 149.672 16.0893L150.943 15.1389C151.272 15.6475 151.68 16.0482 152.174 16.3436C152.664 16.6364 153.25 16.7853 153.928 16.7853C154.549 16.7853 155.073 16.6261 155.505 16.3102C155.934 15.9942 156.15 15.5525 156.15 14.9874C156.15 14.502 156.003 14.0936 155.708 13.7674C155.415 13.4386 154.984 13.1689 154.418 12.9531L152.826 12.3418C151.876 11.9925 151.185 11.5559 150.751 11.0371C150.317 10.5182 150.098 9.84527 150.098 9.02079C150.098 8.53534 150.193 8.09356 150.386 7.69801C150.579 7.30246 150.841 6.96342 151.174 6.68089C151.508 6.39836 151.904 6.1826 152.361 6.0362C152.818 5.88979 153.319 5.81531 153.861 5.81531C154.619 5.81531 155.299 5.96685 155.903 6.2725C156.507 6.57815 156.997 6.9737 157.37 7.45914L156.216 8.47627C155.911 8.11411 155.567 7.82644 155.181 7.61068C154.796 7.39493 154.344 7.28962 153.825 7.28962C153.532 7.28962 153.252 7.33072 152.985 7.40777C152.721 7.4874 152.487 7.60041 152.289 7.74681C152.091 7.89322 151.935 8.06788 151.822 8.27336C151.709 8.47627 151.652 8.70229 151.652 8.95144C151.652 9.46 151.801 9.85298 152.102 10.1304C152.402 10.4078 152.857 10.6595 153.466 10.8855L154.924 11.4454C155.818 11.7845 156.507 12.2263 156.992 12.7682C157.478 13.3102 157.722 14.0293 157.722 14.9206C157.722 15.4292 157.627 15.8889 157.434 16.3025C157.241 16.716 156.977 17.0653 156.638 17.353C156.299 17.6406 155.895 17.8641 155.425 18.0234C154.955 18.1826 154.444 18.2597 153.892 18.2597H153.894Z" fill="white"/>
    <path d="M159.455 9.57834H160.914V10.8831C161.207 10.3746 161.592 10.0021 162.067 9.76327C162.542 9.52697 163.056 9.40625 163.611 9.40625C164.086 9.40625 164.52 9.48587 164.916 9.64255C165.311 9.79923 165.648 10.0304 165.925 10.3283C166.203 10.6289 166.418 10.9884 166.578 11.4122C166.737 11.836 166.814 12.3086 166.814 12.8275V18.0492H165.373V13.0484C165.373 12.3369 165.188 11.7744 164.823 11.3609C164.456 10.9473 163.973 10.7419 163.375 10.7419C163.036 10.7419 162.717 10.8086 162.417 10.9448C162.116 11.0809 161.857 11.2813 161.636 11.5458C161.415 11.8104 161.24 12.1366 161.109 12.5193C160.978 12.9045 160.914 13.3437 160.914 13.842V18.0467H159.455V9.57063V9.57834Z" fill="white"/>
    <path d="M172.66 18.2239C172.061 18.2239 171.509 18.1083 171.006 17.8771C170.502 17.646 170.066 17.3301 169.691 16.9268C169.318 16.5261 169.028 16.0586 168.817 15.527C168.609 14.9953 168.504 14.4251 168.504 13.8138C168.504 13.2025 168.609 12.6323 168.817 12.1006C169.025 11.5689 169.318 11.104 169.691 10.7033C170.063 10.3027 170.502 9.98673 171.006 9.753C171.509 9.52183 172.059 9.40625 172.66 9.40625C173.304 9.40625 173.89 9.55009 174.422 9.83776C174.953 10.1254 175.359 10.4722 175.642 10.8806V9.57577H177.101V18.0518H175.642V16.747C175.359 17.1528 174.953 17.5021 174.422 17.7898C173.89 18.0775 173.302 18.2213 172.66 18.2213V18.2239ZM172.881 16.8857C173.31 16.8857 173.7 16.8061 174.049 16.6494C174.399 16.4927 174.702 16.2744 174.956 15.997C175.21 15.7196 175.408 15.396 175.549 15.0235C175.691 14.6511 175.76 14.2504 175.76 13.8189C175.76 13.3874 175.691 12.9893 175.549 12.6143C175.408 12.2419 175.21 11.9157 174.956 11.6408C174.702 11.366 174.399 11.1477 174.049 10.9884C173.7 10.8292 173.31 10.7521 172.881 10.7521C172.452 10.7521 172.059 10.8318 171.702 10.9884C171.345 11.1451 171.042 11.3634 170.787 11.6408C170.533 11.9182 170.335 12.2419 170.194 12.6143C170.053 12.9867 169.981 13.3874 169.981 13.8189C169.981 14.2504 170.05 14.6485 170.194 15.0235C170.335 15.396 170.533 15.7222 170.787 15.997C171.042 16.2744 171.347 16.4902 171.702 16.6494C172.056 16.8086 172.449 16.8857 172.881 16.8857Z" fill="white"/>
    <path d="M179.576 21.5991V9.58117H181.035V10.886C181.318 10.4801 181.723 10.1308 182.255 9.84316C182.787 9.55549 183.375 9.41165 184.017 9.41165C184.605 9.41165 185.152 9.52723 185.661 9.7584C186.169 9.98956 186.611 10.3055 186.984 10.7087C187.356 11.1094 187.646 11.5769 187.857 12.106C188.065 12.6377 188.17 13.2079 188.17 13.8192C188.17 14.4305 188.065 15.0007 187.857 15.5324C187.649 16.064 187.356 16.5289 186.984 16.9322C186.611 17.3329 186.169 17.6488 185.661 17.8825C185.152 18.1137 184.605 18.2293 184.017 18.2293C183.372 18.2293 182.784 18.0855 182.255 17.7978C181.723 17.5101 181.318 17.1608 181.035 16.755V21.6043H179.576V21.5991ZM183.796 16.886C184.225 16.886 184.616 16.8063 184.965 16.6497C185.314 16.4904 185.617 16.2747 185.872 15.9973C186.126 15.7199 186.324 15.3962 186.465 15.0238C186.606 14.6514 186.678 14.2507 186.678 13.8192C186.678 13.3877 186.606 12.9896 186.465 12.6146C186.324 12.2421 186.126 11.9159 185.872 11.6411C185.617 11.3663 185.314 11.148 184.965 10.9887C184.616 10.8295 184.225 10.7524 183.796 10.7524C183.367 10.7524 182.977 10.832 182.628 10.9887C182.278 11.148 181.975 11.3637 181.721 11.6411C181.467 11.9185 181.269 12.2421 181.128 12.6146C180.986 12.987 180.914 13.3877 180.914 13.8192C180.914 14.2507 180.984 14.6488 181.128 15.0238C181.269 15.3962 181.467 15.7224 181.721 15.9973C181.975 16.2747 182.278 16.4904 182.628 16.6497C182.977 16.8089 183.367 16.886 183.796 16.886Z" fill="white"/>
    <path d="M192.544 18.2239C191.787 18.2239 191.109 18.0621 190.51 17.741C189.912 17.4199 189.483 16.9242 189.221 16.2564L190.407 15.5963C190.567 16.0253 190.844 16.3566 191.247 16.5878C191.648 16.8189 192.087 16.9345 192.562 16.9345C192.968 16.9345 193.317 16.8369 193.605 16.6366C193.893 16.4388 194.037 16.1588 194.037 15.7967C194.037 15.491 193.929 15.2367 193.716 15.0338C193.5 14.8309 193.117 14.6434 192.562 14.4739L191.715 14.2016C191.014 13.9987 190.484 13.6854 190.13 13.2616C189.773 12.8378 189.596 12.3266 189.596 11.7282C189.596 11.366 189.673 11.0424 189.824 10.7547C189.976 10.467 190.186 10.223 190.451 10.0253C190.716 9.82748 191.024 9.67594 191.376 9.56807C191.725 9.46019 192.105 9.40625 192.511 9.40625C193.143 9.40625 193.698 9.53468 194.173 9.78896C194.648 10.0432 195.026 10.408 195.308 10.8831L194.224 11.628C194.031 11.3557 193.793 11.1271 193.505 10.9422C193.217 10.7547 192.871 10.6622 192.462 10.6622C192.1 10.6622 191.776 10.7521 191.486 10.9345C191.198 11.1143 191.055 11.3634 191.055 11.6794C191.055 11.9388 191.137 12.1699 191.301 12.3754C191.466 12.5783 191.784 12.753 192.259 12.902L193.192 13.1896C193.926 13.4157 194.494 13.7265 194.894 14.122C195.295 14.5176 195.496 15.0364 195.496 15.6811C195.496 16.0869 195.421 16.4491 195.275 16.765C195.128 17.0809 194.92 17.348 194.656 17.5612C194.391 17.777 194.075 17.9388 193.716 18.0518C193.353 18.1648 192.963 18.2213 192.547 18.2213L192.544 18.2239Z" fill="white"/>
  </g>
  <defs>
    <clipPath id="clip0_740_4123">
      <rect width="195.493" height="24" fill="white"/>
    </clipPath>
  </defs>
</svg>
