<svg viewBox="0 0 239 30" fill="#161616" xmlns="http://www.w3.org/2000/svg">
  <defs>
    <clipPath id="clip0_200_497">
      <rect width="239" height="29.3412" fill="white" transform="translate(0 0.329407)"/>
    </clipPath>
  </defs>
  <g clip-path="url(#clip0_200_497)" transform="matrix(1, 0, 0, 1, 2.842170943040401e-14, 0)">
    <path fill-rule="evenodd" clip-rule="evenodd" d="M171.852 27.2339V2.89182H173.435V27.2339H171.852Z"/>
    <path d="M142.385 15.1261C141.556 14.5734 140.627 14.1715 139.747 13.6942C139.17 13.3676 138.567 13.0913 138.089 12.6894C137.26 12.0111 137.436 10.6546 138.29 10.0517C139.546 9.22269 141.631 9.67487 141.858 11.3831C141.858 11.4082 141.883 11.4333 141.933 11.4333H143.842C143.892 11.4333 143.917 11.4082 143.917 11.358C143.817 10.1773 143.365 9.19757 142.536 8.56955C141.732 7.96665 140.828 7.64008 139.848 7.64008C134.824 7.64008 134.372 12.9406 137.085 14.6237C137.386 14.8246 140.049 16.1561 140.978 16.7338C141.908 17.3116 142.209 18.3667 141.807 19.2208C141.431 19.9744 140.476 20.502 139.521 20.4517C138.466 20.4015 137.662 19.8237 137.386 18.9445C137.336 18.7937 137.311 18.4672 137.311 18.3416C137.311 18.3164 137.286 18.2662 137.235 18.2662H135.175C135.15 18.2662 135.1 18.2913 135.1 18.3416C135.1 19.8237 135.477 20.6527 136.482 21.4063C137.436 22.1097 138.466 22.4112 139.546 22.4112C142.36 22.4112 143.817 20.8285 144.093 19.1706C144.319 17.5377 143.817 16.0807 142.385 15.1261Z"/>
    <path d="M110.883 7.89087C110.858 7.89087 110.833 7.91599 110.808 7.94111L109.125 13.5179C109.1 13.5933 108.999 13.5933 108.974 13.5179L107.291 7.94111C107.291 7.91599 107.266 7.89087 107.216 7.89087H104.076C104.051 7.89087 104 7.91599 104 7.96623V22.1846C104 22.2098 104.025 22.26 104.076 22.26H106.136C106.161 22.26 106.211 22.2349 106.211 22.1846V11.3827C106.211 11.3073 106.337 11.2822 106.362 11.3575L108.07 16.9595L108.195 17.3614C108.195 17.3866 108.221 17.4117 108.271 17.4117H109.853C109.879 17.4117 109.904 17.3866 109.929 17.3614L110.054 16.9595L111.763 11.3575C111.788 11.2822 111.913 11.3073 111.913 11.3827V22.1846C111.913 22.2098 111.939 22.26 111.989 22.26H114.049C114.074 22.26 114.124 22.2349 114.124 22.1846V7.96623C114.124 7.94111 114.099 7.89087 114.049 7.89087H110.883Z"/>
    <path d="M84.3559 7.89087H74.6341C74.609 7.89087 74.5588 7.91599 74.5588 7.96623V9.74981C74.5588 9.77493 74.5839 9.82518 74.6341 9.82518H78.4023V22.1846C78.4023 22.2098 78.4274 22.26 78.4776 22.26H80.5375C80.5627 22.26 80.6129 22.2349 80.6129 22.1846V9.82518H84.381C84.4062 9.82518 84.4564 9.80006 84.4564 9.74981V7.96623C84.4313 7.94111 84.4062 7.89087 84.3559 7.89087Z"/>
    <path d="M91.5656 15.9795L93.0729 10.4278C93.098 10.3525 93.1985 10.3525 93.2236 10.4278L94.7309 15.9795C94.7309 16.0298 94.7057 16.08 94.6555 16.08H91.641C91.5908 16.08 91.5656 16.0298 91.5656 15.9795ZM96.4893 22.2597H98.3734C98.4236 22.2597 98.4487 22.2095 98.4487 22.1593L94.5801 7.8906C94.5801 7.86548 94.555 7.84036 94.5048 7.84036H91.8168C91.7917 7.84036 91.7666 7.86548 91.7415 7.8906L87.8729 22.1593C87.8729 22.2095 87.898 22.2597 87.9482 22.2597H89.8323C89.8574 22.2597 89.8825 22.2346 89.9077 22.2095L91.0381 18.0646C91.0381 18.0394 91.0632 18.0143 91.1135 18.0143H95.2584C95.2835 18.0143 95.3086 18.0394 95.3338 18.0646L96.4642 22.2095C96.414 22.2346 96.4642 22.2597 96.4893 22.2597Z"/>
    <path d="M123.494 15.9795L125.001 10.4278C125.027 10.3525 125.127 10.3525 125.152 10.4278L126.659 15.9795C126.659 16.0298 126.634 16.08 126.584 16.08H123.57C123.519 16.08 123.494 16.0298 123.494 15.9795ZM128.418 22.2597H130.302C130.352 22.2597 130.377 22.2095 130.377 22.1593L126.509 7.8906C126.509 7.86548 126.484 7.84036 126.433 7.84036H123.745C123.72 7.84036 123.695 7.86548 123.67 7.8906L119.801 22.1593C119.801 22.2095 119.827 22.2597 119.877 22.2597H121.761C121.786 22.2597 121.811 22.2346 121.836 22.2095L122.967 18.0646C122.967 18.0394 122.992 18.0143 123.042 18.0143H127.187C127.212 18.0143 127.237 18.0394 127.262 18.0646L128.393 22.2095C128.343 22.2346 128.368 22.2597 128.418 22.2597Z"/>
    <path d="M62.7016 20.1501V15.7289C62.7016 15.7037 62.7267 15.6535 62.777 15.6535H68.2533C68.2784 15.6535 68.3287 15.6284 68.3287 15.5781V13.7946C68.3287 13.7694 68.3036 13.7192 68.2533 13.7192H62.777C62.7518 13.7192 62.7016 13.6941 62.7016 13.6438V9.8757C62.7016 9.85058 62.7267 9.80034 62.777 9.80034H69.0069C69.0321 9.80034 69.0823 9.77521 69.0823 9.72497V7.94139C69.0823 7.91627 69.0572 7.86603 69.0069 7.86603H60.5663C60.5412 7.86603 60.491 7.89115 60.491 7.94139V22.1347C60.491 22.1598 60.5161 22.21 60.5663 22.21H69.2582C69.2833 22.21 69.3335 22.1849 69.3335 22.1347V20.326C69.3335 20.3009 69.3084 20.2506 69.2582 20.2506H62.7518C62.7267 20.2255 62.7016 20.2004 62.7016 20.1501Z"/>
    <path d="M161.176 22.1341L154.066 14.7988C154.041 14.7737 154.041 14.7234 154.066 14.6983L160.472 8.04128C160.522 7.99104 160.472 7.91568 160.422 7.91568H157.809C157.793 7.91568 157.776 7.92405 157.759 7.9408L152.333 13.593C152.283 13.6432 152.207 13.593 152.207 13.5428V7.99104C152.207 7.96592 152.182 7.91568 152.132 7.91568H150.072C150.047 7.91568 149.997 7.9408 149.997 7.99104V22.2095C149.997 22.2346 150.022 22.2848 150.072 22.2848H152.132C152.157 22.2848 152.207 22.2597 152.207 22.2095V15.9544C152.207 15.9041 152.283 15.8539 152.333 15.9041L158.488 22.2597C158.488 22.2597 158.513 22.2848 158.538 22.2848H161.15C161.201 22.2597 161.226 22.1843 161.176 22.1341Z"/>
    <path d="M54.261 7.89087H51.1461C51.1209 7.89087 51.0958 7.91599 51.0707 7.94111L49.3876 13.5179C49.3625 13.5933 49.262 13.5933 49.2369 13.5179L47.5538 7.94111C47.5538 7.91599 47.5287 7.89087 47.4784 7.89087H44.3383C44.3132 7.89087 44.2629 7.91599 44.2629 7.96623V22.1846C44.2629 22.2098 44.2881 22.26 44.3383 22.26H46.3982C46.4233 22.26 46.4736 22.2349 46.4736 22.1846V11.3827C46.4736 11.3073 46.5992 11.2822 46.6243 11.3575L48.3325 16.9595L48.4581 17.3614C48.4581 17.3866 48.4832 17.4117 48.5335 17.4117H50.1161C50.1412 17.4117 50.1663 17.3866 50.1915 17.3614L50.3171 16.9595L52.0253 11.3575C52.0504 11.2822 52.176 11.3073 52.176 11.3827V22.1846C52.176 22.2098 52.2011 22.26 52.2514 22.26H54.3113C54.3364 22.26 54.3866 22.2349 54.3866 22.1846V7.96623C54.3364 7.94111 54.3113 7.89087 54.261 7.89087Z"/>
    <path d="M188.143 22.6528C187.534 22.6528 186.962 22.5869 186.422 22.455C185.882 22.3231 185.389 22.1378 184.94 21.896C184.491 21.6542 184.101 21.3716 183.769 21.0451C183.436 20.7216 183.175 20.3731 182.98 19.9994L184.535 18.8376C184.937 19.4593 185.436 19.9492 186.039 20.3103C186.639 20.6682 187.355 20.8504 188.184 20.8504C188.944 20.8504 189.584 20.6557 190.112 20.2695C190.636 19.8832 190.9 19.3431 190.9 18.6523C190.9 18.0588 190.721 17.5595 190.36 17.1607C190.002 16.7588 189.474 16.4291 188.783 16.1653L186.837 15.418C185.675 14.9909 184.83 14.4571 184.299 13.8228C183.769 13.1885 183.502 12.3658 183.502 11.3578C183.502 10.7643 183.618 10.2242 183.853 9.74066C184.089 9.25709 184.409 8.84259 184.817 8.49718C185.226 8.15177 185.709 7.888 186.268 7.70901C186.827 7.53003 187.439 7.43896 188.102 7.43896C189.028 7.43896 189.86 7.62423 190.598 7.9979C191.336 8.37158 191.936 8.85515 192.391 9.44864L190.981 10.6921C190.608 10.2494 190.187 9.89767 189.716 9.6339C189.245 9.37013 188.692 9.24139 188.058 9.24139C187.7 9.24139 187.358 9.29163 187.031 9.38583C186.708 9.48318 186.422 9.62134 186.18 9.80033C185.938 9.97931 185.747 10.1928 185.609 10.444C185.471 10.6921 185.401 10.9684 185.401 11.273C185.401 11.8948 185.584 12.3752 185.951 12.7143C186.318 13.0535 186.874 13.3612 187.618 13.6375L189.402 14.3221C190.495 14.7366 191.336 15.2767 191.93 15.9392C192.523 16.6018 192.822 17.481 192.822 18.5707C192.822 19.1924 192.705 19.7545 192.47 20.26C192.234 20.7656 191.911 21.1926 191.496 21.5443C191.082 21.896 190.589 22.1692 190.014 22.3639C189.44 22.5586 188.815 22.6528 188.14 22.6528H188.143Z"/>
    <path d="M194.941 12.0394H196.725V13.6346C197.083 13.0128 197.554 12.5575 198.135 12.2655C198.716 11.9766 199.344 11.829 200.022 11.829C200.603 11.829 201.133 11.9264 201.617 12.1179C202.101 12.3094 202.512 12.5921 202.851 12.9563C203.19 13.3237 203.454 13.7633 203.649 14.2814C203.843 14.7996 203.938 15.3773 203.938 16.0116V22.3955H202.176V16.2817C202.176 15.4119 201.95 14.7242 201.504 14.2186C201.055 13.7131 200.465 13.4619 199.733 13.4619C199.318 13.4619 198.929 13.5435 198.562 13.7099C198.194 13.8764 197.877 14.1213 197.607 14.4447C197.337 14.7682 197.123 15.1669 196.963 15.6348C196.803 16.1058 196.725 16.6428 196.725 17.252V22.3923H194.941V12.03V12.0394Z"/>
    <path d="M211.084 22.609C210.353 22.609 209.678 22.4677 209.062 22.1851C208.447 21.9025 207.913 21.5162 207.454 21.0233C206.999 20.5334 206.644 19.9619 206.387 19.3119C206.132 18.6619 206.004 17.9648 206.004 17.2174C206.004 16.4701 206.132 15.773 206.387 15.123C206.641 14.473 206.999 13.9046 207.454 13.4148C207.91 12.9249 208.447 12.5387 209.062 12.2529C209.678 11.9703 210.35 11.829 211.084 11.829C211.873 11.829 212.589 12.0049 213.239 12.3565C213.889 12.7082 214.385 13.1322 214.73 13.6314V12.0363H216.514V22.3986H214.73V20.8034C214.385 21.2996 213.889 21.7266 213.239 22.0783C212.589 22.43 211.869 22.6059 211.084 22.6059V22.609ZM211.354 20.973C211.879 20.973 212.356 20.8757 212.783 20.6841C213.21 20.4926 213.581 20.2257 213.892 19.8865C214.203 19.5474 214.444 19.1517 214.617 18.6964C214.79 18.2411 214.875 17.7513 214.875 17.2237C214.875 16.6962 214.79 16.2095 214.617 15.751C214.444 15.2957 214.203 14.8969 213.892 14.5609C213.581 14.2249 213.21 13.958 212.783 13.7633C212.356 13.5686 211.879 13.4744 211.354 13.4744C210.83 13.4744 210.35 13.5718 209.913 13.7633C209.477 13.9549 209.106 14.2218 208.795 14.5609C208.484 14.9 208.243 15.2957 208.07 15.751C207.897 16.2063 207.809 16.6962 207.809 17.2237C207.809 17.7513 207.894 18.238 208.07 18.6964C208.243 19.1517 208.484 19.5505 208.795 19.8865C209.106 20.2257 209.48 20.4894 209.913 20.6841C210.346 20.8788 210.827 20.973 211.354 20.973Z"/>
    <path d="M219.541 26.7354V12.0429H221.324V13.6381C221.67 13.1419 222.166 12.7149 222.816 12.3632C223.466 12.0115 224.185 11.8356 224.97 11.8356C225.689 11.8356 226.358 11.9769 226.98 12.2595C227.601 12.5422 228.141 12.9284 228.597 13.4214C229.052 13.9112 229.407 14.4827 229.664 15.1296C229.919 15.7796 230.047 16.4767 230.047 17.2241C230.047 17.9714 229.919 18.6685 229.664 19.3185C229.41 19.9685 229.052 20.5369 228.597 21.0299C228.141 21.5197 227.601 21.906 226.98 22.1917C226.358 22.4743 225.689 22.6156 224.97 22.6156C224.182 22.6156 223.463 22.4398 222.816 22.0881C222.166 21.7364 221.67 21.3093 221.324 20.8132V26.7417H219.541V26.7354ZM224.7 20.9733C225.224 20.9733 225.701 20.876 226.129 20.6845C226.556 20.4898 226.926 20.226 227.237 19.8869C227.548 19.5477 227.79 19.1521 227.962 18.6968C228.135 18.2415 228.223 17.7516 228.223 17.2241C228.223 16.6965 228.135 16.2098 227.962 15.7513C227.79 15.296 227.548 14.8972 227.237 14.5612C226.926 14.2253 226.556 13.9583 226.129 13.7637C225.701 13.569 225.224 13.4748 224.7 13.4748C224.175 13.4748 223.698 13.5721 223.271 13.7637C222.844 13.9583 222.473 14.2221 222.163 14.5612C221.852 14.9004 221.61 15.296 221.437 15.7513C221.265 16.2067 221.177 16.6965 221.177 17.2241C221.177 17.7516 221.261 18.2383 221.437 18.6968C221.61 19.1521 221.852 19.5509 222.163 19.8869C222.473 20.226 222.844 20.4898 223.271 20.6845C223.698 20.8791 224.175 20.9733 224.7 20.9733Z"/>
    <path d="M235.395 22.609C234.469 22.609 233.64 22.4112 232.908 22.0187C232.176 21.6262 231.652 21.0201 231.332 20.2037L232.783 19.3967C232.977 19.9211 233.316 20.3261 233.809 20.6088C234.299 20.8914 234.836 21.0327 235.417 21.0327C235.913 21.0327 236.34 20.9133 236.692 20.6684C237.044 20.4266 237.219 20.0844 237.219 19.6416C237.219 19.2679 237.088 18.9571 236.827 18.709C236.563 18.4609 236.095 18.2317 235.417 18.0244L234.381 17.6916C233.524 17.4435 232.877 17.0604 232.443 16.5423C232.007 16.0242 231.79 15.3993 231.79 14.6677C231.79 14.2249 231.884 13.8293 232.07 13.4776C232.255 13.1259 232.512 12.8276 232.836 12.5858C233.159 12.344 233.536 12.1587 233.966 12.0268C234.393 11.895 234.858 11.829 235.354 11.829C236.127 11.829 236.805 11.986 237.386 12.2969C237.967 12.6078 238.428 13.0537 238.774 13.6346L237.449 14.5452C237.213 14.2124 236.921 13.9329 236.569 13.7068C236.218 13.4776 235.794 13.3645 235.295 13.3645C234.852 13.3645 234.456 13.4744 234.101 13.6974C233.75 13.9172 233.574 14.2218 233.574 14.608C233.574 14.9252 233.674 15.2078 233.875 15.459C234.076 15.707 234.466 15.9206 235.047 16.1027L236.186 16.4544C237.084 16.7307 237.778 17.1107 238.268 17.5943C238.758 18.0778 239.003 18.7121 239.003 19.5003C239.003 19.9964 238.912 20.4392 238.733 20.8254C238.554 21.2117 238.3 21.5382 237.976 21.7989C237.653 22.0626 237.267 22.2605 236.827 22.3986C236.384 22.5368 235.907 22.6059 235.398 22.6059L235.395 22.609Z"/>
  </g>
  <g id="MM_Head_background__x28_Do_not_edit_x29_" transform="matrix(0.208811998367, 0, 0, 0.207506999373, -85.997276310847, -81.441003115961)" style="transform-origin: 101.997px 96.441px;">
    <g>
      <path class="st1" d="M167.4,96.1l6.9-8.1l-3-2.2l4.8-4.4l-3.7-2.8l4.8-3.6l-3.1-2.4l5-24.4l-7.6-22.6 M171.5,25.6l-48.8,18.1l0,0 l0,0H82l0,0L33.2,25.6l0.3,0.2l-0.3-0.2l-7.6,22.6l5.1,24.4L27.5,75l4.9,3.6l-3.7,2.8l4.8,4.4l-3,2.2l6.9,8.1l-10.5,32.4h0l0,0 l9.7,33.1l34.1-9.4l0-0.1l0,0.1l0,0l0,0l0,0v0l0,0l0,0l0,0l6.6,5.4l13.5,9.2h23.1l13.5-9.2l6.6-5.4l0,0v0l0,0l0,0l34.2,9.4 l9.8-33.1l0,0h0l-10.6-32.4 M70.7,152.1L70.7,152.1L70.7,152.1" style="fill: rgb(245, 132, 31);"/>
    </g>
  </g>
  <g id="Logos" transform="matrix(0.208811998367, 0, 0, 0.207506999373, -86.223974931549, -81.441003115961)" style="transform-origin: 102.224px 96.441px;">
    <g>
      <polygon class="st2" points="171.5,25.6 111.6,69.7 122.7,43.7 &#9;&#9;" style="fill: rgb(226, 118, 37);"/>
      <polygon class="st2" points="33.2,25.6 92.6,70.1 82,43.7 &#9;&#9;" style="fill: rgb(226, 118, 37);"/>
      <polygon class="st2" points="150,127.9 134,152.1 168.2,161.5 178,128.4 &#9;&#9;" style="fill: rgb(226, 118, 37);"/>
      <polygon class="st2" points="26.9,128.4 36.6,161.5 70.7,152.1 54.8,127.9 &#9;&#9;" style="fill: rgb(226, 118, 37);"/>
      <polygon class="st2" points="68.9,86.9 59.4,101.2 93.2,102.7 92.1,66.5 &#9;&#9;" style="fill: rgb(226, 118, 37);"/>
      <polygon class="st2" points="135.9,86.9 112.3,66.1 111.6,102.7 145.4,101.2 &#9;&#9;" style="fill: rgb(226, 118, 37);"/>
      <polygon class="st2" points="70.7,152.1 91.2,142.3 73.5,128.7 &#9;&#9;" style="fill: rgb(226, 118, 37);"/>
      <polygon class="st2" points="113.6,142.3 134,152.1 131.2,128.7 &#9;&#9;" style="fill: rgb(226, 118, 37);"/>
      <polygon class="st3" points="134,152.1 113.6,142.3 115.3,155.5 115.1,161.1 &#9;&#9;" style="fill: rgb(215, 193, 179);"/>
      <polygon class="st3" points="70.7,152.1 89.7,161.1 89.6,155.5 91.2,142.3 &#9;&#9;" style="fill: rgb(215, 193, 179);"/>
      <polygon class="st4" points="90,119.9 73.1,115 85.1,109.5 &#9;&#9;" style="fill: rgb(47, 52, 59);"/>
      <polygon class="st4" points="114.7,119.9 119.7,109.5 131.7,115 &#9;&#9;" style="fill: rgb(47, 52, 59);"/>
      <polygon class="st5" points="70.7,152.1 73.7,127.9 54.8,128.4 &#9;&#9;" style="fill: rgb(204, 98, 40);"/>
      <polygon class="st5" points="131.1,127.9 134,152.1 150,128.4 &#9;&#9;" style="fill: rgb(204, 98, 40);"/>
      <polygon class="st5" points="145.4,101.2 111.6,102.7 114.7,119.9 119.7,109.5 131.7,115 &#9;&#9;" style="fill: rgb(204, 98, 40);"/>
      <polygon class="st5" points="73.1,115 85.1,109.5 90,119.9 93.2,102.7 59.4,101.2 &#9;&#9;" style="fill: rgb(204, 98, 40);"/>
      <polygon class="st2" points="59.4,101.2 73.5,128.7 73.1,115 &#9;&#9;" style="fill: rgb(226, 118, 37);"/>
      <polygon class="st2" points="131.7,115 131.2,128.7 145.4,101.2 &#9;&#9;" style="fill: rgb(226, 118, 37);"/>
      <polygon class="st2" points="93.2,102.7 90,119.9 94,140.3 94.9,113.5 &#9;&#9;" style="fill: rgb(226, 118, 37);"/>
      <polygon class="st2" points="111.6,102.7 109.9,113.4 110.7,140.3 114.7,119.9 &#9;&#9;" style="fill: rgb(226, 118, 37);"/>
      <polygon class="st1" points="114.7,119.9 110.7,140.3 113.6,142.3 131.2,128.7 131.7,115 &#9;&#9;" style="fill: rgb(245, 132, 31);"/>
      <polygon class="st1" points="73.1,115 73.5,128.7 91.2,142.3 94,140.3 90,119.9 &#9;&#9;" style="fill: rgb(245, 132, 31);"/>
      <polygon class="st6" points="115.1,161.1 115.3,155.5 113.7,154.2 91,154.2 89.6,155.5 89.7,161.1 70.7,152.1 77.3,157.5 &#10;&#9;&#9;&#9;90.8,166.8 113.9,166.8 127.4,157.5 134,152.1 &#9;&#9;" style="fill: rgb(192, 173, 158);"/>
      <polygon class="st4" points="113.6,142.3 110.7,140.3 94,140.3 91.2,142.3 89.6,155.5 91,154.2 113.7,154.2 115.3,155.5 &#9;&#9;" style="fill: rgb(47, 52, 59);"/>
      <polygon class="st7" points="174.1,72.6 179.1,48.2 171.5,25.6 113.6,68.2 135.9,86.9 167.4,96.1 174.3,88 171.3,85.8 176.1,81.5 &#10;&#9;&#9;&#9;172.4,78.6 177.2,75 &#9;&#9;" style="fill: rgb(118, 62, 26);"/>
      <polygon class="st7" points="25.6,48.2 30.7,72.6 27.5,75 32.3,78.7 28.6,81.5 33.4,85.8 30.4,88 37.4,96.1 68.9,86.9 91.2,68.2 &#10;&#9;&#9;&#9;33.2,25.6 &#9;&#9;" style="fill: rgb(118, 62, 26);"/>
      <polygon class="st1" points="167.4,96.1 135.9,86.9 145.4,101.2 131.2,128.7 150,128.4 178,128.4 &#9;&#9;" style="fill: rgb(245, 132, 31);"/>
      <polygon class="st1" points="68.9,86.9 37.4,96.1 26.9,128.4 54.8,128.4 73.5,128.7 59.4,101.2 &#9;&#9;" style="fill: rgb(245, 132, 31);"/>
      <polygon class="st1" points="111.6,102.7 113.6,68.2 122.7,43.7 82,43.7 91.2,68.2 93.2,102.7 94,113.5 94,140.3 110.7,140.3 &#10;&#9;&#9;&#9;110.8,113.5 &#9;&#9;" style="fill: rgb(245, 132, 31);"/>
    </g>
  </g>
</svg>
