<svg width="66" height="34" viewBox="0 0 66 34" fill="#0A0A0A" xmlns="http://www.w3.org/2000/svg">
  <path d="M37.173 25.901V33.0962H33.4885V28.1112L29.2897 28.6036C28.3675 28.7108 27.9617 29.015 27.9617 29.5752C27.9617 30.3958 28.732 30.7416 30.3833 30.7416C31.3902 30.7416 32.5055 30.5906 33.4907 30.3302L31.5833 33.0525C30.813 33.2253 30.0622 33.3107 29.2702 33.3107C25.9285 33.3107 24.0211 31.9714 24.0211 29.5949C24.0211 27.4985 25.5205 26.3978 28.9273 26.0083L33.4277 25.4809C33.1847 24.1613 32.1974 23.588 30.2336 23.588C28.3913 23.588 26.3559 24.0629 24.5354 24.9491L25.1147 21.7301C26.8073 21.0167 28.7364 20.6491 30.685 20.6491C34.9706 20.6491 37.1774 22.4435 37.1774 25.8989L37.173 25.901ZM4.02739 16.8917L0 33.0962H4.02739L6.02589 24.9535L9.49127 29.1419H13.6901L17.1555 24.9535L19.154 33.0962H23.1813L19.154 16.8895L11.5896 25.9492L4.02522 16.8895L4.02739 16.8917ZM19.154 0.685059L11.5896 9.74469L4.02739 0.685059L0 16.8917H4.02739L6.02589 8.74901L9.49127 12.9374H13.6901L17.1555 8.74901L19.154 16.8917H23.1813L19.154 0.685059ZM46.8574 25.75L43.6004 25.2752C42.7866 25.1461 42.4655 24.8857 42.4655 24.4327C42.4655 23.6974 43.2575 23.3735 44.8871 23.3735C46.7728 23.3735 48.4653 23.7631 50.2447 24.6056L49.7955 21.4303C48.359 20.9117 46.7099 20.6535 44.9956 20.6535C40.9899 20.6535 38.8027 22.0584 38.8027 24.5859C38.8027 26.5532 40.0026 27.6539 42.5523 28.0434L45.8528 28.5402C46.6882 28.6693 47.031 28.9931 47.031 29.5118C47.031 30.247 46.2607 30.5928 44.6962 30.5928C42.6391 30.5928 40.4106 30.096 38.59 29.2098L38.9546 32.385C40.5191 32.9693 42.5545 33.3151 44.4618 33.3151C48.576 33.3151 50.7177 31.8664 50.7177 29.2951C50.7177 27.2425 49.5178 26.1396 46.8618 25.7522L46.8574 25.75ZM52.1499 18.3382V33.0962H55.8344V18.3382H52.1499ZM60.1396 26.4634L65.2628 20.8657H60.6777L55.8344 26.656L60.9989 33.094H65.649L60.1396 26.4613V26.4634ZM51.6356 13.3904C51.6356 15.7669 53.543 17.1062 56.8847 17.1062C57.6767 17.1062 58.4275 17.0187 59.1978 16.848L61.1052 14.1257C60.12 14.3839 59.0047 14.5371 57.9978 14.5371C56.3487 14.5371 55.5762 14.1914 55.5762 13.3707C55.5762 12.8083 55.9841 12.5063 56.9042 12.3991L61.103 11.9068V16.8917H64.7876V9.69655C64.7876 6.23901 62.5807 4.44678 58.2951 4.44678C56.3444 4.44678 54.4175 4.81441 52.7249 5.5278L52.1455 8.74682C53.9661 7.86055 56.0015 7.38569 57.8438 7.38569C59.8076 7.38569 60.7949 7.95903 61.0379 9.27858L56.5375 9.80597C53.1307 10.1955 51.6313 11.2962 51.6313 13.3926L51.6356 13.3904ZM41.3306 12.6136C41.3306 15.5963 43.0449 17.1084 46.43 17.1084C47.7797 17.1084 48.895 16.8917 49.9648 16.395L50.4356 13.1322C49.4071 13.7581 48.3568 14.0819 47.3066 14.0819C45.7204 14.0819 45.013 13.4342 45.013 11.9855V7.6636H50.6049V4.66123H45.013V2.11184L38.0063 5.84949V7.6636H41.3263V12.6114L41.3306 12.6136ZM37.709 11.2524V11.9877H27.7512C28.2004 13.4845 29.5349 14.1695 31.9045 14.1695C33.7901 14.1695 35.5478 13.78 37.1101 13.025L36.6609 16.1805C35.2244 16.7845 33.4039 17.1106 31.5399 17.1106C26.5903 17.1106 23.8909 14.9069 23.8909 10.8235C23.8909 6.74013 26.6337 4.44896 30.8759 4.44896C35.1181 4.44896 37.7112 6.93489 37.7112 11.2546L37.709 11.2524ZM27.7035 9.47991H34.0006C33.6686 8.04656 32.5771 7.29815 30.8325 7.29815C29.0879 7.29815 28.0528 8.02686 27.7035 9.47991Z" />
</svg>
