<svg width="212" height="26" viewBox="0 0 212 26" fill="none" xmlns="http://www.w3.org/2000/svg">
<path d="M25.9386 0.999969L15.6895 8.53214L17.5953 4.09318L25.9386 0.999969Z" fill="#E17726" stroke="#E17726" stroke-width="0.349318" stroke-linecap="round" stroke-linejoin="round"/>
<path d="M2.29761 0.999939L12.4555 8.60241L10.6409 4.09315L2.29761 0.999939Z" fill="#E27625" stroke="#E27625" stroke-width="0.349318" stroke-linecap="round" stroke-linejoin="round"/>
<path d="M22.2484 18.4645L19.5214 22.6022L25.3606 24.199L27.0333 18.5549L22.2484 18.4645Z" fill="#E27625" stroke="#E27625" stroke-width="0.349318" stroke-linecap="round" stroke-linejoin="round"/>
<path d="M1.21277 18.5549L2.87534 24.199L8.70447 22.6022L5.98759 18.4645L1.21277 18.5549Z" fill="#E27625" stroke="#E27625" stroke-width="0.349318" stroke-linecap="round" stroke-linejoin="round"/>
<path d="M8.39015 11.4747L6.76813 13.9051L12.5466 14.1662L12.354 7.98981L8.39015 11.4747Z" fill="#E27625" stroke="#E27625" stroke-width="0.349318" stroke-linecap="round" stroke-linejoin="round"/>
<path d="M19.8459 11.4747L15.8213 7.91949L15.6895 14.1662L21.468 13.9051L19.8459 11.4747Z" fill="#E27625" stroke="#E27625" stroke-width="0.349318" stroke-linecap="round" stroke-linejoin="round"/>
<path d="M8.70453 22.6022L12.202 20.925L9.19113 18.5951L8.70453 22.6022Z" fill="#E27625" stroke="#E27625" stroke-width="0.349318" stroke-linecap="round" stroke-linejoin="round"/>
<path d="M16.0339 20.925L19.5213 22.6022L19.0448 18.5951L16.0339 20.925Z" fill="#E27625" stroke="#E27625" stroke-width="0.349318" stroke-linecap="round" stroke-linejoin="round"/>
<path d="M19.5213 22.6023L16.034 20.9252L16.3179 23.1748L16.2874 24.1289L19.5213 22.6023Z" fill="#D5BFB2" stroke="#D5BFB2" stroke-width="0.349318" stroke-linecap="round" stroke-linejoin="round"/>
<path d="M8.70447 22.6023L11.9485 24.1288L11.9282 23.1747L12.2019 20.9251L8.70447 22.6023Z" fill="#D5BFB2" stroke="#D5BFB2" stroke-width="0.349318" stroke-linecap="round" stroke-linejoin="round"/>
<path d="M12.0095 17.1088L9.11011 16.2652L11.1579 15.3312L12.0095 17.1088Z" fill="#233447" stroke="#233447" stroke-width="0.349318" stroke-linecap="round" stroke-linejoin="round"/>
<path d="M16.2267 17.1088L17.0782 15.3312L19.1362 16.2652L16.2267 17.1088Z" fill="#233447" stroke="#233447" stroke-width="0.349318" stroke-linecap="round" stroke-linejoin="round"/>
<path d="M8.70474 22.6022L9.21162 18.4646L5.98785 18.555L8.70474 22.6022Z" fill="#CC6228" stroke="#CC6228" stroke-width="0.349318" stroke-linecap="round" stroke-linejoin="round"/>
<path d="M19.0248 18.4646L19.5216 22.6022L22.2486 18.555L19.0248 18.4646Z" fill="#CC6228" stroke="#CC6228" stroke-width="0.349318" stroke-linecap="round" stroke-linejoin="round"/>
<path d="M21.4681 13.9051L15.6896 14.1662L16.2269 17.1088L17.0785 15.3312L19.1364 16.2652L21.4681 13.9051Z" fill="#CC6228" stroke="#CC6228" stroke-width="0.349318" stroke-linecap="round" stroke-linejoin="round"/>
<path d="M9.11016 16.2652L11.158 15.3312L12.0095 17.1088L12.5468 14.1662L6.76837 13.9051L9.11016 16.2652Z" fill="#CC6228" stroke="#CC6228" stroke-width="0.349318" stroke-linecap="round" stroke-linejoin="round"/>
<path d="M6.76819 13.9051L9.19108 18.5951L9.10998 16.2652L6.76819 13.9051Z" fill="#E27525" stroke="#E27525" stroke-width="0.349318" stroke-linecap="round" stroke-linejoin="round"/>
<path d="M19.136 16.2652L19.0447 18.5951L21.4676 13.9051L19.136 16.2652Z" fill="#E27525" stroke="#E27525" stroke-width="0.349318" stroke-linecap="round" stroke-linejoin="round"/>
<path d="M12.5464 14.1662L12.0092 17.1088L12.6884 20.5836L12.8404 16.004L12.5464 14.1662Z" fill="#E27525" stroke="#E27525" stroke-width="0.349318" stroke-linecap="round" stroke-linejoin="round"/>
<path d="M15.6891 14.1662L15.4052 15.994L15.5471 20.5836L16.2264 17.1088L15.6891 14.1662Z" fill="#E27525" stroke="#E27525" stroke-width="0.349318" stroke-linecap="round" stroke-linejoin="round"/>
<path d="M16.2267 17.1088L15.5475 20.5836L16.0341 20.9251L19.045 18.5951L19.1362 16.2652L16.2267 17.1088Z" fill="#F5841F" stroke="#F5841F" stroke-width="0.349318" stroke-linecap="round" stroke-linejoin="round"/>
<path d="M9.11011 16.2652L9.19121 18.5951L12.2021 20.9251L12.6887 20.5836L12.0095 17.1088L9.11011 16.2652Z" fill="#F5841F" stroke="#F5841F" stroke-width="0.349318" stroke-linecap="round" stroke-linejoin="round"/>
<path d="M16.2874 24.1287L16.3178 23.1746L16.0542 22.9537H12.1817L11.9282 23.1746L11.9485 24.1287L8.70447 22.6022L9.83988 23.5261L12.1411 25.1029H16.0847L18.396 23.5261L19.5213 22.6022L16.2874 24.1287Z" fill="#C0AC9D" stroke="#C0AC9D" stroke-width="0.349318" stroke-linecap="round" stroke-linejoin="round"/>
<path d="M16.0342 20.9251L15.5476 20.5836H12.6888L12.2022 20.9251L11.9285 23.1747L12.1819 22.9537H16.0545L16.3181 23.1747L16.0342 20.9251Z" fill="#161616" stroke="#161616" stroke-width="0.349318" stroke-linecap="round" stroke-linejoin="round"/>
<path d="M26.3744 9.02424L27.2361 4.86648L25.9384 0.999969L16.034 8.28107L19.8457 11.4747L25.2288 13.0314L26.4149 11.6555L25.8979 11.2839L26.719 10.5407L26.0905 10.0587L26.9117 9.436L26.3744 9.02424Z" fill="#763E1A" stroke="#763E1A" stroke-width="0.349318" stroke-linecap="round" stroke-linejoin="round"/>
<path d="M1 4.86651L1.87184 9.02427L1.31427 9.43603L2.14555 10.0587L1.51702 10.5407L2.33817 11.2839L1.82115 11.6555L3.00725 13.0314L8.39032 11.4747L12.2021 8.2811L2.29761 1L1 4.86651Z" fill="#763E1A" stroke="#763E1A" stroke-width="0.349318" stroke-linecap="round" stroke-linejoin="round"/>
<path d="M25.2291 13.0313L19.846 11.4747L21.468 13.9051L19.0451 18.5951L22.2486 18.5549H27.0335L25.2291 13.0313Z" fill="#F5841F" stroke="#F5841F" stroke-width="0.349318" stroke-linecap="round" stroke-linejoin="round"/>
<path d="M8.39026 11.4747L3.00719 13.0313L1.21283 18.5549H5.98765L9.19113 18.5951L6.76824 13.9051L8.39026 11.4747Z" fill="#F5841F" stroke="#F5841F" stroke-width="0.349318" stroke-linecap="round" stroke-linejoin="round"/>
<path d="M15.6892 14.1662L16.0339 8.28106L17.5951 4.09317H10.6407L12.2019 8.28106L12.5466 14.1662L12.6783 16.0141L12.6885 20.5836H15.5473L15.5574 16.0141L15.6892 14.1662Z" fill="#F5841F" stroke="#F5841F" stroke-width="0.349318" stroke-linecap="round" stroke-linejoin="round"/>
<path d="M44.6146 19.2118C42.7978 19.2118 40.8208 18.0719 40.8208 16.077V15.703H42.6554C42.6732 16.8429 43.4747 17.5375 44.6146 17.5375C45.6476 17.5375 46.6094 17.0388 46.6094 15.8633C46.6094 14.5453 45.238 14.0287 43.8665 13.3875C42.4951 12.7285 41.1058 11.9627 41.1058 10.1637C41.1058 8.07983 42.8335 6.81524 44.8283 6.81524C46.4847 6.81524 48.3193 7.97296 48.3193 9.7897V10.0212H46.4847C46.556 9.00601 45.7545 8.48948 44.7927 8.48948C43.8309 8.48948 42.9403 8.86352 42.9403 10.0034C42.9403 10.8762 43.635 11.3393 44.3296 11.6599L45.3983 12.1586C47.0369 12.9423 48.444 13.7972 48.444 15.8455C48.444 17.965 46.6094 19.2118 44.6146 19.2118ZM58.8764 15.7386V6.97554H60.5506V19.0515H58.5558L54.2455 9.91437H54.2099V19.0515H52.5356V6.97554H54.673L58.8408 15.7386H58.8764ZM69.7719 13.9041L68.4717 8.6676H68.4361L67.1181 13.9041H69.7719ZM70.1816 15.5783H66.6906L65.8357 19.0515H63.9833L67.2784 6.97554H69.6116L72.9067 19.0515H71.0543L70.1816 15.5783ZM76.7312 19.0515V6.97554H80.8099C83.2144 6.97554 84.9065 8.06202 84.9065 10.5734C84.9065 13.0848 82.9295 14.0644 80.6853 14.0644H78.5657V19.0515H76.7312ZM78.5657 12.3901H80.7209C81.9855 12.3901 83.0719 11.9983 83.0719 10.5378C83.0719 8.95257 82.1101 8.64978 80.7387 8.64978H78.5657V12.3901ZM92.2576 19.2118C90.4409 19.2118 88.4638 18.0719 88.4638 16.077V15.703H90.2984C90.3162 16.8429 91.1177 17.5375 92.2576 17.5375C93.2907 17.5375 94.2525 17.0388 94.2525 15.8633C94.2525 14.5453 92.881 14.0287 91.5095 13.3875C90.1381 12.7285 88.7488 11.9627 88.7488 10.1637C88.7488 8.07983 90.4765 6.81524 92.4713 6.81524C94.1278 6.81524 95.9623 7.97296 95.9623 9.7897V10.0212H94.1278C94.199 9.00601 93.3975 8.48948 92.4357 8.48948C91.4739 8.48948 90.5834 8.86352 90.5834 10.0034C90.5834 10.8762 91.278 11.3393 91.9726 11.6599L93.0413 12.1586C94.6799 12.9423 96.087 13.7972 96.087 15.8455C96.087 17.965 94.2525 19.2118 92.2576 19.2118ZM106.124 19.0515V6.97554H107.264C110.862 6.97554 113.587 9.61159 113.587 13.2629C113.587 16.932 111.022 19.0515 107.495 19.0515H106.124ZM107.958 8.64978V17.3772C110.381 17.4307 111.752 15.5071 111.752 13.2272C111.752 11.0543 110.274 8.75665 107.958 8.64978ZM122.416 8.64978V17.3772H124.589V19.0515H118.409V17.3772H120.582V8.64978H118.765V6.97554H124.215V8.64978H122.416ZM131.637 14.0466V19.0515H129.803V6.97554H133.312C135.52 6.97554 137.212 8.11545 137.212 10.5021C137.212 12.0161 136.375 13.3875 134.808 13.6725L137.96 19.0515H135.859L133.098 14.0466H131.637ZM131.637 12.3723H132.991C134.469 12.3723 135.378 12.0161 135.378 10.4309C135.378 8.84571 134.273 8.64978 132.973 8.64978H131.637V12.3723ZM143.726 8.64978V11.9092H148.428V13.5835H143.726V17.3772H149.337V19.0515H141.892V6.97554H149.123V8.64978H143.726ZM161.016 9.70064H159.181C159.128 8.97038 158.451 8.48948 157.685 8.48948C155.744 8.48948 155.441 11.5352 155.441 12.9601C155.441 14.4028 155.708 17.5375 157.685 17.5375C158.451 17.5375 159.128 17.0032 159.181 16.2195H161.016C161.016 18.0184 159.466 19.2118 157.756 19.2118C154.497 19.2118 153.606 15.6852 153.606 13.0491C153.606 10.2706 154.497 6.81524 157.756 6.81524C159.466 6.81524 161.016 7.97296 161.016 9.70064ZM170.059 8.64978V19.0515H168.225V8.64978H164.965V6.97554H173.319V8.64978H170.059ZM181.061 6.81524C184.125 6.81524 185.336 10.5556 185.336 12.9957C185.336 15.6496 184.143 19.2118 181.061 19.2118C177.98 19.2118 176.787 15.6496 176.787 12.9957C176.787 10.5556 177.998 6.81524 181.061 6.81524ZM181.061 8.48948C178.924 8.48948 178.621 11.5352 178.621 13.0848C178.621 14.5987 178.96 17.5375 181.061 17.5375C183.145 17.5375 183.502 14.5987 183.502 13.0848C183.502 11.5352 183.181 8.48948 181.061 8.48948ZM191.191 14.0466V19.0515H189.357V6.97554H192.865C195.074 6.97554 196.766 8.11545 196.766 10.5021C196.766 12.0161 195.929 13.3875 194.362 13.6725L197.514 19.0515H195.412L192.652 14.0466H191.191ZM191.191 12.3723H192.545C194.023 12.3723 194.931 12.0161 194.931 10.4309C194.931 8.84571 193.827 8.64978 192.527 8.64978H191.191V12.3723ZM204.883 11.5174L207.216 6.97554H209.229L205.809 13.4054V19.0515H203.975V13.4054L200.537 6.97554H202.55L204.883 11.5174Z" fill="#161616"/>
</svg>
