<svg width="222" height="42" viewBox="0 0 222 42" fill="none" xmlns="http://www.w3.org/2000/svg">
  <path d="M195.584 21.1165C194.44 20.3665 193.179 19.8332 191.984 19.1665C191.21 18.7332 190.386 18.3498 189.713 17.7998C188.569 16.8665 188.804 15.0332 189.999 14.2332C191.715 13.0998 194.558 13.7332 194.861 16.0498C194.861 16.0998 194.911 16.1332 194.962 16.1332H197.553C197.62 16.1332 197.671 16.0832 197.654 16.0165C197.519 14.4165 196.897 13.0832 195.753 12.2332C194.659 11.4165 193.414 10.9832 192.085 10.9832C185.238 10.9832 184.615 18.1665 188.3 20.4332C188.72 20.6998 192.337 22.4998 193.616 23.2832C194.895 24.0665 195.298 25.4998 194.743 26.6332C194.239 27.6665 192.926 28.3832 191.614 28.2998C190.184 28.2165 189.074 27.4498 188.687 26.2498C188.619 26.0332 188.586 25.6165 188.586 25.4332C188.586 25.3832 188.535 25.3332 188.485 25.3332H185.675C185.625 25.3332 185.574 25.3832 185.574 25.4332C185.574 27.4498 186.079 28.5665 187.459 29.5832C188.754 30.5498 190.167 30.9498 191.631 30.9498C195.467 30.9498 197.452 28.7998 197.856 26.5665C198.209 24.3832 197.553 22.4165 195.584 21.1165Z" fill="white"/>
  <path d="M73.5943 11.35H72.3493H70.9866C70.9361 11.35 70.9025 11.3833 70.8856 11.4166L68.5808 18.95C68.5471 19.05 68.4125 19.05 68.3789 18.95L66.074 11.4166C66.0572 11.3666 66.0235 11.35 65.9731 11.35H64.6103H63.3654H61.683C61.6325 11.35 61.582 11.4 61.582 11.45V30.6833C61.582 30.7333 61.6325 30.7833 61.683 30.7833H64.4926C64.543 30.7833 64.5935 30.7333 64.5935 30.6833V16.0666C64.5935 15.95 64.7617 15.9333 64.7954 16.0333L67.1171 23.6166L67.2853 24.15C67.3021 24.2 67.3358 24.2166 67.3863 24.2166H69.5397C69.5902 24.2166 69.6238 24.1833 69.6407 24.15L69.8089 23.6166L72.1306 16.0333C72.1642 15.9166 72.3325 15.95 72.3325 16.0666V30.6833C72.3325 30.7333 72.383 30.7833 72.4334 30.7833H75.243C75.2935 30.7833 75.344 30.7333 75.344 30.6833V11.45C75.344 11.4 75.2935 11.35 75.243 11.35H73.5943Z" fill="white"/>
  <path d="M152.565 11.35C152.515 11.35 152.481 11.3833 152.465 11.4166L150.16 18.95C150.126 19.05 149.991 19.05 149.958 18.95L147.653 11.4166C147.636 11.3666 147.602 11.35 147.552 11.35H143.279C143.228 11.35 143.178 11.4 143.178 11.45V30.6833C143.178 30.7333 143.228 30.7833 143.279 30.7833H146.088C146.139 30.7833 146.189 30.7333 146.189 30.6833V16.0666C146.189 15.95 146.357 15.9333 146.391 16.0333L148.713 23.6166L148.881 24.15C148.898 24.2 148.931 24.2166 148.982 24.2166H151.135C151.186 24.2166 151.22 24.1833 151.236 24.15L151.405 23.6166L153.726 16.0333C153.76 15.9166 153.928 15.95 153.928 16.0666V30.6833C153.928 30.7333 153.979 30.7833 154.029 30.7833H156.839C156.889 30.7833 156.94 30.7333 156.94 30.6833V11.45C156.94 11.4 156.889 11.35 156.839 11.35H152.565Z" fill="white"/>
  <path d="M116.326 11.35H111.094H108.284H103.052C103.002 11.35 102.951 11.4 102.951 11.45V13.85C102.951 13.9 103.002 13.95 103.052 13.95H108.183V30.6833C108.183 30.7333 108.234 30.7833 108.284 30.7833H111.094C111.144 30.7833 111.195 30.7333 111.195 30.6833V13.95H116.326C116.377 13.95 116.427 13.9 116.427 13.85V11.45C116.427 11.4 116.393 11.35 116.326 11.35Z" fill="white"/>
  <path d="M132.899 30.7833H135.456C135.524 30.7833 135.574 30.7167 135.557 30.65L130.275 11.35C130.258 11.3 130.224 11.2833 130.174 11.2833H129.198H127.482H126.506C126.456 11.2833 126.422 11.3167 126.405 11.35L121.122 30.65C121.106 30.7167 121.156 30.7833 121.223 30.7833H123.781C123.831 30.7833 123.865 30.75 123.882 30.7167L125.412 25.1C125.429 25.05 125.463 25.0333 125.513 25.0333H131.166C131.217 25.0333 131.25 25.0667 131.267 25.1L132.798 30.7167C132.815 30.75 132.865 30.7833 132.899 30.7833ZM126.186 22.2833L128.239 14.7667C128.273 14.6667 128.407 14.6667 128.441 14.7667L130.493 22.2833C130.51 22.35 130.46 22.4167 130.392 22.4167H126.287C126.22 22.4167 126.17 22.35 126.186 22.2833Z" fill="white"/>
  <path d="M176.507 30.7833H179.064C179.131 30.7833 179.182 30.7167 179.165 30.65L173.882 11.35C173.865 11.3 173.832 11.2833 173.781 11.2833H172.805H171.089H170.113C170.063 11.2833 170.029 11.3167 170.013 11.35L164.73 30.65C164.713 30.7167 164.763 30.7833 164.831 30.7833H167.388C167.438 30.7833 167.472 30.75 167.489 30.7167L169.02 25.1C169.037 25.05 169.07 25.0333 169.121 25.0333H174.774C174.824 25.0333 174.858 25.0667 174.875 25.1L176.406 30.7167C176.422 30.75 176.456 30.7833 176.507 30.7833ZM169.794 22.2833L171.846 14.7667C171.88 14.6667 172.015 14.6667 172.048 14.7667L174.101 22.2833C174.118 22.35 174.067 22.4167 174 22.4167H169.895C169.827 22.4167 169.777 22.35 169.794 22.2833Z" fill="white"/>
  <path d="M86.7498 27.9331V21.9665C86.7498 21.9165 86.8002 21.8665 86.8507 21.8665H94.3373C94.3878 21.8665 94.4383 21.8165 94.4383 21.7665V19.3665C94.4383 19.3165 94.3878 19.2665 94.3373 19.2665H86.8507C86.8002 19.2665 86.7498 19.2165 86.7498 19.1665V14.0665C86.7498 14.0165 86.8002 13.9665 86.8507 13.9665H95.3636C95.4141 13.9665 95.4645 13.9165 95.4645 13.8665V11.4665C95.4645 11.4165 95.4141 11.3665 95.3636 11.3665H86.7498H83.8392C83.7888 11.3665 83.7383 11.4165 83.7383 11.4665V13.9665V19.2831V21.8831V28.0498V30.6831C83.7383 30.7331 83.7888 30.7831 83.8392 30.7831H86.7498H95.7169C95.7673 30.7831 95.8178 30.7331 95.8178 30.6831V28.1498C95.8178 28.0998 95.7673 28.0498 95.7169 28.0498H86.8339C86.7834 28.0331 86.7498 27.9998 86.7498 27.9331Z" fill="white"/>
  <path d="M221.258 30.6165L211.534 20.6665C211.5 20.6331 211.5 20.5665 211.534 20.5331L220.282 11.5331C220.349 11.4665 220.299 11.3665 220.215 11.3665H216.631C216.598 11.3665 216.581 11.3831 216.564 11.3998L209.145 19.0331C209.077 19.0998 208.976 19.0498 208.976 18.9665V11.4665C208.976 11.4165 208.926 11.3665 208.875 11.3665H206.066C206.015 11.3665 205.965 11.4165 205.965 11.4665V30.6998C205.965 30.7498 206.015 30.7998 206.066 30.7998H208.875C208.926 30.7998 208.976 30.7498 208.976 30.6998V22.2331C208.976 22.1498 209.094 22.0998 209.145 22.1665L217.556 30.7665C217.573 30.7831 217.607 30.7998 217.624 30.7998H221.207C221.275 30.7831 221.325 30.6665 221.258 30.6165Z" fill="white"/>
  <path d="M42.3859 1L25.377 13.5L28.5398 6.13333L42.3859 1Z" fill="#E17726" stroke="#E17726" stroke-width="0.574561" stroke-linecap="round" stroke-linejoin="round"/>
  <path d="M3.1543 1L20.0118 13.6167L17.0003 6.13333L3.1543 1Z" fill="#E27625" stroke="#E27625" stroke-width="0.574561" stroke-linecap="round" stroke-linejoin="round"/>
  <path d="M36.2639 29.9834L31.7383 36.8501L41.4288 39.5001L44.2048 30.1334L36.2639 29.9834Z" fill="#E27625" stroke="#E27625" stroke-width="0.574561" stroke-linecap="round" stroke-linejoin="round"/>
  <path d="M1.35352 30.1334L4.11263 39.5001L13.7864 36.8501L9.27756 29.9834L1.35352 30.1334Z" fill="#E27625" stroke="#E27625" stroke-width="0.574561" stroke-linecap="round" stroke-linejoin="round"/>
  <path d="M13.2641 18.3833L10.5723 22.4166L20.1619 22.85L19.8422 12.6L13.2641 18.3833Z" fill="#E27625" stroke="#E27625" stroke-width="0.574561" stroke-linecap="round" stroke-linejoin="round"/>
  <path d="M32.2747 18.3834L25.5957 12.4834L25.377 22.8501L34.9666 22.4167L32.2747 18.3834Z" fill="#E27625" stroke="#E27625" stroke-width="0.574561" stroke-linecap="round" stroke-linejoin="round"/>
  <path d="M13.7871 36.8501L19.5913 34.0667L14.5947 30.2001L13.7871 36.8501Z" fill="#E27625" stroke="#E27625" stroke-width="0.574561" stroke-linecap="round" stroke-linejoin="round"/>
  <path d="M25.9492 34.0667L31.7366 36.8501L30.9459 30.2001L25.9492 34.0667Z" fill="#E27625" stroke="#E27625" stroke-width="0.574561" stroke-linecap="round" stroke-linejoin="round"/>
  <path d="M31.7366 36.85L25.9492 34.0667L26.4203 37.8L26.3698 39.3833L31.7366 36.85Z" fill="#D5BFB2" stroke="#D5BFB2" stroke-width="0.574561" stroke-linecap="round" stroke-linejoin="round"/>
  <path d="M13.7852 36.8501L19.1688 39.3834L19.1351 37.8001L19.5894 34.0668L13.7852 36.8501Z" fill="#D5BFB2" stroke="#D5BFB2" stroke-width="0.574561" stroke-linecap="round" stroke-linejoin="round"/>
  <path d="M19.2706 27.7333L14.459 26.3333L17.8574 24.7833L19.2706 27.7333Z" fill="#233447" stroke="#233447" stroke-width="0.574561" stroke-linecap="round" stroke-linejoin="round"/>
  <path d="M26.2695 27.7333L27.6827 24.7833L31.098 26.3333L26.2695 27.7333Z" fill="#233447" stroke="#233447" stroke-width="0.574561" stroke-linecap="round" stroke-linejoin="round"/>
  <path d="M13.7861 36.8502L14.6273 29.9835L9.27734 30.1335L13.7861 36.8502Z" fill="#CC6228" stroke="#CC6228" stroke-width="0.574561" stroke-linecap="round" stroke-linejoin="round"/>
  <path d="M30.9121 29.9835L31.7365 36.8502L36.2621 30.1335L30.9121 29.9835Z" fill="#CC6228" stroke="#CC6228" stroke-width="0.574561" stroke-linecap="round" stroke-linejoin="round"/>
  <path d="M34.9666 22.417L25.377 22.8503L26.2686 27.7337L27.6818 24.7837L31.0971 26.3337L34.9666 22.417Z" fill="#CC6228" stroke="#CC6228" stroke-width="0.574561" stroke-linecap="round" stroke-linejoin="round"/>
  <path d="M14.4586 26.3337L17.857 24.7837L19.2702 27.7337L20.1619 22.8503L10.5723 22.417L14.4586 26.3337Z" fill="#CC6228" stroke="#CC6228" stroke-width="0.574561" stroke-linecap="round" stroke-linejoin="round"/>
  <path d="M10.5723 22.4169L14.5932 30.2002L14.4586 26.3335L10.5723 22.4169Z" fill="#E27525" stroke="#E27525" stroke-width="0.574561" stroke-linecap="round" stroke-linejoin="round"/>
  <path d="M31.0967 26.3337L30.9453 30.2003L34.9662 22.417L31.0967 26.3337Z" fill="#E27525" stroke="#E27525" stroke-width="0.574561" stroke-linecap="round" stroke-linejoin="round"/>
  <path d="M20.1612 22.8503L19.2695 27.7337L20.3967 33.5003L20.6491 25.9003L20.1612 22.8503Z" fill="#E27525" stroke="#E27525" stroke-width="0.574561" stroke-linecap="round" stroke-linejoin="round"/>
  <path d="M25.3773 22.8503L24.9062 25.8837L25.1418 33.5003L26.269 27.7337L25.3773 22.8503Z" fill="#E27525" stroke="#E27525" stroke-width="0.574561" stroke-linecap="round" stroke-linejoin="round"/>
  <path d="M26.2698 27.7333L25.1426 33.4999L25.9501 34.0666L30.9468 30.1999L31.0982 26.3333L26.2698 27.7333Z" fill="#F5841F" stroke="#F5841F" stroke-width="0.574561" stroke-linecap="round" stroke-linejoin="round"/>
  <path d="M14.459 26.3333L14.5936 30.1999L19.5903 34.0666L20.3978 33.4999L19.2706 27.7333L14.459 26.3333Z" fill="#F5841F" stroke="#F5841F" stroke-width="0.574561" stroke-linecap="round" stroke-linejoin="round"/>
  <path d="M26.3694 39.3833L26.4199 37.8L25.9825 37.4333H19.5557L19.1351 37.8L19.1688 39.3833L13.7852 36.85L15.6694 38.3833L19.4884 41H26.0329L29.8688 38.3833L31.7362 36.85L26.3694 39.3833Z" fill="#C0AC9D" stroke="#C0AC9D" stroke-width="0.574561" stroke-linecap="round" stroke-linejoin="round"/>
  <path d="M25.9504 34.0667L25.1428 33.5H20.3985L19.591 34.0667L19.1367 37.8L19.5573 37.4333H25.984L26.4215 37.8L25.9504 34.0667Z" fill="#161616" stroke="#161616" stroke-width="0.574561" stroke-linecap="round" stroke-linejoin="round"/>
  <path d="M43.1096 14.3167L44.5396 7.41667L42.3861 1L25.9492 13.0833L32.275 18.3833L41.2085 20.9667L43.1769 18.6833L42.3188 18.0667L43.6816 16.8333L42.6385 16.0333L44.0012 15L43.1096 14.3167Z" fill="#763E1A" stroke="#763E1A" stroke-width="0.574561" stroke-linecap="round" stroke-linejoin="round"/>
  <path d="M1 7.41667L2.44685 14.3167L1.52154 15L2.9011 16.0333L1.85802 16.8333L3.22075 18.0667L2.36273 18.6833L4.33113 20.9667L13.2646 18.3833L19.5904 13.0833L3.15346 1L1 7.41667Z" fill="#763E1A" stroke="#763E1A" stroke-width="0.574561" stroke-linecap="round" stroke-linejoin="round"/>
  <path d="M41.2098 20.9668L32.2764 18.3834L34.9682 22.4168L30.9473 30.2001L36.2636 30.1334H44.2045L41.2098 20.9668Z" fill="#F5841F" stroke="#F5841F" stroke-width="0.574561" stroke-linecap="round" stroke-linejoin="round"/>
  <path d="M13.2648 18.3834L4.33134 20.9668L1.35352 30.1334H9.27756L14.5939 30.2001L10.573 22.4168L13.2648 18.3834Z" fill="#F5841F" stroke="#F5841F" stroke-width="0.574561" stroke-linecap="round" stroke-linejoin="round"/>
  <path d="M25.3783 22.85L25.9503 13.0833L28.5412 6.1333H17L19.5909 13.0833L20.1629 22.85L20.3816 25.9166L20.3984 33.5H25.1428L25.1596 25.9166L25.3783 22.85Z" fill="#F5841F" stroke="#F5841F" stroke-width="0.574561" stroke-linecap="round" stroke-linejoin="round"/>
</svg>
