<svg width="32" height="32" viewBox="0 0 32 32" fill="none" xmlns="http://www.w3.org/2000/svg">
  <rect width="32" height="32" rx="16" fill="#037DD6" fill-opacity="0.1"/>
  <path d="M23.6413 8.56691L23.6413 8.56694L23.6456 8.57178C24.1085 9.08526 24.389 9.76312 24.389 10.4973C24.389 10.7261 24.3605 10.9451 24.3043 11.1558L24.3017 11.1653L24.2996 11.1749C24.2356 11.4594 24.1212 11.7379 23.9726 11.9785L23.9725 11.9785L23.9678 11.9863C23.7892 12.2878 23.555 12.5541 23.2796 12.7697L23.1435 12.8663C22.9265 13.0203 22.6767 13.1426 22.4067 13.2302L22.3993 13.2326L22.392 13.2352C22.3801 13.2395 22.3682 13.2436 22.3562 13.2477C22.2971 13.2676 22.2326 13.2852 22.1518 13.3054L22.0619 13.3279C21.8841 13.3647 21.6973 13.3836 21.5027 13.3836C20.7601 13.3836 20.0921 13.1032 19.5883 12.6426L19.5884 12.6425L19.5784 12.6338C19.3643 12.4483 19.1795 12.2275 19.0385 11.9877L19.0386 11.9877L19.0331 11.9788C18.768 11.5488 18.6165 11.0385 18.6165 10.4973C18.6165 10.1789 18.667 9.87558 18.7612 9.58552C18.806 9.44911 18.8607 9.31724 18.9248 9.19067C18.9837 9.07655 19.0511 8.96818 19.1276 8.86509L19.3246 8.59959C19.3589 8.56043 19.3943 8.52215 19.4308 8.48479L19.4314 8.48417C19.9583 7.94279 20.6939 7.61108 21.5027 7.61108C22.3562 7.61108 23.1256 7.97961 23.6413 8.56691ZM22.9174 14.1109C23.0023 14.0786 23.0858 14.0432 23.1676 14.0049C23.413 14.7668 23.5424 15.5811 23.5424 16.4233C23.5424 18.731 22.5484 20.8093 20.9611 22.269L20.6928 22.5157C20.6405 22.5569 20.5917 22.6004 20.5773 22.6132C20.5749 22.6153 20.5735 22.6166 20.5731 22.6169C20.4357 22.7314 20.2874 22.841 20.1239 22.9554L20.1239 22.9554L20.1201 22.9582C20.0732 22.9917 20.0491 23.01 20.0336 23.0218C20.0163 23.035 20.0094 23.0402 19.9933 23.0495L19.9809 23.0566L19.9689 23.0643C19.8655 23.1315 19.7704 23.1869 19.6647 23.2486C19.6073 23.282 19.5469 23.3172 19.4803 23.3571C19.4493 23.375 19.4168 23.3954 19.3945 23.4094C19.3889 23.4129 19.3839 23.416 19.3798 23.4185C19.3523 23.4356 19.3363 23.4448 19.3236 23.4512L19.3235 23.4511L19.3152 23.4555C19.1484 23.5428 18.9823 23.6219 18.8169 23.6928L18.8034 23.6986L18.7902 23.7051C18.7178 23.7414 18.6739 23.7628 18.6351 23.7773L18.6243 23.7814L18.6137 23.7859C18.5111 23.8299 18.4147 23.8629 18.3015 23.9016C18.2412 23.9222 18.1763 23.9444 18.1031 23.9708C18.0176 23.994 17.9379 24.0239 17.8815 24.0451L17.8791 24.046C17.7632 24.0859 17.6478 24.1132 17.5084 24.1462C17.4565 24.1585 17.4014 24.1715 17.3416 24.1863C17.2852 24.1956 17.2381 24.2086 17.2124 24.2157L17.21 24.2164C17.1912 24.2216 17.1842 24.2235 17.1773 24.2252C17.1772 24.2253 17.177 24.2253 17.1768 24.2254L17.1652 24.227L17.1482 24.2306C16.9335 24.2767 16.7151 24.3081 16.482 24.3323L16.4466 24.3359L16.4122 24.3445L16.401 24.3473L16.3866 24.3486C16.1176 24.373 15.8455 24.3889 15.5768 24.3889C15.3203 24.3889 15.0605 24.3744 14.7951 24.3518C14.7596 24.3437 14.7061 24.3335 14.6464 24.3305C14.4196 24.3066 14.2065 24.2756 13.9969 24.2306L13.9757 24.2261L13.9542 24.2234C13.9301 24.2204 13.9059 24.2144 13.8433 24.1965L13.8353 24.1942L13.8272 24.1922C13.6225 24.141 13.4287 24.0925 13.2364 24.0364L13.2271 24.0337L13.2177 24.0313C13.1824 24.0225 13.1417 24.0078 13.0688 23.9805L13.0569 23.976L13.0448 23.9722C12.8717 23.9171 12.698 23.854 12.5238 23.7827L12.517 23.7799L12.5101 23.7773C12.4713 23.7628 12.4274 23.7414 12.3549 23.7051L12.3381 23.6967L12.3206 23.6896C12.1527 23.6209 11.9935 23.5451 11.8427 23.4623C11.8194 23.449 11.7934 23.4334 11.7621 23.4146L11.7598 23.4132C11.7296 23.3951 11.694 23.3738 11.6598 23.3542L11.6519 23.3497L11.6437 23.3454C11.4843 23.2619 11.3331 23.1712 11.1901 23.0736C11.1591 23.0516 11.1305 23.0318 11.1048 23.0139L11.1037 23.0132C11.077 22.9947 11.0531 22.9782 11.028 22.9603C10.9867 22.9298 10.9469 22.9009 10.9085 22.8729C10.7856 22.7833 10.6759 22.7034 10.572 22.6169L10.5515 22.5998L10.5293 22.585C10.5293 22.585 10.5241 22.5815 10.5068 22.5665L10.4746 22.5384C10.4636 22.5286 10.4501 22.5169 10.4353 22.5044C10.4053 22.4778 10.3739 22.4519 10.3456 22.4291V22.4183L10.185 22.2698C8.6054 20.8099 7.61121 18.7312 7.61121 16.4233C7.61121 12.0348 11.1884 8.45764 15.5768 8.45764C16.4162 8.45764 17.2278 8.58625 17.9875 8.83002C17.9481 8.9126 17.912 8.99666 17.8791 9.08216C17.1512 8.85207 16.3757 8.72749 15.5768 8.72749C11.3303 8.72749 7.88105 12.1767 7.88105 16.4233C7.88105 18.5251 8.73314 20.4358 10.1077 21.8285L10.5001 22.226L10.852 21.7921C11.0765 21.5152 11.3438 21.2631 11.67 21.0481L11.6722 21.0467C12.7289 20.3422 14.1444 19.9751 15.5832 19.9751C17.0221 19.9751 18.4325 20.3422 19.4801 21.0457L19.4801 21.0458L19.4837 21.0481C19.8141 21.2659 20.0865 21.5177 20.2965 21.7857L20.6469 22.2327L21.0459 21.8285C22.4205 20.4358 23.2726 18.5251 23.2726 16.4233C23.2726 15.6171 23.1479 14.8398 22.9174 14.1109ZM22.6377 9.34548V9.24442C22.6377 8.62118 22.126 8.1095 21.5027 8.1095C20.8795 8.1095 20.3678 8.62119 20.3678 9.24442V9.34548H20.2414C19.6181 9.34548 19.1064 9.85716 19.1064 10.4804C19.1064 11.1036 19.6181 11.6153 20.2414 11.6153H20.3678V11.7756C20.3678 12.3989 20.8795 12.9106 21.5027 12.9106C22.126 12.9106 22.6377 12.3989 22.6377 11.7756V11.6153H22.7641C23.4001 11.6153 23.899 11.0993 23.899 10.4804C23.899 9.85716 23.3873 9.34548 22.7641 9.34548H22.6377ZM12.9022 15.3059C12.9022 13.8297 14.1006 12.6313 15.5768 12.6313C17.0527 12.6313 18.2508 13.8291 18.2514 15.3048C18.2436 16.7526 17.1141 17.918 15.6778 17.9721H15.6778H15.6777H15.6777H15.6777H15.6776H15.6776H15.6775H15.6775H15.6774H15.6774H15.6773H15.6773H15.6773H15.6772H15.6772H15.6771H15.6771H15.677H15.677H15.6769H15.6769H15.6768H15.6768H15.6768H15.6767H15.6767H15.6766H15.6766H15.6765H15.6765H15.6764H15.6764H15.6763H15.6763H15.6762H15.6762H15.6762H15.6761H15.6761H15.676H15.676H15.6759H15.6759H15.6758H15.6758H15.6757H15.6757H15.6756H15.6756H15.6755H15.6755H15.6755H15.6754H15.6754H15.6753H15.6753H15.6752H15.6752H15.6751H15.6751H15.675H15.675H15.6749H15.6749H15.6748H15.6748H15.6747H15.6747H15.6746H15.6746H15.6745H15.6745H15.6744H15.6744H15.6744H15.6743H15.6743H15.6742H15.6742H15.6741H15.6741H15.674H15.674H15.6739H15.6739H15.6738H15.6738H15.6737H15.6737H15.6736H15.6736H15.6735H15.6735H15.6734H15.6734H15.6733H15.6733H15.6732H15.6732H15.6731H15.6731H15.673H15.673H15.6729H15.6729H15.6728H15.6728H15.6728H15.6727H15.6727H15.6726H15.6726H15.6725H15.6725H15.6724H15.6724H15.6723H15.6723H15.6722H15.6722H15.6721H15.6721H15.672H15.672H15.6719H15.6719H15.6718H15.6718H15.6717H15.6717H15.6716H15.6716H15.6715H15.6715H15.6714H15.6714H15.6713H15.6713H15.6712H15.6712H15.6711H15.6711H15.671H15.671H15.6709H15.6709H15.6708H15.6708H15.6707H15.6707H15.6706H15.6706H15.6705H15.6705H15.6704H15.6704H15.6703H15.6703H15.6702H15.6702H15.6701H15.6701H15.67H15.67H15.6699H15.6698H15.6697H15.6696H15.6695H15.6694H15.6693H15.6692H15.6691H15.669H15.6689H15.6688H15.6687H15.6686H15.6685H15.6684H15.6683H15.6682H15.6681H15.668H15.6679H15.6678H15.6677H15.6676H15.6675H15.6674H15.6673H15.6672H15.6671H15.667H15.6669H15.6668H15.6667H15.6666H15.6665H15.6664H15.6662H15.6661H15.666H15.6659H15.6658H15.6657H15.6656H15.6655H15.6654H15.6653H15.6652H15.6651H15.665H15.6649H15.6647H15.6646H15.6645H15.6644H15.6643H15.6642H15.6641H15.664H15.6639H15.6638H15.6637H15.6636H15.6634H15.6633H15.6632H15.6631H15.663H15.6629H15.6628H15.6627H15.6626H15.6624H15.6623H15.6622H15.6621H15.662H15.6619H15.6618H15.6617H15.6616H15.6614H15.6613H15.6612H15.6611H15.661H15.6609H15.6608H15.6607H15.6605H15.6604H15.6603H15.6602H15.6601H15.66H15.6599H15.6597H15.6596H15.6595H15.6594H15.6593H15.6592H15.6591H15.6589H15.6588H15.6587H15.6586H15.6585H15.6584H15.6583H15.6581H15.658H15.6579H15.6578H15.6577H15.6576H15.6574H15.6573H15.6572H15.6571H15.657H15.6569H15.6567H15.6566H15.6565H15.6564H15.6563H15.6561H15.656H15.6559H15.6558H15.6557H15.6556H15.6554H15.6553H15.6552H15.6551H15.655H15.6549H15.6547H15.6546H15.6545H15.6544H15.6543H15.6541H15.654H15.6539H15.6538H15.6537H15.6535H15.6534H15.6533H15.6532H15.6531H15.6529H15.6528H15.6527H15.6526H15.6525H15.6523H15.6522H15.6521H15.652H15.6519H15.6517H15.6516H15.6515H15.6514H15.6513H15.6511H15.651H15.6509H15.6508H15.6506H15.6505H15.6504H15.6503H15.6502H15.65H15.6499H15.6498H15.6497H15.6496H15.6494H15.6493H15.6492H15.6491H15.6489H15.6488H15.6487H15.6486H15.6485H15.6483H15.6482H15.6481H15.648H15.6478H15.6477H15.6476H15.6475H15.6474H15.6472H15.6471H15.647H15.6469H15.6467H15.6466H15.6465H15.6464H15.6462H15.6461H15.646H15.6459H15.6458H15.6456H15.6455H15.6454H15.6453H15.6451H15.645H15.6449H15.6448H15.6446H15.6445H15.6444H15.6443H15.6441H15.644H15.6439H15.6438H15.6437H15.6435H15.6434H15.6433H15.6432H15.643H15.6429H15.6428H15.6427H15.6425H15.6424H15.6423H15.6422H15.642H15.6419H15.6418H15.6417H15.6415H15.6414H15.6413H15.6412H15.6411H15.6409H15.6408H15.6407H15.6406H15.6404H15.6403H15.6402H15.6401H15.6399H15.6398H15.6397H15.6396H15.6394H15.6393H15.6392H15.6391H15.6389H15.6388H15.6387H15.6386H15.6384H15.6383H15.6382H15.6381H15.638H15.6378H15.6377H15.6376H15.6375H15.6373H15.6372H15.6371H15.637H15.6368H15.6367H15.6366H15.6365H15.6363H15.6362H15.6361H15.636H15.6358H15.6357H15.6356H15.6355H15.6354H15.6352H15.6351H15.635H15.6349H15.6347H15.6346H15.6345H15.6344H15.6342H15.6341H15.634H15.6339H15.6338H15.6336H15.6335H15.6334H15.6333H15.6331H15.633H15.6329H15.6328H15.6326H15.6325H15.6324H15.6323H15.6322H15.632H15.6319H15.6318H15.6317H15.6315H15.6314H15.6313H15.6312H15.6311H15.6309H15.6308H15.6307H15.6306H15.6305H15.6303H15.6302H15.6301H15.63H15.6298H15.6297H15.6296H15.6295H15.6294H15.6292H15.6291H15.629H15.6289H15.6288H15.6286H15.6285H15.6284H15.6283H15.6282H15.628H15.6279H15.6278H15.6277H15.6276H15.6274H15.6273H15.6272H15.6271H15.627H15.6268H15.6267H15.6266H15.6265H15.6264H15.6262H15.6261H15.626H15.6259H15.6258H15.6256H15.6255H15.6254H15.6253H15.6252H15.6251H15.6249H15.6248H15.6247H15.6246H15.6245H15.6243H15.6242H15.6241H15.624H15.6239H15.6238H15.6236H15.6235H15.6234H15.6233H15.6232H15.6231H15.6229H15.6228H15.6227H15.6226H15.6225H15.6224H15.6222H15.6221H15.622H15.6219H15.6218H15.6217H15.6216H15.6214H15.6213H15.6212H15.6211H15.621H15.6209H15.6208H15.6206H15.6205H15.6204H15.6203H15.6202H15.6201H15.62H15.6198H15.6197H15.6196H15.6195H15.6194H15.6193H15.6192H15.6191H15.6189H15.6188H15.6187H15.6186H15.6185H15.6184H15.6183H15.6182H15.6181H15.6179H15.6178H15.6177H15.6176H15.6175H15.6174H15.6173H15.6172H15.6171H15.617H15.6168H15.6167H15.6166H15.6165H15.6164H15.6163H15.6162H15.6161H15.616H15.6159H15.6158H15.6156H15.6155H15.6154H15.6153H15.6152H15.6151H15.615H15.6149H15.6148H15.6147H15.6146H15.6145H15.6144H15.6143H15.6142H15.6141H15.6139H15.6138H15.6137H15.6136H15.6135H15.6134H15.6133H15.6132H15.6131H15.613H15.6129H15.6128H15.6127H15.6126H15.6125H15.6124H15.6123H15.6122H15.6121H15.612H15.6119H15.6118H15.6117H15.6116H15.6115H15.6114H15.6113H15.6112H15.6111H15.611H15.6109H15.6108H15.6107H15.6106H15.6105H15.6104H15.6103H15.6102H15.6101H15.61H15.6099H15.6098H15.6097H15.6096H15.6095H15.6094H15.6093H15.6091H15.609H15.6089H15.6088H15.6087H15.6086H15.6085H15.6084H15.6083H15.6082H15.6081H15.608H15.6079H15.6078H15.6076H15.6075H15.6074H15.6073H15.6072H15.6071H15.607H15.6069H15.6068H15.6066H15.6065H15.6064H15.6063H15.6062H15.6061H15.606H15.6058H15.6057H15.6056H15.6055H15.6054H15.6053H15.6051H15.605H15.6049H15.6048H15.6047H15.6045H15.6044H15.6043H15.6042H15.6041H15.6039H15.6038H15.6037H15.6036H15.6035H15.6033H15.6032H15.6031H15.603H15.6028H15.6027H15.6026H15.6025H15.6024H15.6022H15.6021H15.602H15.6018H15.6017H15.6016H15.6015H15.6013H15.6012H15.6011H15.601H15.6008H15.6007H15.6006H15.6004H15.6003H15.6002H15.6001H15.5999H15.5998H15.5997H15.5995H15.5994H15.5993H15.5991H15.599H15.5989H15.5987H15.5986H15.5985H15.5983H15.5982H15.5981H15.5979H15.5978H15.5977H15.5975H15.5974H15.5973H15.5971H15.597H15.5969H15.5967H15.5966H15.5964H15.5963H15.5962H15.596H15.5959H15.5958H15.5956H15.5955H15.5953H15.5952H15.5951H15.5949H15.5948H15.5946H15.5945H15.5944H15.5942H15.5941H15.5939H15.5938H15.5937H15.5935H15.5934H15.5932H15.5931H15.5929H15.5928H15.5927H15.5925H15.5924H15.5922H15.5921H15.5919H15.5918H15.5916H15.5915H15.5913H15.5912H15.5911H15.5909H15.5908H15.5906H15.5905H15.5903H15.5902H15.59H15.5899H15.5897H15.5896H15.5894H15.5893H15.5891H15.589H15.5888H15.5887H15.5885H15.5884H15.5882H15.5881H15.5879H15.5878H15.5876H15.5875H15.5873H15.5872H15.587H15.5869H15.5867H15.5866H15.5864H15.5863H15.5861H15.586H15.5858H15.5857H15.5855H15.5854H15.5852H15.5851H15.5849H15.5848H15.5846H15.5844H15.5843H15.5841H15.584H15.5838H15.5837H15.5835H15.5834H15.5832H15.5831H15.5829H15.5827H15.5826H15.5824H15.5823H15.5821H15.582H15.5818H15.5816H15.5815H15.5813H15.5812H15.581H15.5809H15.5807H15.5805H15.5804H15.5802H15.5801H15.5799H15.5798H15.5796H15.5794H15.5793H15.5791H15.579H15.5788H15.5786H15.5785H15.5783H15.5782H15.578H15.5778H15.5777H15.5775H15.5774H15.5772H15.577H15.5769H15.5767H15.5766H15.5764H15.5762H15.5761H15.5759H15.5758H15.5756H15.5754H15.5753H15.5751H15.5749H15.5748H15.5746H15.5745H15.5743H15.5741H15.574H15.5738H15.5737H15.5735H15.5733H15.5732H15.573H15.5728H15.5727H15.5725H15.5724H15.5722H15.572H15.5719H15.5717H15.5715H15.5714H15.5712H15.571H15.5709H15.5707H15.5706H15.5704H15.5702H15.5701H15.5699H15.5697H15.5696H15.5694H15.5692H15.5691H15.5689H15.5687H15.5686H15.5684H15.5683H15.5681H15.5679H15.5678H15.5676H15.5674H15.5673H15.5671H15.5669H15.5668H15.5666H15.5664H15.5663H15.5661H15.5659H15.5658H15.5656H15.5655H15.5653H15.5651H15.565H15.5648H15.5646H15.5645H15.5643H15.5641H15.564H15.5638H15.5636H15.5635H15.5633H15.5631H15.563H15.5628H15.5626H15.5625H15.5623H15.5622H15.562H15.5618H15.5617H15.5615H15.5613H15.5612H15.561H15.5608H15.5607H15.5605H15.5603H15.5602H15.56H15.5598H15.5597H15.5595H15.5593H15.5592H15.559H15.5588H15.5587H15.5585H15.5583H15.5582H15.558H15.5579H15.5577H15.5575H15.5574H15.5572H15.557H15.5569H15.5567H15.5565H15.5564H15.5562H15.556H15.5559H15.5557H15.5555H15.5554H15.5552H15.5551H15.5549H15.5547H15.5546H15.5544H15.5542H15.5541H15.5539H15.5537H15.5536H15.5534H15.5532H15.5531H15.5529H15.5528H15.5526H15.5524H15.5523H15.5521H15.5519H15.5518H15.5516H15.5514H15.5513H15.5511H15.551H15.5508H15.5506H15.5505H15.5503H15.5501H15.55H15.5498H15.5497H15.5495H15.5493H15.5492H15.549H15.5488H15.5487H15.5485H15.5484H15.5482H15.548H15.5479H15.5477H15.5476H15.5474H15.5472H15.5471H15.5469H15.5468H15.5466H15.5464H15.5463H15.5461H15.546H15.5458H15.5456H15.5455H15.5453H15.5452H15.545H15.5448H15.5447H15.5445H15.5444H15.5442H15.544H15.5439H15.5437H15.5436H15.5434H15.5432H15.5431H15.5429H15.5428H15.5426H15.5425H15.5423H15.5421H15.542H15.5419C14.0251 17.9255 12.9022 16.7472 12.9022 15.3059Z" fill="#0376C9" stroke="#0376C9"/>
</svg>
