<svg width="13" height="12" viewBox="0 0 13 12" fill="none" xmlns="http://www.w3.org/2000/svg">
  <mask id="path-1-inside-1_4083_7526" fill="white">
    <path fill-rule="evenodd" clip-rule="evenodd" d="M12.4485 7.54245C11.8228 7.85312 11.1176 8.02778 10.3715 8.02778C7.78844 8.02778 5.69443 5.93377 5.69443 3.35068C5.69443 2.04469 6.22971 0.863722 7.09284 0.0151963C6.94627 0.00447717 6.79823 -0.000976562 6.64893 -0.000976562C3.33522 -0.000976562 0.648926 2.68532 0.648926 5.99902C0.648926 9.31273 3.33522 11.999 6.64893 11.999C9.42902 11.999 11.7675 10.1082 12.4485 7.54245Z"/>
  </mask>
  <path d="M12.4485 7.54245L14.1883 8.00424L15.2079 4.16295L11.6481 5.9302L12.4485 7.54245ZM7.09284 0.0151963L8.35473 1.2988L11.1914 -1.48988L7.22413 -1.78001L7.09284 0.0151963ZM11.6481 5.9302C11.2656 6.12014 10.8337 6.22778 10.3715 6.22778V9.82778C11.4014 9.82778 12.38 9.58609 13.2489 9.15471L11.6481 5.9302ZM10.3715 6.22778C8.78255 6.22778 7.49443 4.93966 7.49443 3.35068H3.89443C3.89443 6.92788 6.79433 9.82778 10.3715 9.82778V6.22778ZM7.49443 3.35068C7.49443 2.54691 7.82166 1.82285 8.35473 1.2988L5.83096 -1.26841C4.63776 -0.095402 3.89443 1.54247 3.89443 3.35068H7.49443ZM6.64893 1.79902C6.75439 1.79902 6.85863 1.80288 6.96156 1.8104L7.22413 -1.78001C7.03391 -1.79392 6.84208 -1.80098 6.64893 -1.80098V1.79902ZM2.44893 5.99902C2.44893 3.67943 4.32933 1.79902 6.64893 1.79902V-1.80098C2.3411 -1.80098 -1.15107 1.6912 -1.15107 5.99902H2.44893ZM6.64893 10.199C4.32933 10.199 2.44893 8.31862 2.44893 5.99902H-1.15107C-1.15107 10.3068 2.3411 13.799 6.64893 13.799V10.199ZM10.7088 7.08066C10.2319 8.87727 8.59248 10.199 6.64893 10.199V13.799C10.2656 13.799 13.3031 11.3392 14.1883 8.00424L10.7088 7.08066Z" fill="currentColor" mask="url(#path-1-inside-1_4083_7526)"/>
</svg>
