<svg width="24" height="24" viewBox="0 0 24 24" fill="none" xmlns="http://www.w3.org/2000/svg">
<path d="M16 3H8C4.5 3 3 4.8 3 7.5V16.5C3 19.2 4.5 21 8 21H16C19.5 21 21 19.2 21 16.5V7.5C21 4.8 19.5 3 16 3ZM10.53 16.023C10.82 16.284 10.82 16.716 10.53 16.977C10.38 17.112 10.19 17.175 10 17.175C9.81 17.175 9.62 17.112 9.47 16.977L7.47 15.177C7.18 14.916 7.18 14.484 7.47 14.223L9.47 12.423C9.76 12.162 10.24 12.162 10.53 12.423C10.82 12.684 10.82 13.116 10.53 13.377L9.06 14.7L10.53 16.023ZM16.53 15.177L14.53 16.977C14.38 17.112 14.19 17.175 14 17.175C13.81 17.175 13.62 17.112 13.47 16.977C13.18 16.716 13.18 16.284 13.47 16.023L14.94 14.7L13.47 13.377C13.18 13.116 13.18 12.684 13.47 12.423C13.76 12.162 14.24 12.162 14.53 12.423L16.53 14.223C16.82 14.484 16.82 14.916 16.53 15.177ZM18.5 9.525H16.5C14.98 9.525 13.75 8.418 13.75 7.05V5.25C13.75 4.881 14.09 4.575 14.5 4.575C14.91 4.575 15.25 4.881 15.25 5.25V7.05C15.25 7.671 15.81 8.175 16.5 8.175H18.5C18.91 8.175 19.25 8.481 19.25 8.85C19.25 9.219 18.91 9.525 18.5 9.525Z" fill="#037DD6"/>
</svg>
