<svg width="21" height="20" viewBox="0 0 21 20" fill="#0376C9"
     xmlns="http://www.w3.org/2000/svg">
    <mask id="path-1-inside-1_21_7763" fill="white">
        <path d="M12.2522 17.5H8.21996C4.42963 17.5 2.73608 15.8065 2.73608 12.0161V7.98387C2.73608 4.19355 4.42963 2.5 8.21996 2.5H9.59092C10.0748 2.5 10.3974 2.82258 10.3974 3.30645C10.3974 3.79032 10.0748 4.1129 9.59092 4.1129H8.21996C5.31673 4.1129 4.34899 5.08065 4.34899 7.98387V12.0161C4.34899 14.9194 5.31673 15.8871 8.21996 15.8871H12.2522C15.1554 15.8871 16.1232 14.9194 16.1232 12.0161V10.6452C16.1232 10.1613 16.4458 9.83871 16.9296 9.83871C17.4135 9.83871 17.7361 10.1613 17.7361 10.6452V12.0161C17.7361 15.8065 16.0425 17.5 12.2522 17.5ZM10.8812 10.1613C10.6393 10.1613 10.478 10.0806 10.3167 9.91936C9.99415 9.59678 9.99415 9.1129 10.3167 8.79032L14.9941 4.1129H13.7038C13.22 4.1129 12.8974 3.79032 12.8974 3.30645C12.8974 2.82258 13.22 2.5 13.7038 2.5H16.9296C17.4135 2.5 17.7361 2.82258 17.7361 3.30645V6.53226C17.7361 7.01613 17.4135 7.33871 16.9296 7.33871C16.4458 7.33871 16.1232 7.01613 16.1232 6.53226V5.24194L11.4458 9.91936C11.2845 10.0806 11.1232 10.1613 10.8812 10.1613Z"/>
    </mask>
    <path d="M12.2522 17.5H8.21996C4.42963 17.5 2.73608 15.8065 2.73608 12.0161V7.98387C2.73608 4.19355 4.42963 2.5 8.21996 2.5H9.59092C10.0748 2.5 10.3974 2.82258 10.3974 3.30645C10.3974 3.79032 10.0748 4.1129 9.59092 4.1129H8.21996C5.31673 4.1129 4.34899 5.08065 4.34899 7.98387V12.0161C4.34899 14.9194 5.31673 15.8871 8.21996 15.8871H12.2522C15.1554 15.8871 16.1232 14.9194 16.1232 12.0161V10.6452C16.1232 10.1613 16.4458 9.83871 16.9296 9.83871C17.4135 9.83871 17.7361 10.1613 17.7361 10.6452V12.0161C17.7361 15.8065 16.0425 17.5 12.2522 17.5ZM10.8812 10.1613C10.6393 10.1613 10.478 10.0806 10.3167 9.91936C9.99415 9.59678 9.99415 9.1129 10.3167 8.79032L14.9941 4.1129H13.7038C13.22 4.1129 12.8974 3.79032 12.8974 3.30645C12.8974 2.82258 13.22 2.5 13.7038 2.5H16.9296C17.4135 2.5 17.7361 2.82258 17.7361 3.30645V6.53226C17.7361 7.01613 17.4135 7.33871 16.9296 7.33871C16.4458 7.33871 16.1232 7.01613 16.1232 6.53226V5.24194L11.4458 9.91936C11.2845 10.0806 11.1232 10.1613 10.8812 10.1613Z"/>
    <path d="M10.3167 8.79032L11.7309 10.2045L11.7309 10.2045L10.3167 8.79032ZM14.9941 4.1129L16.4084 5.52712L19.8226 2.1129H14.9941V4.1129ZM16.1232 5.24194H18.1232V0.413507L14.709 3.82772L16.1232 5.24194ZM11.4458 9.91936L12.86 11.3336V11.3336L11.4458 9.91936ZM12.2522 15.5H8.21996V19.5H12.2522V15.5ZM8.21996 15.5C6.57657 15.5 5.83357 15.1279 5.47086 14.7652C5.10815 14.4025 4.73608 13.6595 4.73608 12.0161H0.736084C0.736084 14.1631 1.21079 16.162 2.64244 17.5936C4.07408 19.0253 6.07301 19.5 8.21996 19.5V15.5ZM4.73608 12.0161V7.98387H0.736084V12.0161H4.73608ZM4.73608 7.98387C4.73608 6.34049 5.10815 5.59749 5.47086 5.23478C5.83357 4.87207 6.57657 4.5 8.21996 4.5V0.5C6.07301 0.5 4.07408 0.974705 2.64244 2.40635C1.21079 3.838 0.736084 5.83693 0.736084 7.98387H4.73608ZM8.21996 4.5H9.59092V0.5H8.21996V4.5ZM9.59092 4.5C9.37836 4.5 9.04582 4.42042 8.76139 4.13599C8.47696 3.85156 8.39737 3.51901 8.39737 3.30645H12.3974C12.3974 2.61002 12.1565 1.87425 11.5898 1.30756C11.0231 0.740873 10.2874 0.5 9.59092 0.5V4.5ZM8.39737 3.30645C8.39737 3.09389 8.47696 2.76135 8.76139 2.47692C9.04582 2.19249 9.37836 2.1129 9.59092 2.1129V6.1129C10.2874 6.1129 11.0231 5.87203 11.5898 5.30534C12.1565 4.73866 12.3974 4.00288 12.3974 3.30645H8.39737ZM9.59092 2.1129H8.21996V6.1129H9.59092V2.1129ZM8.21996 2.1129C6.65755 2.1129 4.97951 2.3475 3.78155 3.54546C2.58359 4.74343 2.34899 6.42146 2.34899 7.98387H6.34899C6.34899 6.64306 6.59826 6.38561 6.60998 6.37389C6.62169 6.36217 6.87914 6.1129 8.21996 6.1129V2.1129ZM2.34899 7.98387V12.0161H6.34899V7.98387H2.34899ZM2.34899 12.0161C2.34899 13.5785 2.58359 15.2566 3.78155 16.4545C4.97951 17.6525 6.65755 17.8871 8.21996 17.8871V13.8871C6.87914 13.8871 6.62169 13.6378 6.60997 13.6261C6.59826 13.6144 6.34899 13.3569 6.34899 12.0161H2.34899ZM8.21996 17.8871H12.2522V13.8871H8.21996V17.8871ZM12.2522 17.8871C13.8146 17.8871 15.4927 17.6525 16.6906 16.4545C17.8886 15.2566 18.1232 13.5785 18.1232 12.0161H14.1232C14.1232 13.3569 13.8739 13.6144 13.8622 13.6261C13.8505 13.6378 13.593 13.8871 12.2522 13.8871V17.8871ZM18.1232 12.0161V10.6452H14.1232V12.0161H18.1232ZM18.1232 10.6452C18.1232 10.8577 18.0436 11.1903 17.7592 11.4747C17.4747 11.7591 17.1422 11.8387 16.9296 11.8387V7.83871C16.2332 7.83871 15.4974 8.07958 14.9307 8.64627C14.3641 9.21296 14.1232 9.94873 14.1232 10.6452H18.1232ZM16.9296 11.8387C16.7171 11.8387 16.3845 11.7591 16.1001 11.4747C15.8157 11.1903 15.7361 10.8577 15.7361 10.6452H19.7361C19.7361 9.94873 19.4952 9.21296 18.9285 8.64627C18.3618 8.07958 17.6261 7.83871 16.9296 7.83871V11.8387ZM15.7361 10.6452V12.0161H19.7361V10.6452H15.7361ZM15.7361 12.0161C15.7361 13.6595 15.364 14.4025 15.0013 14.7652C14.6386 15.1279 13.8956 15.5 12.2522 15.5V19.5C14.3992 19.5 16.3981 19.0253 17.8297 17.5936C19.2614 16.162 19.7361 14.1631 19.7361 12.0161H15.7361ZM10.8812 8.16129C10.9936 8.16129 11.1767 8.18239 11.381 8.27318C11.5766 8.36012 11.6935 8.46772 11.7309 8.50514L8.90252 11.3336C9.10123 11.5323 9.37941 11.7608 9.75647 11.9284C10.1422 12.0999 10.5269 12.1613 10.8812 12.1613V8.16129ZM11.7309 8.50514C11.9328 8.70696 12.0748 9.00933 12.0748 9.35484C12.0748 9.70035 11.9328 10.0027 11.7309 10.2045L8.90252 7.37611C7.79889 8.47974 7.79889 10.2299 8.90252 11.3336L11.7309 8.50514ZM11.7309 10.2045L16.4084 5.52712L13.5799 2.69869L8.90252 7.37611L11.7309 10.2045ZM14.9941 2.1129H13.7038V6.1129H14.9941V2.1129ZM13.7038 2.1129C13.9164 2.1129 14.2489 2.19249 14.5334 2.47692C14.8178 2.76135 14.8974 3.09389 14.8974 3.30645H10.8974C10.8974 4.00288 11.1382 4.73866 11.7049 5.30534C12.2716 5.87203 13.0074 6.1129 13.7038 6.1129V2.1129ZM14.8974 3.30645C14.8974 3.51901 14.8178 3.85156 14.5334 4.13599C14.2489 4.42042 13.9164 4.5 13.7038 4.5V0.5C13.0074 0.5 12.2716 0.740873 11.7049 1.30756C11.1382 1.87425 10.8974 2.61002 10.8974 3.30645H14.8974ZM13.7038 4.5H16.9296V0.5H13.7038V4.5ZM16.9296 4.5C16.7171 4.5 16.3845 4.42042 16.1001 4.13599C15.8157 3.85156 15.7361 3.51901 15.7361 3.30645H19.7361C19.7361 2.61002 19.4952 1.87425 18.9285 1.30756C18.3618 0.740873 17.6261 0.5 16.9296 0.5V4.5ZM15.7361 3.30645V6.53226H19.7361V3.30645H15.7361ZM15.7361 6.53226C15.7361 6.3197 15.8157 5.98715 16.1001 5.70272C16.3845 5.41829 16.7171 5.33871 16.9296 5.33871V9.33871C17.6261 9.33871 18.3618 9.09784 18.9285 8.53115C19.4952 7.96446 19.7361 7.22869 19.7361 6.53226H15.7361ZM16.9296 5.33871C17.1422 5.33871 17.4747 5.41829 17.7592 5.70272C18.0436 5.98715 18.1232 6.3197 18.1232 6.53226H14.1232C14.1232 7.22869 14.3641 7.96446 14.9307 8.53115C15.4974 9.09784 16.2332 9.33871 16.9296 9.33871V5.33871ZM18.1232 6.53226V5.24194H14.1232V6.53226H18.1232ZM14.709 3.82772L10.0315 8.50514L12.86 11.3336L17.5374 6.65615L14.709 3.82772ZM10.0315 8.50514C10.069 8.46772 10.1859 8.36012 10.3815 8.27318C10.5858 8.18239 10.7688 8.16129 10.8812 8.16129V12.1613C11.2356 12.1613 11.6203 12.0999 12.006 11.9284C12.3831 11.7609 12.6613 11.5323 12.86 11.3336L10.0315 8.50514Z"
          mask="url(#path-1-inside-1_21_7763)"/>
</svg>
