<svg width="24" height="24" viewBox="0 0 24 24" fill="none" xmlns="http://www.w3.org/2000/svg">
<g clip-path="url(#clip0_1237_16577)">
<path d="M7.65006 20.9098C7.62006 20.9098 7.58006 20.9298 7.55006 20.9298C5.61006 19.9698 4.03006 18.3798 3.06006 16.4398C3.06006 16.4098 3.08006 16.3698 3.08006 16.3398C4.30006 16.6998 5.56006 16.9698 6.81006 17.1798C7.03006 18.4398 7.29006 19.6898 7.65006 20.9098Z" fill="#037DD6"/>
<path d="M20.94 16.4498C19.95 18.4398 18.3 20.0498 16.29 21.0198C16.67 19.7498 16.99 18.4698 17.2 17.1798C18.46 16.9698 19.7 16.6998 20.92 16.3398C20.91 16.3798 20.94 16.4198 20.94 16.4498Z" fill="#037DD6"/>
<path d="M21.02 7.71C19.76 7.33 18.49 7.02 17.2 6.8C16.99 5.51 16.68 4.23 16.29 2.98C18.36 3.97 20.03 5.64 21.02 7.71Z" fill="#037DD6"/>
<path d="M7.65 3.09C7.29 4.31 7.03 5.55 6.82 6.81C5.53 7.01 4.25 7.33 2.98 7.71C3.95 5.7 5.56 4.05 7.55 3.06C7.58 3.06 7.62 3.09 7.65 3.09Z" fill="#037DD6"/>
<path d="M15.49 6.59C13.17 6.33 10.83 6.33 8.51 6.59C8.76 5.22 9.08 3.85 9.53 2.53C9.55 2.45 9.54 2.39 9.55 2.31C10.34 2.12 11.15 2 12 2C12.84 2 13.66 2.12 14.44 2.31C14.45 2.39 14.45 2.45 14.47 2.53C14.92 3.86 15.24 5.22 15.49 6.59Z" fill="#037DD6"/>
<path d="M6.59 15.4898C5.21 15.2398 3.85 14.9198 2.53 14.4698C2.45 14.4498 2.39 14.4598 2.31 14.4498C2.12 13.6598 2 12.8498 2 11.9998C2 11.1598 2.12 10.3398 2.31 9.55977C2.39 9.54977 2.45 9.54977 2.53 9.52977C3.86 9.08977 5.21 8.75977 6.59 8.50977C6.34 10.8298 6.34 13.1698 6.59 15.4898Z" fill="#037DD6"/>
<path d="M22.0002 11.9998C22.0002 12.8498 21.8802 13.6598 21.6902 14.4498C21.6102 14.4598 21.5502 14.4498 21.4702 14.4698C20.1402 14.9098 18.7802 15.2398 17.4102 15.4898C17.6702 13.1698 17.6702 10.8298 17.4102 8.50977C18.7802 8.75977 20.1502 9.07977 21.4702 9.52977C21.5502 9.54977 21.6102 9.55977 21.6902 9.55977C21.8802 10.3498 22.0002 11.1598 22.0002 11.9998Z" fill="#037DD6"/>
<path d="M15.4898 17.4102C15.2398 18.7902 14.9198 20.1502 14.4698 21.4702C14.4498 21.5502 14.4498 21.6102 14.4398 21.6902C13.6598 21.8802 12.8398 22.0002 11.9998 22.0002C11.1498 22.0002 10.3398 21.8802 9.54977 21.6902C9.53977 21.6102 9.54977 21.5502 9.52977 21.4702C9.08977 20.1402 8.75977 18.7902 8.50977 17.4102C9.66977 17.5402 10.8298 17.6302 11.9998 17.6302C13.1698 17.6302 14.3398 17.5402 15.4898 17.4102Z" fill="#037DD6"/>
<path d="M15.7633 15.7633C13.2622 16.0789 10.7378 16.0789 8.23667 15.7633C7.92111 13.2622 7.92111 10.7378 8.23667 8.23667C10.7378 7.92111 13.2622 7.92111 15.7633 8.23667C16.0789 10.7378 16.0789 13.2622 15.7633 15.7633Z" fill="#037DD6"/>
</g>
<defs>
<clipPath id="clip0_1237_16577">
<rect width="24" height="24" fill="white"/>
</clipPath>
</defs>
</svg>
