<svg width="16" height="16" viewBox="0 0 16 16" fill="none" xmlns="http://www.w3.org/2000/svg">
  <path d="M8.00016 1.33333C6.68162 1.33333 5.39269 1.72432 4.29636 2.45686C3.20004 3.18941 2.34555 4.2306 1.84097 5.44877C1.33638 6.66694 1.20436 8.00739 1.4616 9.3006C1.71883 10.5938 2.35377 11.7817 3.28612 12.714C4.21847 13.6464 5.40636 14.2813 6.69956 14.5386C7.99277 14.7958 9.33321 14.6638 10.5514 14.1592C11.7696 13.6546 12.8108 12.8001 13.5433 11.7038C14.2758 10.6075 14.6668 9.31854 14.6668 7.99999C14.6634 6.23292 13.96 4.5392 12.7105 3.28969C11.461 2.04018 9.76723 1.33672 8.00016 1.33333ZM7.87196 4.41025C8.0241 4.41025 8.17282 4.45537 8.29932 4.53989C8.42582 4.62441 8.52441 4.74455 8.58264 4.88511C8.64086 5.02567 8.65609 5.18034 8.62641 5.32955C8.59673 5.47877 8.52347 5.61583 8.41589 5.72341C8.30831 5.83099 8.17124 5.90425 8.02203 5.93393C7.87281 5.96361 7.71815 5.94838 7.57759 5.89016C7.43703 5.83194 7.31689 5.73334 7.23237 5.60684C7.14784 5.48034 7.10273 5.33162 7.10273 5.17948C7.10273 4.97547 7.18377 4.77981 7.32803 4.63555C7.47229 4.49129 7.66795 4.41025 7.87196 4.41025ZM8.51298 11.5897H8.00016C7.86416 11.5897 7.73372 11.5357 7.63755 11.4395C7.54137 11.3434 7.48734 11.2129 7.48734 11.0769V7.99999C7.35134 7.99999 7.2209 7.94596 7.12473 7.84979C7.02855 7.75362 6.97452 7.62318 6.97452 7.48717C6.97452 7.35116 7.02855 7.22073 7.12473 7.12455C7.2209 7.02838 7.35134 6.97435 7.48734 6.97435H8.00016C8.13617 6.97435 8.26661 7.02838 8.36278 7.12455C8.45896 7.22073 8.51298 7.35116 8.51298 7.48717V10.5641C8.64899 10.5641 8.77943 10.6181 8.8756 10.7143C8.97178 10.8105 9.02581 10.9409 9.02581 11.0769C9.02581 11.2129 8.97178 11.3434 8.8756 11.4395C8.77943 11.5357 8.64899 11.5897 8.51298 11.5897Z" fill="#9FA6AE"/>
</svg>
