<svg width="16" height="17" viewBox="0 0 16 17" fill="none" xmlns="http://www.w3.org/2000/svg">
  <path d="M8.00065 1.8335C6.68211 1.8335 5.39318 2.22449 4.29685 2.95703C3.20052 3.68957 2.34604 4.73076 1.84146 5.94894C1.33687 7.16711 1.20485 8.50756 1.46209 9.80076C1.71932 11.094 2.35426 12.2819 3.28661 13.2142C4.21896 14.1466 5.40684 14.7815 6.70005 15.0387C7.99326 15.296 9.3337 15.1639 10.5519 14.6594C11.77 14.1548 12.8112 13.3003 13.5438 12.204C14.2763 11.1076 14.6673 9.8187 14.6673 8.50016C14.6639 6.73309 13.9605 5.03937 12.711 3.78986C11.4614 2.54035 9.76772 1.83688 8.00065 1.8335ZM7.87245 4.91042C8.02459 4.91042 8.17331 4.95553 8.29981 5.04006C8.42631 5.12458 8.5249 5.24472 8.58312 5.38528C8.64134 5.52584 8.65658 5.6805 8.6269 5.82972C8.59722 5.97893 8.52395 6.116 8.41637 6.22358C8.3088 6.33116 8.17173 6.40442 8.02252 6.4341C7.8733 6.46378 7.71863 6.44855 7.57807 6.39033C7.43752 6.3321 7.31738 6.23351 7.23285 6.10701C7.14833 5.98051 7.10322 5.83179 7.10322 5.67965C7.10322 5.47564 7.18426 5.27998 7.32852 5.13572C7.47278 4.99146 7.66843 4.91042 7.87245 4.91042ZM8.51347 12.0899H8.00065C7.86464 12.0899 7.73421 12.0359 7.63803 11.9397C7.54186 11.8435 7.48783 11.7131 7.48783 11.5771V8.50016C7.35182 8.50016 7.22139 8.44613 7.12521 8.34996C7.02904 8.25379 6.97501 8.12335 6.97501 7.98734C6.97501 7.85133 7.02904 7.72089 7.12521 7.62472C7.22139 7.52855 7.35182 7.47452 7.48783 7.47452H8.00065C8.13666 7.47452 8.2671 7.52855 8.36327 7.62472C8.45944 7.72089 8.51347 7.85133 8.51347 7.98734V11.0643C8.64948 11.0643 8.77992 11.1183 8.87609 11.2145C8.97226 11.3106 9.02629 11.4411 9.02629 11.5771C9.02629 11.7131 8.97226 11.8435 8.87609 11.9397C8.77992 12.0359 8.64948 12.0899 8.51347 12.0899Z" fill="#BBC0C5"/>
</svg>
