<svg width="32" height="32" viewBox="0 0 32 32" fill="#0376C9"
     xmlns="http://www.w3.org/2000/svg">
    <rect width="32" height="32" rx="16" fill-opacity="0.2"/>
    <path d="M21.0027 17.0062L21.0027 17.0062L21.0021 16.9988C20.9664 16.6024 21.1095 16.2371 21.3505 15.9879L21.3564 15.9819L21.3621 15.9757C21.5682 15.7515 21.8452 15.6264 22.1514 15.6264H23.9833C24.0966 15.6352 24.2225 15.7399 24.2225 15.9197V17.8585C24.2225 18.0383 24.0966 18.1429 23.9833 18.1518H22.2581C21.6257 18.1518 21.0538 17.656 21.0027 17.0062ZM18.3401 17.2256L18.3402 17.2264C18.5099 19.2709 20.2083 20.8968 22.2579 20.8968H23.2853C23.1559 21.9075 22.7485 22.7095 22.1595 23.2672C21.5294 23.8637 20.648 24.2222 19.5557 24.2222H11.5557C9.5059 24.2222 7.77787 22.4489 7.77787 20.183V13.5948C7.77787 12.4412 8.10525 11.5088 8.64274 10.8411C9.17695 10.1774 9.94968 9.73563 10.9235 9.60625L10.9332 9.60496L10.9428 9.60338C11.1364 9.57185 11.3404 9.55558 11.5557 9.55558H19.5557C19.7721 9.55558 19.9495 9.5648 20.1065 9.5925L20.1233 9.59547L20.1402 9.59757C21.8552 9.8103 23.045 11.0062 23.2852 12.8811H22.1512C21.1154 12.8811 20.1483 13.3042 19.4527 14.0598C18.6426 14.8991 18.2453 16.066 18.3401 17.2256ZM11.5557 15.4379H16.889C17.657 15.4379 18.2223 14.783 18.2223 14.0654C18.2223 13.3477 17.657 12.6928 16.889 12.6928H11.5557C10.7876 12.6928 10.2223 13.3477 10.2223 14.0654C10.2223 14.783 10.7876 15.4379 11.5557 15.4379Z"
          fill="#037DD6" stroke="#037DD6" stroke-width="1.33333"/>
</svg>
