<svg width="24" height="24" viewBox="0 0 24 24" fill="none" xmlns="http://www.w3.org/2000/svg">
<path d="M19.0093 4.99125C16.3459 2.33625 12.027 2.33625 9.38171 4.99125C7.51918 6.83625 6.96132 9.49125 7.68114 11.8313L3.45221 16.0613C3.15529 16.3673 2.94834 16.9703 3.01133 17.4023L3.28126 19.3643C3.38023 20.0123 3.98308 20.6243 4.63091 20.7143L6.59241 20.9843C7.0243 21.0473 7.62715 20.8493 7.93307 20.5343L8.67089 19.7963C8.85084 19.6253 8.85084 19.3373 8.67089 19.1573L6.92533 17.4113C6.6644 17.1503 6.6644 16.7182 6.92533 16.4572C7.18626 16.1962 7.61815 16.1962 7.87909 16.4572L9.63364 18.2123C9.8046 18.3833 10.0925 18.3833 10.2635 18.2123L12.171 16.3133C14.5014 17.0423 17.1557 16.4753 19.0093 14.6303C21.6636 11.9753 21.6636 7.64625 19.0093 4.99125ZM14.2495 11.9933C13.0078 11.9933 12 10.9853 12 9.74325C12 8.50125 13.0078 7.49325 14.2495 7.49325C15.4911 7.49325 16.4989 8.50125 16.4989 9.74325C16.4989 10.9853 15.4911 11.9933 14.2495 11.9933Z" fill="#037DD6"/>
</svg>
