<svg width="36" height="36" viewBox="0 0 36 36" fill="#6A737D" xmlns="http://www.w3.org/2000/svg">
  <rect width="36" height="36" rx="18" fill="#141618"/>
  <path d="M18.0145 23.3279C20.9486 23.3279 23.3272 20.9493 23.3272 18.0152C23.3272 15.0811 20.9486 12.7025 18.0145 12.7025C15.0804 12.7025 12.7018 15.0811 12.7018 18.0152C12.7018 20.9493 15.0804 23.3279 18.0145 23.3279Z" />
  <path d="M18.0145 26.3333C17.5971 26.3333 17.2556 26.0222 17.2556 25.6047V25.544C17.2556 25.1266 17.5971 24.7851 18.0145 24.7851C18.432 24.7851 18.7735 25.1266 18.7735 25.544C18.7735 25.9614 18.432 26.3333 18.0145 26.3333ZM23.4335 24.1931C23.2361 24.1931 23.0464 24.1172 22.8946 23.973L22.7959 23.8743C22.5 23.5783 22.5 23.1002 22.7959 22.8042C23.0919 22.5082 23.5701 22.5082 23.8661 22.8042L23.9647 22.9028C24.2607 23.1988 24.2607 23.677 23.9647 23.973C23.8205 24.1172 23.6308 24.1931 23.4335 24.1931ZM12.5956 24.1931C12.3983 24.1931 12.2085 24.1172 12.0567 23.973C11.7607 23.677 11.7607 23.1988 12.0567 22.9028L12.1554 22.8042C12.4514 22.5082 12.9295 22.5082 13.2255 22.8042C13.5215 23.1002 13.5215 23.5783 13.2255 23.8743L13.1269 23.973C12.9827 24.1172 12.7853 24.1931 12.5956 24.1931ZM25.6041 18.7741H25.5434C25.1259 18.7741 24.7844 18.4326 24.7844 18.0152C24.7844 17.5977 25.1259 17.2562 25.5434 17.2562C25.9608 17.2562 26.3327 17.5977 26.3327 18.0152C26.3327 18.4326 26.0215 18.7741 25.6041 18.7741ZM10.4857 18.7741H10.425C10.0075 18.7741 9.66602 18.4326 9.66602 18.0152C9.66602 17.5977 10.0075 17.2562 10.425 17.2562C10.8424 17.2562 11.2143 17.5977 11.2143 18.0152C11.2143 18.4326 10.9031 18.7741 10.4857 18.7741ZM23.3348 13.4538C23.1375 13.4538 22.9477 13.378 22.7959 13.2337C22.5 12.9378 22.5 12.4596 22.7959 12.1636L22.8946 12.065C23.1906 11.769 23.6687 11.769 23.9647 12.065C24.2607 12.3609 24.2607 12.8391 23.9647 13.1351L23.8661 13.2337C23.7219 13.378 23.5321 13.4538 23.3348 13.4538ZM12.6942 13.4538C12.4969 13.4538 12.3072 13.378 12.1554 13.2337L12.0567 13.1275C11.7607 12.8315 11.7607 12.3534 12.0567 12.0574C12.3527 11.7614 12.8309 11.7614 13.1269 12.0574L13.2255 12.156C13.5215 12.452 13.5215 12.9302 13.2255 13.2262C13.0813 13.378 12.884 13.4538 12.6942 13.4538ZM18.0145 11.2149C17.5971 11.2149 17.2556 10.9038 17.2556 10.4863V10.4256C17.2556 10.0082 17.5971 9.66666 18.0145 9.66666C18.432 9.66666 18.7735 10.0082 18.7735 10.4256C18.7735 10.843 18.432 11.2149 18.0145 11.2149Z" />
</svg>
