<?xml version="1.0" encoding="utf-8"?>
<svg viewBox="0 0 153.5 141.2" xmlns="http://www.w3.org/2000/svg">
  <g id="bg_x28_do_not_export_x29_" class="st0" style="display: none;" transform="matrix(0.9999999999999999, 0, 0, 0.9999999999999999, 65.26176452636713, 25.551542282104464)"/>
  <g id="MM_Head_background__x28_Do_not_edit_x29_" transform="matrix(0.9999999999999999, 0, 0, 0.9999999999999999, -25.599998474121122, -25.59999656677249)">
    <g>
      <path class="st1" d="M167.4,96.1l6.9-8.1l-3-2.2l4.8-4.4l-3.7-2.8l4.8-3.6l-3.1-2.4l5-24.4l-7.6-22.6 M171.5,25.6l-48.8,18.1l0,0 l0,0H82l0,0L33.2,25.6l0.3,0.2l-0.3-0.2l-7.6,22.6l5.1,24.4L27.5,75l4.9,3.6l-3.7,2.8l4.8,4.4l-3,2.2l6.9,8.1l-10.5,32.4h0l0,0 l9.7,33.1l34.1-9.4l0-0.1l0,0.1l0,0l0,0l0,0v0l0,0l0,0l0,0l6.6,5.4l13.5,9.2h23.1l13.5-9.2l6.6-5.4l0,0v0l0,0l0,0l34.2,9.4 l9.8-33.1l0,0h0l-10.6-32.4 M70.7,152.1L70.7,152.1L70.7,152.1" style="fill: rgb(245, 132, 31);"/>
    </g>
  </g>
  <g id="Logos" transform="matrix(0.9999999999999999, 0, 0, 0.9999999999999999, -25.561759948730497, -25.59999656677249)">
    <g>
      <polygon class="st2" points="171.5,25.6 111.6,69.7 122.7,43.7 &#9;&#9;" style="fill: rgb(226, 118, 37);"/>
      <polygon class="st2" points="33.2,25.6 92.6,70.1 82,43.7 &#9;&#9;" style="fill: rgb(226, 118, 37);"/>
      <polygon class="st2" points="150,127.9 134,152.1 168.2,161.5 178,128.4 &#9;&#9;" style="fill: rgb(226, 118, 37);"/>
      <polygon class="st2" points="26.9,128.4 36.6,161.5 70.7,152.1 54.8,127.9 &#9;&#9;" style="fill: rgb(226, 118, 37);"/>
      <polygon class="st2" points="68.9,86.9 59.4,101.2 93.2,102.7 92.1,66.5 &#9;&#9;" style="fill: rgb(226, 118, 37);"/>
      <polygon class="st2" points="135.9,86.9 112.3,66.1 111.6,102.7 145.4,101.2 &#9;&#9;" style="fill: rgb(226, 118, 37);"/>
      <polygon class="st2" points="70.7,152.1 91.2,142.3 73.5,128.7 &#9;&#9;" style="fill: rgb(226, 118, 37);"/>
      <polygon class="st2" points="113.6,142.3 134,152.1 131.2,128.7 &#9;&#9;" style="fill: rgb(226, 118, 37);"/>
      <polygon class="st3" points="134,152.1 113.6,142.3 115.3,155.5 115.1,161.1 &#9;&#9;" style="fill: rgb(215, 193, 179);"/>
      <polygon class="st3" points="70.7,152.1 89.7,161.1 89.6,155.5 91.2,142.3 &#9;&#9;" style="fill: rgb(215, 193, 179);"/>
      <polygon class="st4" points="90,119.9 73.1,115 85.1,109.5 &#9;&#9;" style="fill: rgb(47, 52, 59);"/>
      <polygon class="st4" points="114.7,119.9 119.7,109.5 131.7,115 &#9;&#9;" style="fill: rgb(47, 52, 59);"/>
      <polygon class="st5" points="70.7,152.1 73.7,127.9 54.8,128.4 &#9;&#9;" style="fill: rgb(204, 98, 40);"/>
      <polygon class="st5" points="131.1,127.9 134,152.1 150,128.4 &#9;&#9;" style="fill: rgb(204, 98, 40);"/>
      <polygon class="st5" points="145.4,101.2 111.6,102.7 114.7,119.9 119.7,109.5 131.7,115 &#9;&#9;" style="fill: rgb(204, 98, 40);"/>
      <polygon class="st5" points="73.1,115 85.1,109.5 90,119.9 93.2,102.7 59.4,101.2 &#9;&#9;" style="fill: rgb(204, 98, 40);"/>
      <polygon class="st2" points="59.4,101.2 73.5,128.7 73.1,115 &#9;&#9;" style="fill: rgb(226, 118, 37);"/>
      <polygon class="st2" points="131.7,115 131.2,128.7 145.4,101.2 &#9;&#9;" style="fill: rgb(226, 118, 37);"/>
      <polygon class="st2" points="93.2,102.7 90,119.9 94,140.3 94.9,113.5 &#9;&#9;" style="fill: rgb(226, 118, 37);"/>
      <polygon class="st2" points="111.6,102.7 109.9,113.4 110.7,140.3 114.7,119.9 &#9;&#9;" style="fill: rgb(226, 118, 37);"/>
      <polygon class="st1" points="114.7,119.9 110.7,140.3 113.6,142.3 131.2,128.7 131.7,115 &#9;&#9;" style="fill: rgb(245, 132, 31);"/>
      <polygon class="st1" points="73.1,115 73.5,128.7 91.2,142.3 94,140.3 90,119.9 &#9;&#9;" style="fill: rgb(245, 132, 31);"/>
      <polygon class="st6" points="115.1,161.1 115.3,155.5 113.7,154.2 91,154.2 89.6,155.5 89.7,161.1 70.7,152.1 77.3,157.5 &#10;&#9;&#9;&#9;90.8,166.8 113.9,166.8 127.4,157.5 134,152.1 &#9;&#9;" style="fill: rgb(192, 173, 158);"/>
      <polygon class="st4" points="113.6,142.3 110.7,140.3 94,140.3 91.2,142.3 89.6,155.5 91,154.2 113.7,154.2 115.3,155.5 &#9;&#9;" style="fill: rgb(47, 52, 59);"/>
      <polygon class="st7" points="174.1,72.6 179.1,48.2 171.5,25.6 113.6,68.2 135.9,86.9 167.4,96.1 174.3,88 171.3,85.8 176.1,81.5 &#10;&#9;&#9;&#9;172.4,78.6 177.2,75 &#9;&#9;" style="fill: rgb(118, 62, 26);"/>
      <polygon class="st7" points="25.6,48.2 30.7,72.6 27.5,75 32.3,78.7 28.6,81.5 33.4,85.8 30.4,88 37.4,96.1 68.9,86.9 91.2,68.2 &#10;&#9;&#9;&#9;33.2,25.6 &#9;&#9;" style="fill: rgb(118, 62, 26);"/>
      <polygon class="st1" points="167.4,96.1 135.9,86.9 145.4,101.2 131.2,128.7 150,128.4 178,128.4 &#9;&#9;" style="fill: rgb(245, 132, 31);"/>
      <polygon class="st1" points="68.9,86.9 37.4,96.1 26.9,128.4 54.8,128.4 73.5,128.7 59.4,101.2 &#9;&#9;" style="fill: rgb(245, 132, 31);"/>
      <polygon class="st1" points="111.6,102.7 113.6,68.2 122.7,43.7 82,43.7 91.2,68.2 93.2,102.7 94,113.5 94,140.3 110.7,140.3 &#10;&#9;&#9;&#9;110.8,113.5 &#9;&#9;" style="fill: rgb(245, 132, 31);"/>
    </g>
  </g>
</svg>
