<svg width="36" height="36" viewBox="0 0 36 36" fill="#0376C9" xmlns="http://www.w3.org/2000/svg">
  <rect width="36" height="36" rx="18" fill-opacity="0.2" />
  <path d="M24.3595 20.075L23.4928 18.6917C23.3108 18.3833 23.1461 17.8 23.1461 17.4583V15.35C23.1461 13.3917 21.9501 11.7 20.2253 10.9083C19.7746 10.1417 18.9425 9.66666 17.9891 9.66666C17.0444 9.66666 16.195 10.1583 15.7443 10.9333C14.0542 11.7417 12.8842 13.4167 12.8842 15.35V17.4583C12.8842 17.8 12.7195 18.3833 12.5375 18.6833L11.6621 20.075C11.3154 20.6333 11.2374 21.25 11.4541 21.8167C11.6621 22.375 12.1561 22.8083 12.7975 23.0167C14.4789 23.5667 16.247 23.8333 18.0151 23.8333C19.7833 23.8333 21.5514 23.5667 23.2328 23.025C23.8395 22.8333 24.3075 22.3917 24.5329 21.8167C24.7582 21.2417 24.6976 20.6083 24.3595 20.075Z"/>
  <path d="M20.4504 24.675C20.0863 25.6417 19.1243 26.3333 17.9975 26.3333C17.3128 26.3333 16.6368 26.0667 16.1601 25.5917C15.8827 25.3417 15.6747 25.0083 15.5534 24.6667C15.6661 24.6833 15.7787 24.6917 15.9001 24.7083C16.0994 24.7333 16.3074 24.7583 16.5154 24.775C17.0095 24.8167 17.5122 24.8417 18.0149 24.8417C18.5089 24.8417 19.0029 24.8167 19.4883 24.775C19.6703 24.7583 19.8523 24.75 20.0257 24.725C20.1643 24.7083 20.303 24.6917 20.4504 24.675Z"/>
</svg>
