<svg width="32" height="32" viewBox="0 0 32 32" fill="none"
     xmlns="http://www.w3.org/2000/svg">
    <rect width="32" height="32" rx="16" fill="#e8f1fb"/>
    <path d="M22.3599 18.4789L22.3613 18.4811C22.6376 18.917 22.6846 19.4255 22.503 19.8888C22.318 20.3609 21.9348 20.7242 21.4312 20.8833L21.4312 20.8833L21.4285 20.8842C19.6865 21.4454 17.8523 21.7223 16.0163 21.7223C14.1802 21.7223 12.3469 21.4454 10.6062 20.876L10.6052 20.8757C10.0388 20.6917 9.64563 20.3242 9.48633 19.8966L9.48634 19.8966L9.48481 19.8926C9.31622 19.4517 9.36673 18.9573 9.66373 18.4783C9.66397 18.4779 9.66421 18.4776 9.66444 18.4772L10.5966 16.9952L10.5967 16.9952L10.6009 16.9883C10.7303 16.7751 10.8376 16.4923 10.9123 16.2284C10.9867 15.9651 11.0432 15.669 11.0432 15.4223V13.1734C11.0432 11.3209 12.1647 9.70019 13.8098 8.91338L13.9488 8.84689L14.0263 8.71367C14.4155 8.04443 15.1548 7.61121 15.9885 7.61121C16.8357 7.61121 17.5555 8.03033 17.9427 8.68904L18.0224 8.82451L18.1652 8.89007C19.8426 9.66002 20.9893 11.2962 20.9893 13.1734V15.4223C20.9893 15.669 21.0459 15.9651 21.1201 16.2289C21.1948 16.4942 21.3015 16.7768 21.4286 16.992L21.4284 16.9921L21.4354 17.0033L22.3599 18.4789ZM14.3703 23.7246C14.372 23.7248 14.3738 23.7249 14.3755 23.7251C14.9136 23.7704 15.4637 23.7979 16.016 23.7979C16.5596 23.7979 17.1011 23.7704 17.6304 23.7249L17.6332 23.7247C17.6341 23.7246 17.6349 23.7245 17.6358 23.7244C17.2224 24.1323 16.643 24.389 15.9975 24.389C15.3919 24.389 14.8 24.1518 14.3905 23.7437L14.3816 23.7349L14.3723 23.7265C14.3716 23.7259 14.371 23.7253 14.3703 23.7246Z"
          fill="#037DD6" stroke="#037DD6"/>
</svg>
