<svg width="11" height="14" viewBox="0 0 11 14" fill="currentColor" xmlns="http://www.w3.org/2000/svg">
  <path d="M1.59365 5.08555C1.59365 4.00199 2.02409 2.96282 2.79028 2.19663C3.55647 1.43044 4.59564 1 5.6792 1C6.76275 1 7.80193 1.43044 8.56811 2.19663C9.3343 2.96282 9.76474 4.00199 9.76474 5.08555V7.48427L10.7861 9.01635V11.2139H7.92063C7.80447 11.7213 7.51951 12.1744 7.11238 12.4988C6.70526 12.8233 6.20006 13 5.67945 13C5.15885 13 4.65365 12.8233 4.24652 12.4988C3.83939 12.1744 3.55444 11.7213 3.43828 11.2139H0.572266V9.01635L1.59365 7.48427V5.08555ZM4.50869 11.2139C4.60796 11.4418 4.7716 11.6357 4.97952 11.7719C5.18745 11.9082 5.43062 11.9807 5.6792 11.9807C5.92778 11.9807 6.17095 11.9082 6.37887 11.7719C6.5868 11.6357 6.75044 11.4418 6.84971 11.2139H4.50869ZM5.6792 2.02139C4.86653 2.02139 4.08715 2.34422 3.51251 2.91886C2.93787 3.4935 2.61504 4.27288 2.61504 5.08555V7.79375L1.59365 9.32583V10.1925H9.76474V9.32583L8.74336 7.79375V5.08555C8.74336 4.27288 8.42053 3.4935 7.84589 2.91886C7.27124 2.34422 6.49186 2.02139 5.6792 2.02139Z" fill="currentColor" stroke="currentColor" stroke-width="0.3"/>
</svg>
