<svg width="24" height="24" viewBox="0 0 24 24" fill="none" xmlns="http://www.w3.org/2000/svg">
<path fill-rule="evenodd" clip-rule="evenodd" d="M22 12C22 17.5229 17.5229 22 12 22C6.47716 22 2 17.5229 2 12C2 6.47716 6.47716 2 12 2C17.5229 2 22 6.47716 22 12ZM12 6.72222C10.3942 6.72222 8.94444 7.90381 8.94444 9.55226C8.94444 10.0124 9.31754 10.3856 9.77778 10.3856C10.238 10.3856 10.6111 10.0124 10.6111 9.55226C10.6111 8.98753 11.1426 8.38889 12 8.38889C12.8574 8.38889 13.3889 8.98753 13.3889 9.55226C13.3889 9.86567 13.2153 10.0824 12.6887 10.4056L12.6852 10.4078C12.1098 10.7648 11.1667 11.4146 11.1667 12.7157V12.9682C11.1667 13.4284 11.5398 13.8016 12 13.8016C12.4602 13.8016 12.8333 13.4284 12.8333 12.9682V12.7157C12.8333 12.3812 13.0144 12.165 13.5622 11.825C14.1336 11.4743 15.0556 10.8251 15.0556 9.55226C15.0556 7.90381 13.6058 6.72222 12 6.72222ZM11.9939 15.0097C11.5336 15.0097 11.1606 15.3828 11.1606 15.843C11.1606 16.3033 11.5336 16.6763 11.9939 16.6763H12.0059C12.4661 16.6763 12.8392 16.3033 12.8392 15.843C12.8392 15.3828 12.4661 15.0097 12.0059 15.0097H11.9939Z" fill="#037DD6"/>
</svg>
