<svg width="20" height="20" viewBox="0 0 20 20" fill="#878787"
     xmlns="http://www.w3.org/2000/svg">
    <path d="M17.5757 18.3334C17.3484 18.3334 17.1969 18.2576 17.0454 18.1061L15.5303 16.5909C15.2272 16.2879 15.2272 15.8334 15.5303 15.5303C15.8333 15.2273 16.2878 15.2273 16.5909 15.5303L18.106 17.0455C18.4091 17.3485 18.4091 17.8031 18.106 18.1061C17.9545 18.2576 17.803 18.3334 17.5757 18.3334ZM9.62117 17.5758C5.22723 17.5758 1.66663 14.0152 1.66663 9.62123C1.66663 5.22729 5.22723 1.66669 9.62117 1.66669C14.0151 1.66669 17.5757 5.22729 17.5757 9.62123C17.5757 14.0152 14.0151 17.5758 9.62117 17.5758ZM9.62117 3.18184C6.06057 3.18184 3.18178 6.06063 3.18178 9.62123C3.18178 13.1818 6.06057 16.0606 9.62117 16.0606C13.1818 16.0606 16.0606 13.1818 16.0606 9.62123C16.0606 6.06063 13.1818 3.18184 9.62117 3.18184Z"/>
</svg>
