<svg width="24" height="24" viewBox="0 0 24 24" fill="none" xmlns="http://www.w3.org/2000/svg">
<path d="M18.6413 6.97572V9.47979C18.6413 10.1881 17.9754 10.647 17.3556 10.3976C16.5786 10.0883 15.7184 9.96863 14.8119 10.0684C12.6105 10.3278 10.3536 12.6124 9.98357 14.9768C9.67833 16.9421 10.2611 18.7778 11.3803 20.0747C11.889 20.6733 11.5468 21.641 10.7975 21.7308C10.1593 21.8106 9.53033 21.7906 9.17884 21.5113L4.09147 17.411C3.49024 16.9222 3 15.8647 3 15.0466V6.97572C3 5.84839 3.79548 4.61132 4.7667 4.21226L9.85407 2.15713C10.3813 1.94762 11.2508 1.94762 11.778 2.15713L16.8654 4.21226C17.8459 4.61132 18.6413 5.84839 18.6413 6.97572Z" fill="#037DD6"/>
<path d="M15.4501 11.5346C13.1562 11.5346 11.2878 13.5498 11.2878 16.0239C11.2878 18.4981 13.1562 20.5133 15.4501 20.5133C17.7441 20.5133 19.6125 18.4981 19.6125 16.0239C19.6125 13.5398 17.7441 11.5346 15.4501 11.5346Z" fill="#037DD6"/>
<path d="M20.075 22C19.8253 22 19.594 21.8903 19.4183 21.7107C19.3813 21.6608 19.335 21.6109 19.3073 21.5511C19.2703 21.5012 19.2425 21.4413 19.224 21.3815C19.1963 21.3216 19.1778 21.2618 19.1685 21.2019C19.1593 21.1321 19.15 21.0722 19.15 21.0024C19.15 20.8727 19.1778 20.743 19.224 20.6233C19.2703 20.4936 19.335 20.3938 19.4183 20.294C19.631 20.0646 19.9548 19.9548 20.2508 20.0247C20.3155 20.0347 20.371 20.0546 20.4265 20.0845C20.482 20.1045 20.5375 20.1344 20.5838 20.1743C20.6393 20.2043 20.6855 20.2541 20.7318 20.294C20.815 20.3938 20.8798 20.4936 20.926 20.6233C20.9723 20.743 21 20.8727 21 21.0024C21 21.2617 20.8983 21.5211 20.7318 21.7107C20.6855 21.7506 20.6393 21.7905 20.5838 21.8304C20.5375 21.8703 20.482 21.9002 20.4265 21.9202C20.371 21.9501 20.3155 21.9701 20.2508 21.98C20.1953 21.99 20.1305 22 20.075 22Z" fill="#037DD6"/>
</svg>
