<svg width="24" height="24" viewBox="0 0 24 24" fill="#FCFCFC" xmlns="http://www.w3.org/2000/svg">
  <path d="M9.99588 7.7034C10.1014 7.7034 10.1616 7.62806 10.1842 7.53013C10.4328 6.27957 10.4178 6.24944 11.7211 5.9933C11.8341 5.9707 11.9019 5.91043 11.9019 5.80496C11.9019 5.69949 11.8341 5.63923 11.7286 5.61663C10.4102 5.34542 10.4178 5.31529 10.1842 4.07226C10.1692 3.97433 10.1014 3.90652 9.99588 3.90652C9.89042 3.90652 9.83015 3.97433 9.81508 4.07226C9.55894 5.33035 9.58154 5.37555 8.27072 5.61663C8.16525 5.63169 8.09745 5.69949 8.09745 5.80496C8.09745 5.9029 8.16525 5.9707 8.27072 5.9933C9.58154 6.25697 9.57401 6.28711 9.81508 7.53013C9.83015 7.62806 9.89042 7.7034 9.99588 7.7034ZM16.4521 10.3853C16.5726 10.3853 16.6479 10.2949 16.6705 10.1819C16.9418 8.72042 16.9267 8.64508 18.4635 8.38141C18.5916 8.35881 18.6745 8.28348 18.6745 8.16294C18.6745 8.04241 18.5916 7.96707 18.4711 7.94447C16.9267 7.66573 16.9041 7.59793 16.6705 6.14397C16.6479 6.02343 16.5726 5.94056 16.4521 5.94056C16.3315 5.94056 16.2487 6.02343 16.2336 6.14397C15.9699 7.613 15.9775 7.7034 14.4256 7.94447C14.3126 7.95954 14.2222 8.04241 14.2222 8.16294C14.2297 8.28348 14.305 8.35881 14.4256 8.38141C15.9775 8.65262 15.9925 8.72795 16.2336 10.1819C16.2487 10.2949 16.3315 10.3853 16.4521 10.3853ZM5.84494 12.6454C5.96547 12.6454 6.04834 12.5625 6.06341 12.442C6.30448 10.9805 6.32708 10.9051 7.86391 10.6415C7.98444 10.6189 8.06731 10.5435 8.06731 10.423C8.06731 10.3025 7.98444 10.2271 7.87144 10.2045C6.31955 9.92578 6.31955 9.85798 6.06341 8.40401C6.04081 8.28348 5.96547 8.20061 5.84494 8.20061C5.7244 8.20061 5.64907 8.28348 5.62646 8.40401C5.38539 9.87304 5.37033 9.94838 3.82596 10.2045C3.70543 10.2271 3.62256 10.3025 3.62256 10.423C3.62256 10.5435 3.70543 10.6189 3.81843 10.6415C5.37033 10.9127 5.37033 10.9955 5.62646 12.4495C5.64907 12.5625 5.7244 12.6454 5.84494 12.6454ZM18.7423 19.1091C19.1114 19.4858 19.7442 19.4782 20.1058 19.1091C20.475 18.7249 20.4674 18.1222 20.1058 17.7455L12.949 10.5511C12.5799 10.1819 11.9471 10.1819 11.5854 10.5511C11.2163 10.9353 11.2238 11.5455 11.5854 11.9146L18.7423 19.1091ZM14.4934 13.8884L12.2258 11.6208C12.0751 11.4626 12.0224 11.2818 12.1731 11.1311C12.3087 10.9955 12.497 11.0332 12.6627 11.1914L14.9228 13.459L14.4934 13.8884ZM9.47607 19.2974C9.63428 19.2974 9.74728 19.192 9.76988 19.0187C10.011 16.9846 10.1089 16.9244 12.1806 16.6004C12.3689 16.5703 12.4819 16.4724 12.4819 16.3066C12.4819 16.1484 12.3689 16.043 12.2183 16.0128C10.1164 15.606 10.011 15.6211 9.76988 13.5946C9.74728 13.4213 9.63428 13.3158 9.47607 13.3158C9.31787 13.3158 9.20487 13.4213 9.18227 13.587C8.92613 15.6512 8.8508 15.7266 6.74142 16.0128C6.59075 16.0279 6.47021 16.1484 6.47021 16.3066C6.47021 16.4648 6.58322 16.5703 6.73389 16.6004C8.85833 17.0072 8.9186 17.0072 9.18227 19.0338C9.20487 19.192 9.31787 19.2974 9.47607 19.2974Z"/>
</svg>
