<svg width="24" height="24" viewBox="0 0 24 24" fill="none" xmlns="http://www.w3.org/2000/svg">
<path fill-rule="evenodd" clip-rule="evenodd" d="M2 15.8191V18.1765C2 18.3949 2.08104 18.6043 2.22531 18.7588C2.36956 18.9132 2.56522 19 2.76923 19H21.2307C21.4347 19 21.6304 18.9132 21.7747 18.7588C21.9189 18.6043 22 18.3949 22 18.1765V15.7059C22 14.2965 21.7401 12.9011 21.2352 11.5994C20.7302 10.2978 19.9901 9.11582 19.0575 8.12115C18.1248 7.12648 17.0179 6.33876 15.8002 5.80316C14.5825 5.26758 13.278 4.99466 11.9616 5.00008C6.44231 5.02067 2 9.9 2 15.8191ZM18.3158 14.6923C18.8972 14.6923 19.3684 14.2102 19.3684 13.6154C19.3684 13.0206 18.8972 12.5385 18.3158 12.5385C17.7344 12.5385 17.2632 13.0206 17.2632 13.6154C17.2632 14.2102 17.7344 14.6923 18.3158 14.6923ZM6.21053 13.6154C6.21053 14.2102 5.73924 14.6923 5.1579 14.6923C4.57655 14.6923 4.10526 14.2102 4.10526 13.6154C4.10526 13.0206 4.57655 12.5385 5.1579 12.5385C5.73924 12.5385 6.21053 13.0206 6.21053 13.6154ZM11.3164 9.3077C11.8978 9.3077 12.3691 8.82554 12.3691 8.23077C12.3691 7.63601 11.8978 7.15385 11.3164 7.15385C10.7351 7.15385 10.2638 7.63601 10.2638 8.23077C10.2638 8.82554 10.7351 9.3077 11.3164 9.3077ZM17.2951 9.81349C17.6034 10.129 17.6034 10.6403 17.2951 10.9557L13.3968 14.944C13.4132 15.037 13.4217 15.1329 13.4217 15.2308C13.4217 16.1229 12.7147 16.8462 11.8427 16.8462C10.9707 16.8462 10.2638 16.1229 10.2638 15.2308C10.2638 14.3386 10.9707 13.6154 11.8427 13.6154C12.0282 13.6154 12.2063 13.6481 12.3717 13.7082L16.1786 9.81349C16.4869 9.49807 16.9867 9.49807 17.2951 9.81349Z" fill="#037DD6"/>
</svg>
