<svg width="32" height="32" viewBox="0 0 32 32" fill="#0376C9"
     xmlns="http://www.w3.org/2000/svg">
    <rect width="32" height="32" rx="16" fill-opacity="0.2"/>
    <path d="M7.67687 21.6665L7.67685 21.6665C7.63828 21.6252 7.61121 21.5624 7.61121 21.4903V19.3948C7.61121 14.3693 11.3751 10.295 15.9678 10.2779L15.968 10.2779C17.0674 10.2734 18.1578 10.5012 19.1767 10.9494C20.1959 11.3977 21.1246 12.058 21.9087 12.8942C22.6928 13.7305 23.3167 14.7261 23.743 15.8248C24.1692 16.9236 24.389 18.1027 24.389 19.2942V21.4903C24.389 21.5624 24.3619 21.6253 24.3233 21.6666C24.2857 21.7068 24.2424 21.7223 24.2052 21.7223H7.79497C7.75771 21.7223 7.71441 21.7067 7.67687 21.6665ZM21.0644 13.707L21.0644 13.707C20.5942 13.226 19.8271 13.226 19.3569 13.707L19.7144 14.0565L19.3569 13.707L16.1749 16.9623C16.0724 16.945 15.9673 16.936 15.8603 16.936C14.7984 16.936 13.9568 17.8135 13.9568 18.8719C13.9568 19.9302 14.7984 20.8077 15.8603 20.8077C16.9223 20.8077 17.7638 19.9302 17.7638 18.8719C17.7638 18.8476 17.7634 18.8235 17.7625 18.7995L21.0644 15.4213C21.5284 14.9466 21.5283 14.1817 21.0644 13.707ZM21.6141 18.8932C22.4177 18.8932 23.0498 18.23 23.0498 17.436C23.0498 16.6419 22.4177 15.9787 21.6141 15.9787C20.8105 15.9787 20.1785 16.6419 20.1785 17.436C20.1785 18.23 20.8105 18.8932 21.6141 18.8932ZM9.91822 18.8932C10.7218 18.8932 11.3539 18.23 11.3539 17.436C11.3539 16.6419 10.7218 15.9787 9.91822 15.9787C9.11464 15.9787 8.48255 16.6419 8.48255 17.436C8.48255 18.23 9.11464 18.8932 9.91822 18.8932ZM15.3925 14.1069C16.1961 14.1069 16.8281 13.4436 16.8281 12.6496C16.8281 11.8556 16.1961 11.1924 15.3925 11.1924C14.5889 11.1924 13.9568 11.8556 13.9568 12.6496C13.9568 13.4436 14.5889 14.1069 15.3925 14.1069Z"
          fill="#037DD6" stroke="#037DD6"/>
</svg>
