<svg width="24" height="24" viewBox="0 0 24 24" fill="none" xmlns="http://www.w3.org/2000/svg">
<path d="M21.019 3.26667C20.3333 2.48571 19.3143 2 18.1905 2C17.1238 2 16.1524 2.4381 15.4571 3.15238C15.0571 3.56191 14.7524 4.05714 14.5714 4.60952C14.4476 4.99048 14.381 5.39048 14.381 5.80952C14.381 6.52381 14.581 7.2 14.9333 7.77143C15.1238 8.09524 15.3714 8.39048 15.6571 8.6381C16.3238 9.24762 17.2095 9.61905 18.1905 9.61905C18.6095 9.61905 19.0095 9.55238 19.381 9.41905C20.2571 9.14286 20.9905 8.54286 21.4476 7.77143C21.6476 7.44762 21.8 7.07619 21.8857 6.69524C21.9619 6.40952 22 6.11429 22 5.80952C22 4.8381 21.6286 3.94286 21.019 3.26667ZM19.6095 6.50476H18.9048V7.24762C18.9048 7.6381 18.581 7.96191 18.1905 7.96191C17.8 7.96191 17.4762 7.6381 17.4762 7.24762V6.50476H16.7714C16.381 6.50476 16.0571 6.18095 16.0571 5.79048C16.0571 5.4 16.381 5.07619 16.7714 5.07619H17.4762V4.4C17.4762 4.00952 17.8 3.68571 18.1905 3.68571C18.581 3.68571 18.9048 4.00952 18.9048 4.4V5.07619H19.6095C20 5.07619 20.3238 5.4 20.3238 5.79048C20.3238 6.18095 20.0095 6.50476 19.6095 6.50476Z" fill="#037DD6"/>
<path d="M21.0476 12.4762C21.0476 11.2286 20.8095 10.0286 20.3619 8.93333C20.0667 9.14286 19.7333 9.30476 19.381 9.41905C19.2762 9.45714 19.1714 9.48572 19.0571 9.51429C19.419 10.4286 19.619 11.4286 19.619 12.4762C19.619 14.6857 18.7238 16.6952 17.2762 18.1619C17 17.8095 16.6476 17.4857 16.2286 17.2095C13.6476 15.4762 9.41905 15.4762 6.81905 17.2095C6.4 17.4857 6.05714 17.8095 5.77143 18.1619C4.32381 16.6952 3.42857 14.6857 3.42857 12.4762C3.42857 8.00952 7.05714 4.38095 11.5238 4.38095C12.5619 4.38095 13.5619 4.58095 14.4762 4.94286C14.5048 4.82857 14.5333 4.72381 14.5714 4.60952C14.6857 4.25714 14.8476 3.93333 15.0667 3.6381C13.9714 3.19048 12.7714 2.95238 11.5238 2.95238C6.27619 2.95238 2 7.22857 2 12.4762C2 15.2381 3.19048 17.7238 5.07619 19.4667C5.07619 19.4762 5.07619 19.4762 5.06667 19.4857C5.1619 19.581 5.27619 19.6571 5.37143 19.7429C5.42857 19.7905 5.47619 19.8381 5.53333 19.8762C5.70476 20.019 5.89524 20.1524 6.07619 20.2857C6.14286 20.3333 6.2 20.3714 6.26667 20.4191C6.44762 20.5429 6.6381 20.6571 6.8381 20.7619C6.90476 20.8 6.98095 20.8476 7.04762 20.8857C7.2381 20.9905 7.4381 21.0857 7.64762 21.1714C7.72381 21.2095 7.8 21.2476 7.87619 21.2762C8.08571 21.3619 8.29524 21.4381 8.50476 21.5048C8.58095 21.5333 8.65714 21.5619 8.73333 21.581C8.96191 21.6476 9.19048 21.7048 9.41905 21.7619C9.48572 21.781 9.55238 21.8 9.62857 21.8095C9.89524 21.8667 10.1619 21.9048 10.4381 21.9333C10.4762 21.9333 10.5143 21.9429 10.5524 21.9524C10.8762 21.981 11.2 22 11.5238 22C11.8476 22 12.1714 21.981 12.4857 21.9524C12.5238 21.9524 12.5619 21.9429 12.6 21.9333C12.8762 21.9048 13.1429 21.8667 13.4095 21.8095C13.4762 21.8 13.5429 21.7714 13.619 21.7619C13.8476 21.7048 14.0857 21.6571 14.3048 21.581C14.381 21.5524 14.4571 21.5238 14.5333 21.5048C14.7429 21.4286 14.9619 21.3619 15.1619 21.2762C15.2381 21.2476 15.3143 21.2095 15.3905 21.1714C15.5905 21.0857 15.7905 20.9905 15.9905 20.8857C16.0667 20.8476 16.1333 20.8 16.2 20.7619C16.3905 20.6476 16.581 20.5429 16.7714 20.4191C16.8381 20.381 16.8952 20.3333 16.9619 20.2857C17.1524 20.1524 17.3333 20.019 17.5048 19.8762C17.5619 19.8286 17.6095 19.781 17.6667 19.7429C17.7714 19.6571 17.8762 19.5714 17.9714 19.4857C17.9714 19.4762 17.9714 19.4762 17.9619 19.4667C19.8571 17.7238 21.0476 15.2381 21.0476 12.4762Z" fill="#037DD6"/>
<path d="M11.5238 7.64779C9.55238 7.64779 7.95238 9.24779 7.95238 11.2192C7.95238 13.1526 9.46667 14.724 11.4762 14.7811C11.5048 14.7811 11.5429 14.7811 11.5619 14.7811C11.581 14.7811 11.6095 14.7811 11.6286 14.7811C11.6381 14.7811 11.6476 14.7811 11.6476 14.7811C13.5714 14.7145 15.0857 13.1526 15.0952 11.2192C15.0952 9.24779 13.4952 7.64779 11.5238 7.64779Z" fill="#037DD6"/>
</svg>
