<svg width="24" height="24" viewBox="0 0 24 24" fill="none" xmlns="http://www.w3.org/2000/svg">
<path fill-rule="evenodd" clip-rule="evenodd" d="M3.66126 9.77205C5.96454 7.74178 8.92942 6.62158 11.9998 6.62158C15.0701 6.62158 18.035 7.74178 20.3383 9.77205C20.7526 10.1373 21.3845 10.0974 21.7497 9.68314C22.1149 9.26883 22.0751 8.63692 21.6608 8.27172C18.9922 5.91944 15.5571 4.62158 11.9998 4.62158C8.44246 4.62158 5.00734 5.91944 2.33876 8.27172C1.92446 8.63692 1.88465 9.26883 2.24985 9.68314C2.61504 10.0974 3.24696 10.1373 3.66126 9.77205ZM6.68527 12.8092C8.18693 11.5585 10.0794 10.8735 12.0337 10.8735C13.9881 10.8735 15.8806 11.5585 17.3822 12.8092C17.8066 13.1627 18.4371 13.1052 18.7907 12.6809C19.1441 12.2565 19.0866 11.6259 18.6623 11.2725C16.8013 9.72233 14.4558 8.87349 12.0337 8.87349C9.61174 8.87349 7.2663 9.72233 5.40527 11.2725C4.98091 11.6259 4.92344 12.2565 5.2769 12.6809C5.63036 13.1052 6.26091 13.1627 6.68527 12.8092ZM12.0034 15.1264C11.1516 15.1264 10.321 15.3914 9.62661 15.8847C9.17638 16.2046 8.5521 16.0989 8.23223 15.6487C7.91237 15.1984 8.01805 14.5742 8.46827 14.2543C9.50105 13.5206 10.7365 13.1264 12.0034 13.1264C13.2703 13.1264 14.5058 13.5206 15.5385 14.2543C15.9888 14.5742 16.0945 15.1984 15.7746 15.6487C15.4547 16.0989 14.8304 16.2046 14.3802 15.8847C13.6858 15.3914 12.8552 15.1264 12.0034 15.1264ZM11.999 17.3784C11.4467 17.3784 10.999 17.8261 10.999 18.3784C10.999 18.9307 11.4467 19.3784 11.999 19.3784H12.0074C12.5596 19.3784 13.0074 18.9307 13.0074 18.3784C13.0074 17.8261 12.5596 17.3784 12.0074 17.3784H11.999Z" fill="#037DD6"/>
</svg>
